%TF.GenerationSoftware,KiCad,Pcbnew,7.0.11-7.0.11~ubuntu22.04.1*%
%TF.CreationDate,2024-09-13T11:34:54+03:00*%
%TF.ProjectId,RVPC_Rev_B,52565043-5f52-4657-965f-422e6b696361,B*%
%TF.SameCoordinates,PX7bfa480PY7270e00*%
%TF.FileFunction,Copper,L1,Top*%
%TF.FilePolarity,Positive*%
%FSLAX46Y46*%
G04 Gerber Fmt 4.6, Leading zero omitted, Abs format (unit mm)*
G04 Created by KiCad (PCBNEW 7.0.11-7.0.11~ubuntu22.04.1) date 2024-09-13 11:34:54*
%MOMM*%
%LPD*%
G01*
G04 APERTURE LIST*
G04 Aperture macros list*
%AMRoundRect*
0 Rectangle with rounded corners*
0 $1 Rounding radius*
0 $2 $3 $4 $5 $6 $7 $8 $9 X,Y pos of 4 corners*
0 Add a 4 corners polygon primitive as box body*
4,1,4,$2,$3,$4,$5,$6,$7,$8,$9,$2,$3,0*
0 Add four circle primitives for the rounded corners*
1,1,$1+$1,$2,$3*
1,1,$1+$1,$4,$5*
1,1,$1+$1,$6,$7*
1,1,$1+$1,$8,$9*
0 Add four rect primitives between the rounded corners*
20,1,$1+$1,$2,$3,$4,$5,0*
20,1,$1+$1,$4,$5,$6,$7,0*
20,1,$1+$1,$6,$7,$8,$9,0*
20,1,$1+$1,$8,$9,$2,$3,0*%
G04 Aperture macros list end*
%TA.AperFunction,ComponentPad*%
%ADD10R,1.600000X1.600000*%
%TD*%
%TA.AperFunction,ComponentPad*%
%ADD11C,1.600000*%
%TD*%
%TA.AperFunction,ComponentPad*%
%ADD12R,1.700000X1.000000*%
%TD*%
%TA.AperFunction,ComponentPad*%
%ADD13RoundRect,0.250000X0.600000X-0.250000X0.600000X0.250000X-0.600000X0.250000X-0.600000X-0.250000X0*%
%TD*%
%TA.AperFunction,SMDPad,CuDef*%
%ADD14C,1.000000*%
%TD*%
%TA.AperFunction,ComponentPad*%
%ADD15C,1.524000*%
%TD*%
%TA.AperFunction,ConnectorPad*%
%ADD16C,1.000000*%
%TD*%
%TA.AperFunction,ComponentPad*%
%ADD17O,4.800000X2.800000*%
%TD*%
%TA.AperFunction,ComponentPad*%
%ADD18R,1.778000X1.778000*%
%TD*%
%TA.AperFunction,ComponentPad*%
%ADD19O,5.000000X2.000000*%
%TD*%
%TA.AperFunction,ComponentPad*%
%ADD20O,2.000000X5.000000*%
%TD*%
%TA.AperFunction,SMDPad,CuDef*%
%ADD21R,0.600000X2.200000*%
%TD*%
%TA.AperFunction,ComponentPad*%
%ADD22C,1.410000*%
%TD*%
%TA.AperFunction,ComponentPad*%
%ADD23C,3.500000*%
%TD*%
%TA.AperFunction,ComponentPad*%
%ADD24R,1.524000X1.524000*%
%TD*%
%TA.AperFunction,ComponentPad*%
%ADD25R,2.000000X2.000000*%
%TD*%
%TA.AperFunction,ComponentPad*%
%ADD26C,2.000000*%
%TD*%
%TA.AperFunction,ComponentPad*%
%ADD27C,1.778000*%
%TD*%
%TA.AperFunction,ViaPad*%
%ADD28C,1.000000*%
%TD*%
%TA.AperFunction,Conductor*%
%ADD29C,1.778000*%
%TD*%
%TA.AperFunction,Conductor*%
%ADD30C,2.032000*%
%TD*%
%TA.AperFunction,Conductor*%
%ADD31C,0.762000*%
%TD*%
%TA.AperFunction,Conductor*%
%ADD32C,1.016000*%
%TD*%
%TA.AperFunction,Conductor*%
%ADD33C,1.524000*%
%TD*%
%TA.AperFunction,Conductor*%
%ADD34C,1.270000*%
%TD*%
G04 APERTURE END LIST*
D10*
X11500000Y22190000D03*
D11*
X11500000Y29810000D03*
D12*
X8200000Y34550000D03*
D13*
X8200000Y32750000D03*
X8200000Y30950000D03*
D14*
X2000000Y34000000D03*
D15*
X27000000Y26960000D03*
X27000000Y32040000D03*
X19000000Y39040000D03*
X19000000Y33960000D03*
D16*
X2000000Y40000000D03*
D15*
X11500000Y39040000D03*
X11500000Y33960000D03*
D11*
X11220000Y43040000D03*
X13510000Y43040000D03*
X15800000Y43040000D03*
X18090000Y43040000D03*
X20380000Y43040000D03*
X10075000Y45020000D03*
X12365000Y45020000D03*
X14655000Y45020000D03*
X16945000Y45020000D03*
X19235000Y45020000D03*
X11220000Y47000000D03*
X13510000Y47000000D03*
X15800000Y47000000D03*
X18090000Y47000000D03*
X20380000Y47000000D03*
D17*
X27995000Y45020000D03*
X3005000Y45020000D03*
D18*
X29500000Y31250000D03*
D16*
X2000000Y13000000D03*
D15*
X16500000Y39040000D03*
X16500000Y33960000D03*
D19*
X24750000Y11500000D03*
X24750000Y5000000D03*
D20*
X29200000Y8200000D03*
D15*
X14000000Y39040000D03*
X14000000Y33960000D03*
D11*
X19500000Y16250000D03*
X19500000Y18750000D03*
D15*
X16500000Y20040000D03*
X16500000Y14960000D03*
D21*
X15595000Y24500000D03*
X16865000Y24500000D03*
X18135000Y24500000D03*
X19405000Y24500000D03*
X19405000Y29500000D03*
X18135000Y29500000D03*
X16865000Y29500000D03*
X15595000Y29500000D03*
D15*
X11500000Y14960000D03*
X11500000Y20040000D03*
D22*
X10270000Y6270000D03*
X7730000Y6270000D03*
X12260000Y6270000D03*
X5740000Y6270000D03*
X12260000Y8810000D03*
X5740000Y8810000D03*
X7730000Y8810000D03*
X10270000Y8810000D03*
D23*
X2700000Y3500000D03*
X9000000Y2700000D03*
X15300000Y3500000D03*
D14*
X29000000Y34000000D03*
X2000000Y19000000D03*
D15*
X14000000Y20040000D03*
X14000000Y14960000D03*
D16*
X29000000Y40000000D03*
D24*
X27000000Y24270000D03*
D15*
X27000000Y21730000D03*
D25*
X5000000Y24000000D03*
D26*
X5000000Y28000000D03*
D18*
X22000000Y35980000D03*
D27*
X22000000Y38520000D03*
D28*
X16500000Y36000000D03*
X1000000Y23000000D03*
X1000000Y8500000D03*
X24000000Y28000000D03*
X12500000Y1000000D03*
X30000000Y22500000D03*
X6500000Y44000000D03*
X30000000Y11500000D03*
X24000000Y33500000D03*
X1000000Y28000000D03*
X30000000Y42250000D03*
X30000000Y25000000D03*
X24000000Y31000000D03*
X25000000Y48500000D03*
X19000000Y36000000D03*
X14250000Y23250000D03*
X15750000Y22000000D03*
X27000000Y29500000D03*
X1000000Y6000000D03*
X24000000Y44000000D03*
X5500000Y48500000D03*
X18250000Y26400000D03*
X24000000Y25500000D03*
X11500000Y36000000D03*
X30000000Y48500000D03*
X1000000Y48500000D03*
X19500000Y26400000D03*
X14250000Y22000000D03*
X1000000Y1000000D03*
X1000000Y11000000D03*
X16900000Y26400000D03*
X24000000Y40500000D03*
X5500000Y1000000D03*
X1000000Y25500000D03*
X1000000Y30500000D03*
X1000000Y42250000D03*
X30000000Y20000000D03*
X30000000Y5000000D03*
X16865006Y22800000D03*
X14000000Y36000000D03*
X14623120Y27430696D03*
X18100000Y22000000D03*
X16864979Y31900000D03*
X14700000Y48600000D03*
D29*
X9210000Y14960000D02*
X3892000Y9642000D01*
X3892000Y8044533D02*
X5666533Y6270000D01*
D30*
X24750000Y11863410D02*
X22613410Y14000000D01*
X21000000Y18750000D02*
X22500000Y18750000D01*
X14000000Y20040000D02*
X16500000Y20040000D01*
D31*
X19405000Y21695000D02*
X17750000Y20040000D01*
D30*
X11500000Y16037630D02*
X14212370Y18750000D01*
X16250000Y18750000D02*
X19500000Y18750000D01*
D31*
X19405000Y24500000D02*
X19405000Y25257000D01*
D30*
X27000000Y21730000D02*
X25480000Y21730000D01*
X22483999Y16500000D02*
X22483999Y14000000D01*
D29*
X5666533Y6270000D02*
X5740000Y6270000D01*
X11500000Y14960000D02*
X9210000Y14960000D01*
X14000000Y19750000D02*
X14000000Y20040000D01*
D30*
X25480000Y21730000D02*
X21250000Y21730000D01*
X22483999Y17870589D02*
X22483999Y17266001D01*
X24750000Y11500000D02*
X24750000Y11863410D01*
D31*
X19405000Y23575000D02*
X19405000Y22575000D01*
D30*
X25480000Y21730000D02*
X24000000Y20250000D01*
D31*
X19405000Y24500000D02*
X19405000Y22250000D01*
D30*
X11500000Y16250000D02*
X11500000Y14960000D01*
X27000000Y21730000D02*
X26343410Y21730000D01*
X18210000Y20040000D02*
X19500000Y18750000D01*
X23200000Y11500000D02*
X24750000Y11500000D01*
D31*
X19405000Y24500000D02*
X19405000Y23575000D01*
D30*
X26343410Y21730000D02*
X22483999Y17870589D01*
D29*
X3892000Y9642000D02*
X3892000Y8044533D01*
D30*
X22483999Y17266001D02*
X21000000Y18750000D01*
X17750000Y20040000D02*
X18210000Y20040000D01*
X19500000Y18750000D02*
X21000000Y18750000D01*
D31*
X19405000Y22250000D02*
X19405000Y18845000D01*
X19405000Y22575000D02*
X20250000Y21730000D01*
D29*
X9210000Y14960000D02*
X14000000Y19750000D01*
D30*
X24000000Y20250000D02*
X22500000Y18750000D01*
X23790000Y20040000D02*
X24000000Y20250000D01*
X21250000Y21730000D02*
X20250000Y21730000D01*
X14000000Y20040000D02*
X14000000Y18750000D01*
X22483999Y14000000D02*
X22483999Y12216001D01*
X22483999Y16500000D02*
X22483999Y17266001D01*
X14212370Y18750000D02*
X16250000Y18750000D01*
X16500000Y20040000D02*
X17750000Y20040000D01*
X16500000Y20040000D02*
X23790000Y20040000D01*
D31*
X19405000Y22250000D02*
X19405000Y21695000D01*
D30*
X22500000Y18750000D02*
X22483999Y18733999D01*
X22483999Y18733999D02*
X22483999Y16500000D01*
X22483999Y12216001D02*
X23200000Y11500000D01*
X11500000Y14960000D02*
X11500000Y16037630D01*
D31*
X19405000Y18845000D02*
X19500000Y18750000D01*
D30*
X14000000Y18750000D02*
X11500000Y16250000D01*
X14000000Y18750000D02*
X16250000Y18750000D01*
D31*
X19405000Y23575000D02*
X21250000Y21730000D01*
D30*
X12260000Y6270000D02*
X15000000Y6270000D01*
X12250000Y2700000D02*
X9000000Y2700000D01*
X24750000Y5000000D02*
X19500000Y5000000D01*
X14500000Y2700000D02*
X12250000Y2700000D01*
X18070000Y6270000D02*
X18150000Y6350000D01*
X5500000Y2700000D02*
X9000000Y2700000D01*
D32*
X30000000Y1000000D02*
X30000000Y3400000D01*
D30*
X19950000Y8200000D02*
X19500000Y7750000D01*
D32*
X30000000Y48500000D02*
X30000000Y42250000D01*
X16865000Y26365000D02*
X16900000Y26400000D01*
D29*
X19235000Y45020000D02*
X20380000Y43875000D01*
D32*
X24700000Y1000000D02*
X30000000Y1000000D01*
X24700000Y1000000D02*
X24750000Y1050000D01*
D30*
X15300000Y5970000D02*
X15000000Y6270000D01*
X19500000Y16250000D02*
X19500000Y10500000D01*
D32*
X30000000Y5000000D02*
X30000000Y11500000D01*
D30*
X29200000Y5700000D02*
X28500000Y5000000D01*
D32*
X16065008Y22000000D02*
X16865006Y22799998D01*
X14250000Y22000000D02*
X14250000Y23250000D01*
X1000000Y1000000D02*
X24700000Y1000000D01*
D30*
X18150000Y6350000D02*
X19500000Y7700000D01*
D32*
X30000000Y3500000D02*
X28500000Y5000000D01*
D30*
X19500000Y5000000D02*
X16800000Y5000000D01*
D32*
X15500000Y22000000D02*
X15750000Y22000000D01*
X16900000Y26400000D02*
X17500000Y26400000D01*
D29*
X27000000Y32040000D02*
X27790000Y31250000D01*
D32*
X15000000Y22500000D02*
X15043000Y22457000D01*
D30*
X16800000Y5000000D02*
X18150000Y6350000D01*
D29*
X26250000Y31250000D02*
X26230000Y31270000D01*
D30*
X15300000Y3500000D02*
X14500000Y2700000D01*
X16800000Y5000000D02*
X15300000Y3500000D01*
X19500000Y7750000D02*
X19500000Y5000000D01*
D29*
X20380000Y43875000D02*
X20380000Y43040000D01*
D32*
X16522008Y22457000D02*
X16865006Y22799998D01*
D30*
X24750000Y5000000D02*
X24750000Y7950000D01*
X2700000Y3500000D02*
X3500000Y2700000D01*
X24750000Y7950000D02*
X24500000Y8200000D01*
D32*
X24750000Y1050000D02*
X24750000Y5000000D01*
X1000000Y48500000D02*
X5500000Y48500000D01*
D30*
X21800000Y8200000D02*
X19500000Y10500000D01*
X15300000Y3500000D02*
X15300000Y5970000D01*
D32*
X1000000Y6000000D02*
X1000000Y1000000D01*
D30*
X24500000Y8200000D02*
X22500000Y8200000D01*
D31*
X16865006Y22934994D02*
X16865006Y22799998D01*
D30*
X12260000Y2710000D02*
X12250000Y2700000D01*
D32*
X16865000Y23115000D02*
X15750000Y22000000D01*
D30*
X3500000Y2700000D02*
X5500000Y2700000D01*
X12260000Y6270000D02*
X12260000Y2710000D01*
D32*
X21360000Y26400000D02*
X26230000Y31270000D01*
X16865000Y24500000D02*
X16865000Y25765000D01*
D30*
X29200000Y8200000D02*
X29200000Y5700000D01*
D32*
X16865000Y24500000D02*
X16865000Y23115000D01*
X12500000Y2450000D02*
X12250000Y2700000D01*
X12500000Y1000000D02*
X12500000Y2450000D01*
D30*
X22500000Y8200000D02*
X21800000Y8200000D01*
D32*
X14250000Y23250000D02*
X15000000Y22500000D01*
X14250000Y22000000D02*
X16065008Y22000000D01*
X15043000Y22457000D02*
X16522008Y22457000D01*
X1000000Y48500000D02*
X1000000Y42250000D01*
D30*
X22500000Y8200000D02*
X19950000Y8200000D01*
X19500000Y7700000D02*
X19500000Y7750000D01*
D29*
X26230000Y31270000D02*
X27000000Y32040000D01*
D30*
X28500000Y5000000D02*
X24750000Y5000000D01*
D32*
X16865000Y24500000D02*
X16865000Y22800004D01*
X30000000Y3400000D02*
X30000000Y3500000D01*
X25000000Y48500000D02*
X30000000Y48500000D01*
X16865000Y24500000D02*
X16865000Y26365000D01*
X15000000Y22500000D02*
X15500000Y22000000D01*
X16865000Y25765000D02*
X17500000Y26400000D01*
X5500000Y1000000D02*
X5500000Y2700000D01*
D30*
X29200000Y8200000D02*
X24500000Y8200000D01*
D29*
X14655000Y45020000D02*
X10075000Y45020000D01*
D32*
X17500000Y26400000D02*
X21360000Y26400000D01*
D30*
X19500000Y10500000D02*
X19500000Y7750000D01*
D32*
X30000000Y3400000D02*
X30000000Y5000000D01*
D29*
X27790000Y31250000D02*
X26250000Y31250000D01*
D32*
X1000000Y6000000D02*
X1000000Y11000000D01*
X16865000Y22800004D02*
X16865006Y22799998D01*
D30*
X15000000Y6270000D02*
X18070000Y6270000D01*
D29*
X27790000Y31250000D02*
X29500000Y31250000D01*
D33*
X11500000Y20040000D02*
X11500000Y22189998D01*
D30*
X9689998Y24000000D02*
X11500000Y22189998D01*
X5000000Y24000000D02*
X9689998Y24000000D01*
D32*
X8200000Y27500000D02*
X7700000Y28000000D01*
X11500000Y27500000D02*
X10700000Y27500000D01*
X4500000Y30500000D02*
X4500000Y29500000D01*
X12107000Y28107000D02*
X11500000Y27500000D01*
X5300000Y31300000D02*
X4500000Y30500000D01*
X12107000Y28900000D02*
X12107000Y28107000D01*
X10707000Y27500000D02*
X12107000Y28900000D01*
X7100000Y31300000D02*
X5300000Y31300000D01*
D30*
X5000000Y30250000D02*
X5000000Y28000000D01*
D32*
X12107000Y30917000D02*
X12107000Y28900000D01*
X10700000Y27500000D02*
X10707000Y27500000D01*
D30*
X5060000Y30310000D02*
X5000000Y30250000D01*
X11500000Y30310000D02*
X5060000Y30310000D01*
D32*
X10360000Y31300000D02*
X6050000Y31300000D01*
D30*
X9190000Y28000000D02*
X10845000Y29655000D01*
X11500000Y29810000D02*
X11345000Y29655000D01*
X5000000Y28000000D02*
X7700000Y28000000D01*
X11345000Y29655000D02*
X5595000Y29655000D01*
X7700000Y28000000D02*
X9190000Y28000000D01*
D32*
X6050000Y31300000D02*
X5000000Y30250000D01*
X10700000Y27500000D02*
X8200000Y27500000D01*
D30*
X5595000Y29655000D02*
X5000000Y30250000D01*
X10845000Y29655000D02*
X11500000Y30310000D01*
D32*
X11724000Y31300000D02*
X12107000Y30917000D01*
X9200000Y31300000D02*
X11724000Y31300000D01*
X11500000Y30310000D02*
X12107000Y30917000D01*
D31*
X15595000Y29500000D02*
X15595000Y28255000D01*
X14500000Y31440920D02*
X14500000Y27553816D01*
X14792424Y27600000D02*
X14623120Y27430696D01*
X14500000Y31000000D02*
X15595000Y31000000D01*
X14623120Y27723130D02*
X14623120Y27430696D01*
X20700000Y28200000D02*
X20100000Y27600000D01*
X14899995Y28000005D02*
X14623120Y27723130D01*
X15595000Y28255000D02*
X16250000Y27600000D01*
X16250000Y27600000D02*
X14792424Y27600000D01*
X15313160Y31640920D02*
X15595000Y31359080D01*
X14899995Y31440925D02*
X14899995Y28000005D01*
X14700000Y31640920D02*
X14500000Y31440920D01*
X15595000Y31359080D02*
X15595000Y29500000D01*
X20100000Y27600000D02*
X16250000Y27600000D01*
X15595000Y29500000D02*
X15595000Y30400000D01*
X15595000Y28695010D02*
X14899995Y28000005D01*
X22000000Y33250000D02*
X20700000Y31950000D01*
X15595000Y29500000D02*
X15595000Y28695010D01*
X14700000Y31640920D02*
X15313160Y31640920D01*
X20700000Y31950000D02*
X20700000Y28200000D01*
X14700000Y31640920D02*
X14899995Y31440925D01*
X14500000Y27553816D02*
X14623120Y27430696D01*
X22000000Y35980000D02*
X22000000Y33250000D01*
X18135000Y24500000D02*
X18135000Y25257000D01*
X18135000Y24500000D02*
X18135000Y22035000D01*
X18135000Y22035000D02*
X18100000Y22000000D01*
D29*
X27000000Y26960000D02*
X27000000Y24270000D01*
D31*
X18135000Y32325000D02*
X16500000Y33960000D01*
X18135000Y32000000D02*
X18135000Y32075000D01*
X18135000Y29500000D02*
X18135000Y28616000D01*
X18135000Y32000000D02*
X18135000Y32325000D01*
D33*
X16500000Y33960000D02*
X14000000Y33960000D01*
X14000000Y33960000D02*
X11500000Y33960000D01*
D31*
X18135000Y29500000D02*
X18135000Y32000000D01*
X16865000Y29500000D02*
X16865000Y28616000D01*
X16865000Y29500000D02*
X16865000Y31899979D01*
X16865000Y31899979D02*
X16864979Y31900000D01*
X12237000Y32563000D02*
X13250000Y31550000D01*
X14700000Y48600000D02*
X10600000Y48600000D01*
X9750000Y43000000D02*
X9750000Y33450000D01*
X13250000Y31550000D02*
X13250000Y26845000D01*
X15595000Y24500000D02*
X15595000Y25905000D01*
X14600000Y26250000D02*
X13845000Y26250000D01*
X9750000Y33450000D02*
X10637000Y32563000D01*
X8500000Y46500000D02*
X8500000Y44250000D01*
X15595000Y25905000D02*
X15250000Y26250000D01*
X15250000Y26250000D02*
X14600000Y26250000D01*
X8500000Y44250000D02*
X9750000Y43000000D01*
X10637000Y32563000D02*
X12237000Y32563000D01*
X15595000Y24500000D02*
X15595000Y23600000D01*
X13250000Y26845000D02*
X13845000Y26250000D01*
X15595000Y25255000D02*
X14600000Y26250000D01*
X15595000Y24500000D02*
X15595000Y25255000D01*
X13845000Y26250000D02*
X15595000Y24500000D01*
X10600000Y48600000D02*
X8500000Y46500000D01*
X20974397Y48435000D02*
X17235000Y48435000D01*
X22000000Y47409397D02*
X20974397Y48435000D01*
X22000000Y42250000D02*
X22000000Y47409397D01*
X19578657Y32563000D02*
X20397000Y33381343D01*
X19405000Y29500000D02*
X19405000Y32405000D01*
X19405000Y29500000D02*
X19405000Y28616000D01*
X19563000Y32563000D02*
X19578657Y32563000D01*
X17235000Y48435000D02*
X15800000Y47000000D01*
X20397000Y33381343D02*
X20397000Y40647000D01*
X19405000Y32405000D02*
X19563000Y32563000D01*
X20397000Y40647000D02*
X22000000Y42250000D01*
D34*
X15800000Y43040000D02*
X15800000Y42941393D01*
%TA.AperFunction,Conductor*%
G36*
X16668256Y48394484D02*
G01*
X17194483Y47868257D01*
X17197910Y47859984D01*
X17196390Y47854217D01*
X16544197Y46702845D01*
X16537138Y46697336D01*
X16529552Y46697797D01*
X15803787Y46997438D01*
X15797448Y47003763D01*
X15797437Y47003788D01*
X15497796Y47729553D01*
X15497807Y47738508D01*
X15502842Y47744196D01*
X16654217Y48396392D01*
X16663104Y48397487D01*
X16668256Y48394484D01*
G37*
%TD.AperFunction*%
%TA.AperFunction,Conductor*%
G36*
X22008266Y35972724D02*
G01*
X22008277Y35972714D01*
X22008278Y35972713D01*
X22882688Y35097319D01*
X22886110Y35089044D01*
X22884568Y35083246D01*
X22384369Y34207895D01*
X22377289Y34202412D01*
X22374211Y34202000D01*
X21625789Y34202000D01*
X21617516Y34205427D01*
X21615631Y34207895D01*
X21115431Y35083246D01*
X21114301Y35092129D01*
X21117308Y35097316D01*
X21991724Y35972715D01*
X21999993Y35976145D01*
X22008266Y35972724D01*
G37*
%TD.AperFunction*%
%TA.AperFunction,Conductor*%
G36*
X19786015Y20327676D02*
G01*
X19788766Y20323321D01*
X20235386Y19066609D01*
X20234928Y19057666D01*
X20228852Y19051887D01*
X19504490Y18750866D01*
X19495536Y18750856D01*
X19495510Y18750866D01*
X18769817Y19052440D01*
X18763492Y19058779D01*
X18762848Y19065607D01*
X19022074Y20321768D01*
X19027103Y20329177D01*
X19033533Y20331103D01*
X19777742Y20331103D01*
X19786015Y20327676D01*
G37*
%TD.AperFunction*%
%TA.AperFunction,Conductor*%
G36*
X15275396Y28349859D02*
G01*
X15278823Y28341586D01*
X15278655Y28339613D01*
X15124781Y27440404D01*
X15120008Y27432827D01*
X15113272Y27430677D01*
X14625469Y27429701D01*
X14620949Y27430600D01*
X14172655Y27617260D01*
X14166334Y27623604D01*
X14166351Y27632558D01*
X14166643Y27633203D01*
X14512305Y28339613D01*
X14515786Y28346729D01*
X14522500Y28352653D01*
X14526295Y28353286D01*
X15267123Y28353286D01*
X15275396Y28349859D01*
G37*
%TD.AperFunction*%
%TA.AperFunction,Conductor*%
G36*
X17351831Y31900027D02*
G01*
X17360097Y31896584D01*
X17363507Y31888304D01*
X17363425Y31886945D01*
X17247228Y30910322D01*
X17242848Y30902511D01*
X17235610Y30900004D01*
X16494390Y30900004D01*
X16486117Y30903431D01*
X16482772Y30910321D01*
X16366533Y31886944D01*
X16368958Y31895564D01*
X16376768Y31899945D01*
X16378115Y31900027D01*
X16864979Y31901000D01*
X17351831Y31900027D01*
G37*
%TD.AperFunction*%
%TA.AperFunction,Conductor*%
G36*
X14880228Y28402779D02*
G01*
X14883278Y28397452D01*
X15082499Y27631877D01*
X15081266Y27623008D01*
X15075673Y27618130D01*
X14625290Y27430600D01*
X14620770Y27429701D01*
X14134747Y27430673D01*
X14126480Y27434116D01*
X14123070Y27442322D01*
X14119050Y28394457D01*
X14122442Y28402744D01*
X14130701Y28406206D01*
X14871955Y28406206D01*
X14880228Y28402779D01*
G37*
%TD.AperFunction*%
%TA.AperFunction,Conductor*%
G36*
X12606993Y30618126D02*
G01*
X12610420Y30609853D01*
X12609810Y30606123D01*
X12243101Y29515741D01*
X12237215Y29508992D01*
X12228281Y29508381D01*
X12227521Y29508667D01*
X11507210Y29808004D01*
X11500885Y29814343D01*
X11500000Y29818808D01*
X11500000Y30599587D01*
X11503427Y30607860D01*
X11510341Y30611207D01*
X11598323Y30621475D01*
X11599679Y30621553D01*
X12598720Y30621553D01*
X12606993Y30618126D01*
G37*
%TD.AperFunction*%
%TA.AperFunction,Conductor*%
G36*
X14695564Y49096022D02*
G01*
X14699944Y49088212D01*
X14700026Y49086852D01*
X14701000Y48600000D01*
X14701000Y48599954D01*
X14700026Y48113149D01*
X14696583Y48104882D01*
X14688303Y48101472D01*
X14686943Y48101554D01*
X13710317Y48217773D01*
X13702507Y48222153D01*
X13700000Y48229391D01*
X13700000Y48970610D01*
X13703427Y48978883D01*
X13710316Y48982228D01*
X14686944Y49098447D01*
X14695564Y49096022D01*
G37*
%TD.AperFunction*%
%TA.AperFunction,Conductor*%
G36*
X18513521Y22989611D02*
G01*
X18516906Y22982324D01*
X18598929Y22012661D01*
X18596212Y22004129D01*
X18588257Y22000017D01*
X18587294Y21999975D01*
X18100023Y21999001D01*
X18099977Y21999001D01*
X17613627Y21999973D01*
X17605360Y22003416D01*
X17601950Y22011696D01*
X17602088Y22013466D01*
X17752464Y22983131D01*
X17757118Y22990781D01*
X17764026Y22993038D01*
X18505248Y22993038D01*
X18513521Y22989611D01*
G37*
%TD.AperFunction*%
%TA.AperFunction,Conductor*%
G36*
X15585576Y27977368D02*
G01*
X15589428Y27969284D01*
X15589444Y27968676D01*
X15589444Y27227517D01*
X15586017Y27219244D01*
X15581339Y27216383D01*
X14824715Y26972068D01*
X14815789Y26972787D01*
X14810319Y26978705D01*
X14711355Y27216383D01*
X14623022Y27428529D01*
X14622124Y27433043D01*
X14623097Y27919615D01*
X14626540Y27927879D01*
X14634187Y27931273D01*
X15577137Y27980360D01*
X15585576Y27977368D01*
G37*
%TD.AperFunction*%
%TA.AperFunction,Conductor*%
G36*
X17203530Y34247706D02*
G01*
X17209139Y34242808D01*
X17842481Y33159572D01*
X17843699Y33150702D01*
X17840654Y33145395D01*
X17314605Y32619346D01*
X17306332Y32615919D01*
X17300428Y32617519D01*
X16217192Y33250861D01*
X16211780Y33257994D01*
X16212282Y33265423D01*
X16497437Y33956213D01*
X16503761Y33962552D01*
X17194577Y34247717D01*
X17203530Y34247706D01*
G37*
%TD.AperFunction*%
%TA.AperFunction,Conductor*%
G36*
X19184457Y17459498D02*
G01*
X19205431Y17442595D01*
X19500000Y17148026D01*
X20757751Y15890274D01*
X20793048Y16022004D01*
X20812995Y16250000D01*
X20793048Y16478003D01*
X20733813Y16699069D01*
X20733811Y16699074D01*
X20637087Y16906499D01*
X20506336Y17093231D01*
X20483648Y17160505D01*
X20500933Y17229366D01*
X20552703Y17277950D01*
X20622521Y17290833D01*
X20688220Y17263924D01*
X20698644Y17254597D01*
X21176594Y16776647D01*
X21210620Y16714335D01*
X21213499Y16687552D01*
X21213499Y12294427D01*
X21212707Y12280321D01*
X21208685Y12244625D01*
X21213214Y12177453D01*
X21213499Y12168978D01*
X21213499Y12158942D01*
X21217208Y12117720D01*
X21217429Y12114909D01*
X21224068Y12016456D01*
X21224071Y12016441D01*
X21225156Y12012134D01*
X21228464Y11992667D01*
X21228863Y11988232D01*
X21228863Y11988231D01*
X21255117Y11893101D01*
X21255837Y11890370D01*
X21279946Y11794694D01*
X21279950Y11794684D01*
X21281786Y11790641D01*
X21288517Y11772077D01*
X21289703Y11767780D01*
X21289707Y11767769D01*
X21332520Y11678868D01*
X21333718Y11676308D01*
X21374525Y11586468D01*
X21374527Y11586464D01*
X21377057Y11582813D01*
X21387002Y11565736D01*
X21388929Y11561734D01*
X21388934Y11561726D01*
X21446916Y11481921D01*
X21448553Y11479614D01*
X21504761Y11398481D01*
X21504773Y11398467D01*
X21507904Y11395336D01*
X21520740Y11380309D01*
X21523352Y11376714D01*
X21523356Y11376710D01*
X21594652Y11308544D01*
X21596673Y11306568D01*
X22246165Y10657077D01*
X22255581Y10646541D01*
X22277977Y10618457D01*
X22328676Y10574162D01*
X22334870Y10568371D01*
X22341956Y10561285D01*
X22341968Y10561274D01*
X22373757Y10534734D01*
X22375906Y10532899D01*
X22450200Y10467990D01*
X22454005Y10465717D01*
X22470130Y10454276D01*
X22473542Y10451427D01*
X22559410Y10402705D01*
X22561772Y10401330D01*
X22646523Y10350693D01*
X22650679Y10349134D01*
X22668574Y10340762D01*
X22672450Y10338563D01*
X22765645Y10305954D01*
X22768187Y10305032D01*
X22860634Y10270335D01*
X22860637Y10270335D01*
X22860638Y10270334D01*
X22864998Y10269543D01*
X22884136Y10264492D01*
X22888311Y10263031D01*
X22985746Y10247599D01*
X22988532Y10247125D01*
X23000986Y10244865D01*
X23085653Y10229500D01*
X23090098Y10229500D01*
X23109808Y10227949D01*
X23114190Y10227255D01*
X23212801Y10229469D01*
X23215628Y10229500D01*
X24718662Y10229500D01*
X24724314Y10229374D01*
X24807231Y10225649D01*
X24889500Y10236794D01*
X24895114Y10237426D01*
X24979199Y10244993D01*
X24990492Y10245500D01*
X26306337Y10245500D01*
X26306343Y10245500D01*
X26474905Y10260671D01*
X26483457Y10263031D01*
X26584792Y10290998D01*
X26692582Y10320746D01*
X26896033Y10418723D01*
X27078721Y10551453D01*
X27234772Y10714670D01*
X27359173Y10903129D01*
X27447923Y11110771D01*
X27498172Y11330924D01*
X27508303Y11556510D01*
X27477991Y11780281D01*
X27477990Y11780285D01*
X27408213Y11995038D01*
X27408212Y11995040D01*
X27408211Y11995043D01*
X27301204Y12193894D01*
X27260747Y12244625D01*
X27211549Y12306318D01*
X27184715Y12372048D01*
X27197677Y12441852D01*
X27246320Y12493566D01*
X27303354Y12510699D01*
X27311017Y12511108D01*
X27372596Y12514389D01*
X27372601Y12514390D01*
X27372609Y12514390D01*
X27740995Y12573743D01*
X28100986Y12671916D01*
X28448503Y12807798D01*
X28779607Y12979849D01*
X29090547Y13186119D01*
X29377801Y13424272D01*
X29638114Y13691609D01*
X29868535Y13985101D01*
X30066455Y14301422D01*
X30229631Y14636989D01*
X30356213Y14987999D01*
X30370100Y15044840D01*
X30405697Y15106268D01*
X30468854Y15138698D01*
X30539518Y15131836D01*
X30595254Y15087859D01*
X30618367Y15020729D01*
X30618500Y15014937D01*
X30618500Y10705169D01*
X30598498Y10637048D01*
X30544842Y10590555D01*
X30474568Y10580451D01*
X30409988Y10609945D01*
X30398188Y10621615D01*
X30248026Y10791113D01*
X30248022Y10791116D01*
X30059433Y10945094D01*
X30059434Y10945094D01*
X29848570Y11066837D01*
X29835000Y11071985D01*
X29835000Y5332155D01*
X29956450Y5389784D01*
X30156832Y5528099D01*
X30332426Y5696760D01*
X30332427Y5696761D01*
X30391770Y5775731D01*
X30448683Y5818174D01*
X30519508Y5823109D01*
X30581758Y5788970D01*
X30615669Y5726596D01*
X30618500Y5700038D01*
X30618500Y507500D01*
X30598498Y439379D01*
X30544842Y392886D01*
X30492500Y381500D01*
X9944193Y381500D01*
X9876072Y401502D01*
X9829579Y455158D01*
X9819475Y525432D01*
X9848969Y590012D01*
X9888465Y620506D01*
X10084696Y717277D01*
X10084697Y717278D01*
X9312468Y1489507D01*
X9440994Y1524977D01*
X9643715Y1622602D01*
X9825747Y1754856D01*
X9981239Y1917488D01*
X10105193Y2105270D01*
X10193625Y2312168D01*
X10210764Y2387261D01*
X10982722Y1615303D01*
X10982723Y1615304D01*
X11090592Y1834041D01*
X11090598Y1834055D01*
X11185737Y2114325D01*
X11185739Y2114335D01*
X11243484Y2404630D01*
X11243486Y2404644D01*
X11262845Y2699997D01*
X11262845Y2700004D01*
X11243486Y2995357D01*
X11243484Y2995371D01*
X11185739Y3285666D01*
X11185737Y3285676D01*
X11112985Y3499997D01*
X13037155Y3499997D01*
X13056513Y3204644D01*
X13056515Y3204630D01*
X13114260Y2914335D01*
X13114262Y2914325D01*
X13209401Y2634055D01*
X13209407Y2634041D01*
X13317276Y2415303D01*
X14087765Y3185792D01*
X14145945Y3006733D01*
X14252567Y2808596D01*
X14392855Y2632680D01*
X14562299Y2484642D01*
X14755453Y2369237D01*
X14966110Y2290176D01*
X14984807Y2286783D01*
X14215301Y1517278D01*
X14215302Y1517277D01*
X14434040Y1409408D01*
X14434054Y1409402D01*
X14714324Y1314263D01*
X14714334Y1314261D01*
X15004629Y1256516D01*
X15004643Y1256514D01*
X15299997Y1237155D01*
X15300003Y1237155D01*
X15595356Y1256514D01*
X15595370Y1256516D01*
X15885665Y1314261D01*
X15885675Y1314263D01*
X16165945Y1409402D01*
X16165959Y1409408D01*
X16384696Y1517277D01*
X16384697Y1517278D01*
X15612468Y2289507D01*
X15740994Y2324977D01*
X15943715Y2422602D01*
X16125747Y2554856D01*
X16281239Y2717488D01*
X16405193Y2905270D01*
X16493625Y3112168D01*
X16510764Y3187261D01*
X17282722Y2415303D01*
X17282723Y2415304D01*
X17390592Y2634041D01*
X17390598Y2634055D01*
X17485737Y2914325D01*
X17485739Y2914335D01*
X17543484Y3204630D01*
X17543486Y3204644D01*
X17562845Y3499997D01*
X17562845Y3500004D01*
X17543486Y3795357D01*
X17543484Y3795371D01*
X17485739Y4085666D01*
X17485737Y4085676D01*
X17390919Y4365000D01*
X21882155Y4365000D01*
X21939783Y4243550D01*
X22078098Y4043168D01*
X22246757Y3867576D01*
X22441405Y3721306D01*
X22656995Y3608157D01*
X22887941Y3531056D01*
X22887949Y3531054D01*
X23128251Y3492002D01*
X23128266Y3492000D01*
X24115000Y3492000D01*
X24115000Y4365000D01*
X25385000Y4365000D01*
X25385000Y3492000D01*
X26310780Y3492000D01*
X26310781Y3492001D01*
X26492682Y3506686D01*
X26729090Y3564955D01*
X26953080Y3660388D01*
X27158870Y3790521D01*
X27158871Y3790522D01*
X27341106Y3951968D01*
X27341115Y3951978D01*
X27495091Y4140564D01*
X27616835Y4351428D01*
X27621983Y4365000D01*
X25385000Y4365000D01*
X24115000Y4365000D01*
X21882155Y4365000D01*
X17390919Y4365000D01*
X17390598Y4365946D01*
X17390592Y4365960D01*
X17282723Y4584698D01*
X17282722Y4584699D01*
X16512233Y3814211D01*
X16454055Y3993267D01*
X16347433Y4191404D01*
X16207145Y4367320D01*
X16037701Y4515358D01*
X15844547Y4630763D01*
X15633890Y4709824D01*
X15615191Y4713218D01*
X15830084Y4928111D01*
X22750000Y4928111D01*
X22790507Y4790156D01*
X22868239Y4669202D01*
X22976900Y4575048D01*
X23107685Y4515320D01*
X23214237Y4500000D01*
X26285763Y4500000D01*
X26392315Y4515320D01*
X26523100Y4575048D01*
X26631761Y4669202D01*
X26709493Y4790156D01*
X26750000Y4928111D01*
X26750000Y5071889D01*
X26709493Y5209844D01*
X26631761Y5330798D01*
X26523100Y5424952D01*
X26392315Y5484680D01*
X26285763Y5500000D01*
X23214237Y5500000D01*
X23107685Y5484680D01*
X22976900Y5424952D01*
X22868239Y5330798D01*
X22790507Y5209844D01*
X22750000Y5071889D01*
X22750000Y4928111D01*
X15830084Y4928111D01*
X16384697Y5482724D01*
X16165959Y5590593D01*
X16165945Y5590599D01*
X16035144Y5635000D01*
X21878017Y5635000D01*
X24115000Y5635000D01*
X24115000Y6508000D01*
X25385000Y6508000D01*
X25385000Y5635000D01*
X27617845Y5635000D01*
X27560216Y5756451D01*
X27421901Y5956833D01*
X27253242Y6132425D01*
X27058594Y6278695D01*
X26843004Y6391844D01*
X26612058Y6468945D01*
X26612050Y6468947D01*
X26371748Y6507999D01*
X26371734Y6508000D01*
X25385000Y6508000D01*
X24115000Y6508000D01*
X23189218Y6508000D01*
X23007317Y6493315D01*
X22770909Y6435046D01*
X22546919Y6339613D01*
X22341129Y6209480D01*
X22341128Y6209479D01*
X22158893Y6048033D01*
X22158884Y6048023D01*
X22004908Y5859437D01*
X21883164Y5648573D01*
X21878017Y5635000D01*
X16035144Y5635000D01*
X15885675Y5685738D01*
X15885665Y5685740D01*
X15595370Y5743485D01*
X15595356Y5743487D01*
X15300003Y5762845D01*
X15299997Y5762845D01*
X15004643Y5743487D01*
X15004629Y5743485D01*
X14714334Y5685740D01*
X14714324Y5685738D01*
X14434054Y5590599D01*
X14434040Y5590593D01*
X14215301Y5482724D01*
X14987531Y4710494D01*
X14859006Y4675023D01*
X14656285Y4577398D01*
X14474253Y4445144D01*
X14318761Y4282512D01*
X14194807Y4094730D01*
X14106375Y3887832D01*
X14089235Y3812740D01*
X13317276Y4584699D01*
X13209407Y4365960D01*
X13209401Y4365946D01*
X13114262Y4085676D01*
X13114260Y4085666D01*
X13056515Y3795371D01*
X13056513Y3795357D01*
X13037155Y3500004D01*
X13037155Y3499997D01*
X11112985Y3499997D01*
X11090598Y3565946D01*
X11090592Y3565960D01*
X10982723Y3784698D01*
X10982722Y3784699D01*
X10212233Y3014211D01*
X10154055Y3193267D01*
X10047433Y3391404D01*
X9907145Y3567320D01*
X9737701Y3715358D01*
X9544547Y3830763D01*
X9333890Y3909824D01*
X9315191Y3913218D01*
X10084697Y4682724D01*
X9865959Y4790593D01*
X9865945Y4790599D01*
X9585675Y4885738D01*
X9585665Y4885740D01*
X9295370Y4943485D01*
X9295356Y4943487D01*
X9000003Y4962845D01*
X8999997Y4962845D01*
X8704643Y4943487D01*
X8704629Y4943485D01*
X8414334Y4885740D01*
X8414324Y4885738D01*
X8134054Y4790599D01*
X8134040Y4790593D01*
X7915301Y4682724D01*
X8687531Y3910494D01*
X8559006Y3875023D01*
X8356285Y3777398D01*
X8174253Y3645144D01*
X8018761Y3482512D01*
X7894807Y3294730D01*
X7806375Y3087832D01*
X7789235Y3012740D01*
X7017276Y3784699D01*
X6909407Y3565960D01*
X6909401Y3565946D01*
X6814262Y3285676D01*
X6814260Y3285666D01*
X6756515Y2995371D01*
X6756513Y2995357D01*
X6737155Y2700004D01*
X6737155Y2699997D01*
X6756513Y2404644D01*
X6756515Y2404630D01*
X6814260Y2114335D01*
X6814262Y2114325D01*
X6909401Y1834055D01*
X6909407Y1834041D01*
X7017276Y1615303D01*
X7787765Y2385792D01*
X7845945Y2206733D01*
X7952567Y2008596D01*
X8092855Y1832680D01*
X8262299Y1684642D01*
X8455453Y1569237D01*
X8666110Y1490176D01*
X8684807Y1486783D01*
X7915301Y717278D01*
X8111535Y620506D01*
X8163784Y572438D01*
X8181751Y503752D01*
X8159732Y436257D01*
X8104717Y391380D01*
X8055807Y381500D01*
X507500Y381500D01*
X439379Y401502D01*
X392886Y455158D01*
X381500Y507500D01*
X381500Y2555807D01*
X401502Y2623928D01*
X455158Y2670421D01*
X525432Y2680525D01*
X590012Y2651031D01*
X620506Y2611535D01*
X717276Y2415303D01*
X1487765Y3185792D01*
X1545945Y3006733D01*
X1652567Y2808596D01*
X1792855Y2632680D01*
X1962299Y2484642D01*
X2155453Y2369237D01*
X2366110Y2290176D01*
X2384807Y2286783D01*
X1615301Y1517278D01*
X1615302Y1517277D01*
X1834040Y1409408D01*
X1834054Y1409402D01*
X2114324Y1314263D01*
X2114334Y1314261D01*
X2404629Y1256516D01*
X2404643Y1256514D01*
X2699997Y1237155D01*
X2700003Y1237155D01*
X2995356Y1256514D01*
X2995370Y1256516D01*
X3285665Y1314261D01*
X3285675Y1314263D01*
X3565945Y1409402D01*
X3565959Y1409408D01*
X3784696Y1517277D01*
X3784697Y1517278D01*
X3012468Y2289507D01*
X3140994Y2324977D01*
X3343715Y2422602D01*
X3525747Y2554856D01*
X3681239Y2717488D01*
X3805193Y2905270D01*
X3893625Y3112168D01*
X3910764Y3187261D01*
X4682722Y2415303D01*
X4682723Y2415304D01*
X4790592Y2634041D01*
X4790598Y2634055D01*
X4885737Y2914325D01*
X4885739Y2914335D01*
X4943484Y3204630D01*
X4943486Y3204644D01*
X4962845Y3499997D01*
X4962845Y3500004D01*
X4943486Y3795357D01*
X4943484Y3795371D01*
X4885739Y4085666D01*
X4885737Y4085676D01*
X4790598Y4365946D01*
X4790592Y4365960D01*
X4682723Y4584698D01*
X4682722Y4584699D01*
X3912233Y3814211D01*
X3854055Y3993267D01*
X3747433Y4191404D01*
X3607145Y4367320D01*
X3437701Y4515358D01*
X3244547Y4630763D01*
X3033890Y4709824D01*
X3015191Y4713218D01*
X3391789Y5089816D01*
X11977840Y5089816D01*
X12048556Y5070867D01*
X12260000Y5052368D01*
X12471439Y5070867D01*
X12542159Y5089816D01*
X12260001Y5371974D01*
X12260000Y5371974D01*
X11977840Y5089816D01*
X3391789Y5089816D01*
X3784697Y5482724D01*
X3565959Y5590593D01*
X3565945Y5590599D01*
X3285675Y5685738D01*
X3285665Y5685740D01*
X2995370Y5743485D01*
X2995356Y5743487D01*
X2700003Y5762845D01*
X2699997Y5762845D01*
X2404643Y5743487D01*
X2404629Y5743485D01*
X2114334Y5685740D01*
X2114324Y5685738D01*
X1834054Y5590599D01*
X1834040Y5590593D01*
X1615301Y5482724D01*
X2387531Y4710494D01*
X2259006Y4675023D01*
X2056285Y4577398D01*
X1874253Y4445144D01*
X1718761Y4282512D01*
X1594807Y4094730D01*
X1506375Y3887832D01*
X1489235Y3812740D01*
X717276Y4584699D01*
X620506Y4388466D01*
X572438Y4336217D01*
X503752Y4318250D01*
X436257Y4340269D01*
X391380Y4395284D01*
X381500Y4444194D01*
X381500Y12311157D01*
X401502Y12379278D01*
X455158Y12425771D01*
X525432Y12435875D01*
X590012Y12406381D01*
X623907Y12359377D01*
X644611Y12309395D01*
X736808Y12158942D01*
X769333Y12105867D01*
X769334Y12105865D01*
X924356Y11924357D01*
X1093048Y11780281D01*
X1105868Y11769332D01*
X1309395Y11644611D01*
X1529927Y11553263D01*
X1762034Y11497539D01*
X2000000Y11478811D01*
X2237966Y11497539D01*
X2470073Y11553263D01*
X2690605Y11644611D01*
X2894132Y11769332D01*
X3075643Y11924357D01*
X3230668Y12105868D01*
X3355389Y12309395D01*
X3414144Y12451242D01*
X3458690Y12506520D01*
X3526054Y12528941D01*
X3543944Y12528307D01*
X3813418Y12499500D01*
X3813425Y12499500D01*
X3813431Y12499499D01*
X3813436Y12499499D01*
X4093206Y12499499D01*
X4093213Y12499499D01*
X4216123Y12506050D01*
X4372596Y12514389D01*
X4372601Y12514390D01*
X4372609Y12514390D01*
X4740995Y12573743D01*
X4923445Y12623499D01*
X4994425Y12622124D01*
X5053397Y12582592D01*
X5081634Y12517452D01*
X5070172Y12447387D01*
X5045688Y12412843D01*
X3104172Y10471327D01*
X3099965Y10467309D01*
X3043325Y10415674D01*
X3043317Y10415665D01*
X2997145Y10354525D01*
X2993536Y10349967D01*
X2944570Y10290998D01*
X2935889Y10275412D01*
X2926371Y10260804D01*
X2915611Y10246555D01*
X2915610Y10246553D01*
X2881453Y10177956D01*
X2878745Y10172819D01*
X2841451Y10105862D01*
X2835777Y10088935D01*
X2829103Y10072825D01*
X2821153Y10056859D01*
X2821151Y10056853D01*
X2800180Y9983150D01*
X2798463Y9977608D01*
X2785096Y9937724D01*
X2774103Y9904925D01*
X2771637Y9887245D01*
X2768037Y9870179D01*
X2763154Y9853018D01*
X2756084Y9776722D01*
X2755414Y9770943D01*
X2744827Y9695041D01*
X2744826Y9695037D01*
X2748366Y9618489D01*
X2748500Y9612670D01*
X2748500Y8073865D01*
X2748366Y8068046D01*
X2744827Y7991497D01*
X2744827Y7991496D01*
X2755414Y7915589D01*
X2756084Y7909810D01*
X2763154Y7833515D01*
X2763155Y7833512D01*
X2768037Y7816351D01*
X2771637Y7799288D01*
X2774104Y7781606D01*
X2774105Y7781601D01*
X2774106Y7781600D01*
X2798460Y7708938D01*
X2800182Y7703378D01*
X2821148Y7629689D01*
X2821154Y7629673D01*
X2829103Y7613709D01*
X2835779Y7597593D01*
X2841451Y7580670D01*
X2878734Y7513735D01*
X2881448Y7508586D01*
X2891882Y7487633D01*
X2915611Y7439979D01*
X2915612Y7439978D01*
X2926367Y7425735D01*
X2935888Y7411123D01*
X2944567Y7395543D01*
X2944574Y7395531D01*
X2993537Y7336567D01*
X2997126Y7332035D01*
X3043321Y7270864D01*
X3099965Y7219226D01*
X3104174Y7215206D01*
X4837204Y5482176D01*
X4841224Y5477966D01*
X4892855Y5421329D01*
X4892859Y5421326D01*
X4892862Y5421323D01*
X4928977Y5394050D01*
X4954026Y5375133D01*
X4958585Y5371522D01*
X5017532Y5322574D01*
X5033116Y5313894D01*
X5047730Y5304371D01*
X5061979Y5293611D01*
X5116334Y5266546D01*
X5130586Y5259449D01*
X5135736Y5256734D01*
X5202671Y5219451D01*
X5218004Y5214312D01*
X5219583Y5213783D01*
X5235713Y5207102D01*
X5251678Y5199152D01*
X5251680Y5199152D01*
X5251683Y5199150D01*
X5325399Y5178177D01*
X5330904Y5176472D01*
X5403606Y5152104D01*
X5421281Y5149639D01*
X5438356Y5146037D01*
X5455511Y5141156D01*
X5455515Y5141155D01*
X5531810Y5134086D01*
X5537581Y5133417D01*
X5613496Y5122826D01*
X5685505Y5126156D01*
X5690061Y5126366D01*
X5695880Y5126500D01*
X5792872Y5126500D01*
X5898301Y5136270D01*
X5951018Y5141155D01*
X6154850Y5199150D01*
X6344554Y5293611D01*
X6513671Y5421323D01*
X6513677Y5421329D01*
X6656440Y5577933D01*
X6656439Y5577933D01*
X6656442Y5577935D01*
X6735817Y5706130D01*
X6788682Y5753516D01*
X6858777Y5764799D01*
X6923844Y5736395D01*
X6940339Y5719735D01*
X7048248Y5588248D01*
X7194351Y5468344D01*
X7361038Y5379248D01*
X7541905Y5324383D01*
X7541909Y5324383D01*
X7541911Y5324382D01*
X7729997Y5305857D01*
X7730000Y5305857D01*
X7730003Y5305857D01*
X7918088Y5324382D01*
X7918089Y5324383D01*
X7918095Y5324383D01*
X8098962Y5379248D01*
X8265649Y5468344D01*
X8411752Y5588248D01*
X8531656Y5734351D01*
X8620752Y5901038D01*
X8675617Y6081905D01*
X8688183Y6209480D01*
X8694143Y6269997D01*
X9305857Y6269997D01*
X9324381Y6081912D01*
X9324382Y6081906D01*
X9324383Y6081905D01*
X9379248Y5901038D01*
X9468344Y5734351D01*
X9588248Y5588248D01*
X9734351Y5468344D01*
X9901038Y5379248D01*
X10081905Y5324383D01*
X10081909Y5324383D01*
X10081911Y5324382D01*
X10269997Y5305857D01*
X10270000Y5305857D01*
X10270003Y5305857D01*
X10458088Y5324382D01*
X10458089Y5324383D01*
X10458095Y5324383D01*
X10638962Y5379248D01*
X10805649Y5468344D01*
X10951752Y5588248D01*
X11071656Y5734351D01*
X11160752Y5901038D01*
X11215617Y6081905D01*
X11215757Y6083327D01*
X11216039Y6084027D01*
X11216827Y6087984D01*
X11217576Y6087835D01*
X11242332Y6149159D01*
X11252056Y6160084D01*
X11361973Y6270001D01*
X11327966Y6304008D01*
X11806190Y6304008D01*
X11816327Y6168735D01*
X11865887Y6042459D01*
X11950465Y5936401D01*
X12062547Y5859984D01*
X12192173Y5820000D01*
X12293724Y5820000D01*
X12394138Y5835135D01*
X12516357Y5893993D01*
X12615798Y5986260D01*
X12683625Y6103740D01*
X12713810Y6235992D01*
X12711262Y6269999D01*
X13158026Y6269999D01*
X13440184Y5987841D01*
X13459133Y6058561D01*
X13477632Y6270000D01*
X13459133Y6481444D01*
X13440184Y6552160D01*
X13158026Y6270001D01*
X13158026Y6269999D01*
X12711262Y6269999D01*
X12703673Y6371265D01*
X12654113Y6497541D01*
X12569535Y6603599D01*
X12457453Y6680016D01*
X12327827Y6720000D01*
X12226276Y6720000D01*
X12125862Y6704865D01*
X12003643Y6646007D01*
X11904202Y6553740D01*
X11836375Y6436260D01*
X11806190Y6304008D01*
X11327966Y6304008D01*
X11252056Y6379917D01*
X11218031Y6442229D01*
X11215757Y6456675D01*
X11215720Y6457047D01*
X11215617Y6458095D01*
X11160752Y6638962D01*
X11071656Y6805649D01*
X10951752Y6951752D01*
X10805649Y7071656D01*
X10638962Y7160752D01*
X10458095Y7215617D01*
X10458094Y7215618D01*
X10458088Y7215619D01*
X10270003Y7234143D01*
X10269997Y7234143D01*
X10081911Y7215619D01*
X9901037Y7160752D01*
X9734350Y7071656D01*
X9588248Y6951752D01*
X9468344Y6805650D01*
X9379248Y6638963D01*
X9324381Y6458089D01*
X9305857Y6270004D01*
X9305857Y6269997D01*
X8694143Y6269997D01*
X8694143Y6270004D01*
X8675618Y6458089D01*
X8675617Y6458091D01*
X8675617Y6458095D01*
X8620752Y6638962D01*
X8531656Y6805649D01*
X8411752Y6951752D01*
X8265649Y7071656D01*
X8098962Y7160752D01*
X7918095Y7215617D01*
X7918094Y7215618D01*
X7918088Y7215619D01*
X7730003Y7234143D01*
X7729997Y7234143D01*
X7541911Y7215619D01*
X7361037Y7160752D01*
X7194350Y7071656D01*
X7048247Y6951752D01*
X6940342Y6820269D01*
X6881665Y6780300D01*
X6810694Y6778400D01*
X6749961Y6815171D01*
X6735816Y6833872D01*
X6656441Y6962067D01*
X6513675Y7118673D01*
X6513673Y7118674D01*
X6513671Y7118677D01*
X6344554Y7246389D01*
X6288739Y7274182D01*
X6255811Y7297875D01*
X6103500Y7450186D01*
X11977839Y7450186D01*
X12259999Y7168026D01*
X12260000Y7168026D01*
X12542158Y7450186D01*
X12542158Y7450187D01*
X12471445Y7469133D01*
X12260000Y7487633D01*
X12048554Y7469133D01*
X11977840Y7450187D01*
X11977839Y7450186D01*
X6103500Y7450186D01*
X5988686Y7565000D01*
X27692000Y7565000D01*
X27692000Y6639219D01*
X27706685Y6457318D01*
X27764954Y6220910D01*
X27860387Y5996920D01*
X27990520Y5791130D01*
X27990521Y5791129D01*
X28151967Y5608894D01*
X28151977Y5608885D01*
X28340563Y5454909D01*
X28551427Y5333165D01*
X28565000Y5328018D01*
X28565000Y6664237D01*
X28700000Y6664237D01*
X28715320Y6557685D01*
X28775048Y6426900D01*
X28869202Y6318239D01*
X28990156Y6240507D01*
X29128111Y6200000D01*
X29271889Y6200000D01*
X29409844Y6240507D01*
X29530798Y6318239D01*
X29624952Y6426900D01*
X29684680Y6557685D01*
X29700000Y6664237D01*
X29700000Y9735763D01*
X29684680Y9842315D01*
X29624952Y9973100D01*
X29530798Y10081761D01*
X29409844Y10159493D01*
X29271889Y10200000D01*
X29128111Y10200000D01*
X28990156Y10159493D01*
X28869202Y10081761D01*
X28775048Y9973100D01*
X28715320Y9842315D01*
X28700000Y9735763D01*
X28700000Y6664237D01*
X28565000Y6664237D01*
X28565000Y7565000D01*
X27692000Y7565000D01*
X5988686Y7565000D01*
X5893526Y7660160D01*
X5859500Y7722472D01*
X5864565Y7793287D01*
X5907112Y7850123D01*
X5946037Y7869826D01*
X6108962Y7919248D01*
X6275649Y8008344D01*
X6421752Y8128248D01*
X6541656Y8274351D01*
X6623878Y8428179D01*
X6673630Y8478826D01*
X6742867Y8494536D01*
X6809606Y8470320D01*
X6846121Y8428179D01*
X6928344Y8274351D01*
X7048248Y8128248D01*
X7194351Y8008344D01*
X7361038Y7919248D01*
X7541905Y7864383D01*
X7541909Y7864383D01*
X7541911Y7864382D01*
X7729997Y7845857D01*
X7730000Y7845857D01*
X7730003Y7845857D01*
X7918088Y7864382D01*
X7918089Y7864383D01*
X7918095Y7864383D01*
X8098962Y7919248D01*
X8265649Y8008344D01*
X8411752Y8128248D01*
X8531656Y8274351D01*
X8620752Y8441038D01*
X8675617Y8621905D01*
X8694143Y8809997D01*
X9305857Y8809997D01*
X9324381Y8621912D01*
X9324382Y8621906D01*
X9324383Y8621905D01*
X9379248Y8441038D01*
X9468344Y8274351D01*
X9588248Y8128248D01*
X9734351Y8008344D01*
X9901038Y7919248D01*
X10081905Y7864383D01*
X10081909Y7864383D01*
X10081911Y7864382D01*
X10269997Y7845857D01*
X10270000Y7845857D01*
X10270003Y7845857D01*
X10458088Y7864382D01*
X10458089Y7864383D01*
X10458095Y7864383D01*
X10638962Y7919248D01*
X10805649Y8008344D01*
X10951752Y8128248D01*
X11071656Y8274351D01*
X11153878Y8428179D01*
X11203630Y8478826D01*
X11272867Y8494536D01*
X11339606Y8470320D01*
X11376121Y8428179D01*
X11458344Y8274351D01*
X11578248Y8128248D01*
X11724351Y8008344D01*
X11891038Y7919248D01*
X12071905Y7864383D01*
X12071909Y7864383D01*
X12071911Y7864382D01*
X12259997Y7845857D01*
X12260000Y7845857D01*
X12260003Y7845857D01*
X12448088Y7864382D01*
X12448089Y7864383D01*
X12448095Y7864383D01*
X12628962Y7919248D01*
X12795649Y8008344D01*
X12941752Y8128248D01*
X13061656Y8274351D01*
X13150752Y8441038D01*
X13205617Y8621905D01*
X13224143Y8810000D01*
X13221681Y8835000D01*
X27692000Y8835000D01*
X28565000Y8835000D01*
X28565000Y11067847D01*
X28443552Y11010219D01*
X28243167Y10871902D01*
X28067575Y10703243D01*
X27921305Y10508595D01*
X27808156Y10293005D01*
X27731055Y10062059D01*
X27731053Y10062051D01*
X27692001Y9821749D01*
X27692000Y9821734D01*
X27692000Y8835000D01*
X13221681Y8835000D01*
X13205617Y8998095D01*
X13150752Y9178962D01*
X13061656Y9345649D01*
X12941752Y9491752D01*
X12795649Y9611656D01*
X12628962Y9700752D01*
X12448095Y9755617D01*
X12448094Y9755618D01*
X12448088Y9755619D01*
X12260003Y9774143D01*
X12259997Y9774143D01*
X12071911Y9755619D01*
X11891037Y9700752D01*
X11724350Y9611656D01*
X11578248Y9491752D01*
X11458344Y9345650D01*
X11376122Y9191823D01*
X11326370Y9141175D01*
X11257133Y9125465D01*
X11190394Y9149681D01*
X11153878Y9191823D01*
X11071655Y9345650D01*
X10951752Y9491752D01*
X10805649Y9611656D01*
X10638962Y9700752D01*
X10458095Y9755617D01*
X10458094Y9755618D01*
X10458088Y9755619D01*
X10270003Y9774143D01*
X10269997Y9774143D01*
X10081911Y9755619D01*
X9901037Y9700752D01*
X9734350Y9611656D01*
X9588248Y9491752D01*
X9468344Y9345650D01*
X9379248Y9178963D01*
X9324381Y8998089D01*
X9305857Y8810004D01*
X9305857Y8809997D01*
X8694143Y8809997D01*
X8694143Y8810000D01*
X8675617Y8998095D01*
X8620752Y9178962D01*
X8531656Y9345649D01*
X8411752Y9491752D01*
X8265649Y9611656D01*
X8098962Y9700752D01*
X7918095Y9755617D01*
X7918094Y9755618D01*
X7918088Y9755619D01*
X7730003Y9774143D01*
X7729997Y9774143D01*
X7541911Y9755619D01*
X7361037Y9700752D01*
X7194350Y9611656D01*
X7048248Y9491752D01*
X6928344Y9345650D01*
X6846122Y9191823D01*
X6796370Y9141175D01*
X6727133Y9125465D01*
X6660394Y9149681D01*
X6623878Y9191823D01*
X6541655Y9345650D01*
X6421752Y9491752D01*
X6275649Y9611656D01*
X6108962Y9700752D01*
X5928089Y9755619D01*
X5915261Y9756882D01*
X5849430Y9783468D01*
X5808422Y9841423D01*
X5805258Y9912350D01*
X5838519Y9971368D01*
X9646748Y13779595D01*
X9709060Y13813621D01*
X9735843Y13816500D01*
X10916937Y13816500D01*
X10966458Y13806360D01*
X11105807Y13746799D01*
X11328767Y13695910D01*
X11557231Y13685649D01*
X11783855Y13716348D01*
X12001356Y13787018D01*
X12202743Y13895389D01*
X12381544Y14037978D01*
X12532010Y14210201D01*
X12649307Y14406523D01*
X12729665Y14620634D01*
X12752955Y14748972D01*
X12784799Y14812426D01*
X12845894Y14848592D01*
X12916842Y14845986D01*
X12975119Y14805435D01*
X12997504Y14763050D01*
X13056328Y14569132D01*
X13056334Y14569117D01*
X13150720Y14392534D01*
X13150722Y14392531D01*
X13277748Y14237748D01*
X13432531Y14110722D01*
X13609120Y14016333D01*
X13800731Y13958208D01*
X13800735Y13958208D01*
X13800737Y13958207D01*
X13999997Y13938582D01*
X14000000Y13938582D01*
X14000003Y13938582D01*
X14199261Y13958207D01*
X14199263Y13958207D01*
X14199264Y13958208D01*
X14199269Y13958208D01*
X14390880Y14016333D01*
X14567469Y14110722D01*
X14722252Y14237748D01*
X14849278Y14392531D01*
X14943667Y14569120D01*
X15001792Y14760731D01*
X15001793Y14760739D01*
X15021418Y14959997D01*
X15478582Y14959997D01*
X15498206Y14760739D01*
X15498206Y14760737D01*
X15556332Y14569123D01*
X15556334Y14569117D01*
X15650720Y14392534D01*
X15650722Y14392531D01*
X15777748Y14237748D01*
X15932531Y14110722D01*
X16109120Y14016333D01*
X16300731Y13958208D01*
X16300735Y13958208D01*
X16300737Y13958207D01*
X16499997Y13938582D01*
X16500000Y13938582D01*
X16500003Y13938582D01*
X16699261Y13958207D01*
X16699263Y13958207D01*
X16699264Y13958208D01*
X16699269Y13958208D01*
X16890880Y14016333D01*
X17067469Y14110722D01*
X17222252Y14237748D01*
X17349278Y14392531D01*
X17443667Y14569120D01*
X17501792Y14760731D01*
X17501793Y14760739D01*
X17521418Y14959997D01*
X17521418Y14960004D01*
X17518242Y14992249D01*
X19140273Y14992249D01*
X19272003Y14956952D01*
X19500000Y14937005D01*
X19727996Y14956952D01*
X19859726Y14992249D01*
X19500001Y15351974D01*
X19500000Y15351974D01*
X19140273Y14992249D01*
X17518242Y14992249D01*
X17501793Y15159262D01*
X17501793Y15159264D01*
X17501792Y15159267D01*
X17501792Y15159269D01*
X17443667Y15350880D01*
X17349278Y15527469D01*
X17222252Y15682252D01*
X17067469Y15809278D01*
X17067467Y15809279D01*
X17067466Y15809280D01*
X16890883Y15903666D01*
X16890877Y15903668D01*
X16776892Y15938245D01*
X16699269Y15961792D01*
X16699268Y15961793D01*
X16699262Y15961794D01*
X16500003Y15981418D01*
X16499997Y15981418D01*
X16300738Y15961794D01*
X16300736Y15961794D01*
X16109122Y15903668D01*
X16109116Y15903666D01*
X15932533Y15809280D01*
X15777748Y15682252D01*
X15650720Y15527467D01*
X15556334Y15350884D01*
X15556332Y15350878D01*
X15498206Y15159264D01*
X15498206Y15159262D01*
X15478582Y14960004D01*
X15478582Y14959997D01*
X15021418Y14959997D01*
X15021418Y14960004D01*
X15001793Y15159262D01*
X15001793Y15159264D01*
X15001792Y15159267D01*
X15001792Y15159269D01*
X14943667Y15350880D01*
X14849278Y15527469D01*
X14722252Y15682252D01*
X14567469Y15809278D01*
X14567467Y15809279D01*
X14567466Y15809280D01*
X14390883Y15903666D01*
X14390877Y15903668D01*
X14276892Y15938245D01*
X14199269Y15961792D01*
X14199268Y15961793D01*
X14199262Y15961794D01*
X14000003Y15981418D01*
X13999997Y15981418D01*
X13800738Y15961794D01*
X13800736Y15961794D01*
X13609122Y15903668D01*
X13609116Y15903666D01*
X13432534Y15809280D01*
X13432532Y15809279D01*
X13432531Y15809278D01*
X13423726Y15802052D01*
X13384558Y15769908D01*
X13319210Y15742156D01*
X13249232Y15754139D01*
X13196841Y15802052D01*
X13178671Y15870684D01*
X13200491Y15938245D01*
X13215526Y15956399D01*
X13509127Y16250000D01*
X18187004Y16250000D01*
X18206951Y16021998D01*
X18242246Y15890275D01*
X18601973Y16250000D01*
X19095014Y16250000D01*
X19114835Y16124852D01*
X19172359Y16011955D01*
X19261955Y15922359D01*
X19374852Y15864835D01*
X19468519Y15850000D01*
X19531481Y15850000D01*
X19625148Y15864835D01*
X19738045Y15922359D01*
X19827641Y16011955D01*
X19885165Y16124852D01*
X19904986Y16250000D01*
X19885165Y16375148D01*
X19827641Y16488045D01*
X19738045Y16577641D01*
X19625148Y16635165D01*
X19531481Y16650000D01*
X19468519Y16650000D01*
X19374852Y16635165D01*
X19261955Y16577641D01*
X19172359Y16488045D01*
X19114835Y16375148D01*
X19095014Y16250000D01*
X18601973Y16250000D01*
X18601974Y16250001D01*
X18242247Y16609728D01*
X18206951Y16478003D01*
X18187004Y16250000D01*
X13509127Y16250000D01*
X14701723Y17442595D01*
X14764035Y17476621D01*
X14790818Y17479500D01*
X16135653Y17479500D01*
X19116336Y17479500D01*
X19184457Y17459498D01*
G37*
%TD.AperFunction*%
%TA.AperFunction,Conductor*%
G36*
X21331481Y46270284D02*
G01*
X21362693Y46206516D01*
X21364500Y46185252D01*
X21364500Y44189463D01*
X21344498Y44121342D01*
X21290842Y44074849D01*
X21220568Y44064745D01*
X21166230Y44086250D01*
X21036501Y44177087D01*
X20829073Y44273812D01*
X20829068Y44273814D01*
X20608000Y44333049D01*
X20608004Y44333049D01*
X20470664Y44345064D01*
X20221814Y44096213D01*
X20380000Y43938027D01*
X20380000Y43938026D01*
X21188930Y43129096D01*
X21222956Y43066784D01*
X21217891Y42995969D01*
X21188930Y42950906D01*
X20020272Y41782249D01*
X20152003Y41746952D01*
X20293138Y41734604D01*
X20359257Y41708741D01*
X20400896Y41651237D01*
X20404837Y41580350D01*
X20371252Y41519987D01*
X20007074Y41155810D01*
X19994616Y41145826D01*
X19994801Y41145603D01*
X19988700Y41140557D01*
X19941927Y41090749D01*
X19939179Y41087914D01*
X19919359Y41068093D01*
X19919356Y41068089D01*
X19916848Y41064856D01*
X19909158Y41055855D01*
X19878785Y41023510D01*
X19878784Y41023508D01*
X19868976Y41005668D01*
X19858124Y40989150D01*
X19845654Y40973075D01*
X19845651Y40973069D01*
X19828022Y40932335D01*
X19822804Y40921685D01*
X19801433Y40882809D01*
X19801430Y40882801D01*
X19796370Y40863093D01*
X19789968Y40844393D01*
X19781882Y40825707D01*
X19781881Y40825703D01*
X19774940Y40781881D01*
X19772534Y40770260D01*
X19761500Y40727283D01*
X19761500Y40706935D01*
X19759949Y40687225D01*
X19756765Y40667122D01*
X19760941Y40622946D01*
X19761500Y40611088D01*
X19761500Y39995360D01*
X19741498Y39927239D01*
X19687842Y39880746D01*
X19617568Y39870642D01*
X19573543Y39887512D01*
X19572928Y39886360D01*
X19390883Y39983666D01*
X19390877Y39983668D01*
X19199262Y40041794D01*
X19000003Y40061418D01*
X18999997Y40061418D01*
X18800738Y40041794D01*
X18800736Y40041794D01*
X18609122Y39983668D01*
X18609116Y39983666D01*
X18432533Y39889280D01*
X18277748Y39762252D01*
X18150720Y39607467D01*
X18056334Y39430884D01*
X18056332Y39430878D01*
X17998206Y39239264D01*
X17998206Y39239262D01*
X17978582Y39040004D01*
X17978582Y39039997D01*
X17998206Y38840739D01*
X17998206Y38840737D01*
X18056332Y38649123D01*
X18056334Y38649117D01*
X18139665Y38493217D01*
X18150722Y38472531D01*
X18277748Y38317748D01*
X18432531Y38190722D01*
X18609120Y38096333D01*
X18800731Y38038208D01*
X18800735Y38038208D01*
X18800737Y38038207D01*
X18999997Y38018582D01*
X19000000Y38018582D01*
X19000003Y38018582D01*
X19199261Y38038207D01*
X19199263Y38038207D01*
X19199264Y38038208D01*
X19199269Y38038208D01*
X19390880Y38096333D01*
X19567469Y38190722D01*
X19567469Y38190723D01*
X19572928Y38193640D01*
X19573803Y38192002D01*
X19633227Y38210621D01*
X19701698Y38191850D01*
X19749151Y38139042D01*
X19761500Y38084641D01*
X19761500Y34915360D01*
X19741498Y34847239D01*
X19687842Y34800746D01*
X19617568Y34790642D01*
X19573543Y34807512D01*
X19572928Y34806360D01*
X19390883Y34903666D01*
X19390877Y34903668D01*
X19199262Y34961794D01*
X19000003Y34981418D01*
X18999997Y34981418D01*
X18800738Y34961794D01*
X18800736Y34961794D01*
X18609122Y34903668D01*
X18609116Y34903666D01*
X18432533Y34809280D01*
X18277748Y34682252D01*
X18150720Y34527467D01*
X18056334Y34350884D01*
X18056332Y34350878D01*
X17998206Y34159264D01*
X17998206Y34159262D01*
X17978582Y33960004D01*
X17978582Y33959997D01*
X17983630Y33908742D01*
X17970401Y33838989D01*
X17921561Y33787461D01*
X17852616Y33770517D01*
X17785455Y33793539D01*
X17749465Y33832795D01*
X17433161Y34373785D01*
X17430234Y34377972D01*
X17430741Y34378328D01*
X17422283Y34390885D01*
X17412846Y34408540D01*
X17349278Y34527469D01*
X17222252Y34682252D01*
X17067469Y34809278D01*
X17067467Y34809279D01*
X17067466Y34809280D01*
X16890883Y34903666D01*
X16890877Y34903668D01*
X16699262Y34961794D01*
X16500003Y34981418D01*
X16499998Y34981418D01*
X16470205Y34978484D01*
X16456228Y34977107D01*
X16443879Y34976500D01*
X14056121Y34976500D01*
X14043771Y34977107D01*
X14029794Y34978484D01*
X14000002Y34981418D01*
X13999998Y34981418D01*
X13970205Y34978484D01*
X13956228Y34977107D01*
X13943879Y34976500D01*
X11556121Y34976500D01*
X11543771Y34977107D01*
X11529794Y34978484D01*
X11500002Y34981418D01*
X11499997Y34981418D01*
X11300738Y34961794D01*
X11300736Y34961794D01*
X11109122Y34903668D01*
X11109116Y34903666D01*
X10932533Y34809280D01*
X10777748Y34682252D01*
X10650720Y34527467D01*
X10622622Y34474898D01*
X10572869Y34424250D01*
X10503633Y34408540D01*
X10436894Y34432756D01*
X10393842Y34489210D01*
X10385500Y34534294D01*
X10385500Y38465707D01*
X10405502Y38533828D01*
X10459158Y38580321D01*
X10529432Y38590425D01*
X10594012Y38560931D01*
X10622620Y38525105D01*
X10650722Y38472531D01*
X10777748Y38317748D01*
X10932531Y38190722D01*
X11109120Y38096333D01*
X11300731Y38038208D01*
X11300735Y38038208D01*
X11300737Y38038207D01*
X11499997Y38018582D01*
X11500000Y38018582D01*
X11500003Y38018582D01*
X11699261Y38038207D01*
X11699263Y38038207D01*
X11699264Y38038208D01*
X11699269Y38038208D01*
X11890880Y38096333D01*
X12067469Y38190722D01*
X12222252Y38317748D01*
X12349278Y38472531D01*
X12443667Y38649120D01*
X12501792Y38840731D01*
X12502038Y38843227D01*
X12521418Y39039997D01*
X12978582Y39039997D01*
X12998206Y38840739D01*
X12998206Y38840737D01*
X13056332Y38649123D01*
X13056334Y38649117D01*
X13139665Y38493217D01*
X13150722Y38472531D01*
X13277748Y38317748D01*
X13432531Y38190722D01*
X13609120Y38096333D01*
X13800731Y38038208D01*
X13800735Y38038208D01*
X13800737Y38038207D01*
X13999997Y38018582D01*
X14000000Y38018582D01*
X14000003Y38018582D01*
X14199261Y38038207D01*
X14199263Y38038207D01*
X14199264Y38038208D01*
X14199269Y38038208D01*
X14390880Y38096333D01*
X14567469Y38190722D01*
X14722252Y38317748D01*
X14849278Y38472531D01*
X14943667Y38649120D01*
X15001792Y38840731D01*
X15002038Y38843227D01*
X15021418Y39039997D01*
X15478582Y39039997D01*
X15498206Y38840739D01*
X15498206Y38840737D01*
X15556332Y38649123D01*
X15556334Y38649117D01*
X15639665Y38493217D01*
X15650722Y38472531D01*
X15777748Y38317748D01*
X15932531Y38190722D01*
X16109120Y38096333D01*
X16300731Y38038208D01*
X16300735Y38038208D01*
X16300737Y38038207D01*
X16499997Y38018582D01*
X16500000Y38018582D01*
X16500003Y38018582D01*
X16699261Y38038207D01*
X16699263Y38038207D01*
X16699264Y38038208D01*
X16699269Y38038208D01*
X16890880Y38096333D01*
X17067469Y38190722D01*
X17222252Y38317748D01*
X17349278Y38472531D01*
X17443667Y38649120D01*
X17501792Y38840731D01*
X17502038Y38843227D01*
X17521418Y39039997D01*
X17521418Y39040004D01*
X17501793Y39239262D01*
X17501793Y39239264D01*
X17501792Y39239267D01*
X17501792Y39239269D01*
X17443667Y39430880D01*
X17349278Y39607469D01*
X17222252Y39762252D01*
X17067469Y39889278D01*
X17067467Y39889279D01*
X17067466Y39889280D01*
X16890883Y39983666D01*
X16890877Y39983668D01*
X16699262Y40041794D01*
X16500003Y40061418D01*
X16499997Y40061418D01*
X16300738Y40041794D01*
X16300736Y40041794D01*
X16109122Y39983668D01*
X16109116Y39983666D01*
X15932533Y39889280D01*
X15777748Y39762252D01*
X15650720Y39607467D01*
X15556334Y39430884D01*
X15556332Y39430878D01*
X15498206Y39239264D01*
X15498206Y39239262D01*
X15478582Y39040004D01*
X15478582Y39039997D01*
X15021418Y39039997D01*
X15021418Y39040004D01*
X15001793Y39239262D01*
X15001793Y39239264D01*
X15001792Y39239267D01*
X15001792Y39239269D01*
X14943667Y39430880D01*
X14849278Y39607469D01*
X14722252Y39762252D01*
X14567469Y39889278D01*
X14567467Y39889279D01*
X14567466Y39889280D01*
X14390883Y39983666D01*
X14390877Y39983668D01*
X14199262Y40041794D01*
X14000003Y40061418D01*
X13999997Y40061418D01*
X13800738Y40041794D01*
X13800736Y40041794D01*
X13609122Y39983668D01*
X13609116Y39983666D01*
X13432533Y39889280D01*
X13277748Y39762252D01*
X13150720Y39607467D01*
X13056334Y39430884D01*
X13056332Y39430878D01*
X12998206Y39239264D01*
X12998206Y39239262D01*
X12978582Y39040004D01*
X12978582Y39039997D01*
X12521418Y39039997D01*
X12521418Y39040004D01*
X12501793Y39239262D01*
X12501793Y39239264D01*
X12501792Y39239267D01*
X12501792Y39239269D01*
X12443667Y39430880D01*
X12349278Y39607469D01*
X12222252Y39762252D01*
X12067469Y39889278D01*
X12067467Y39889279D01*
X12067466Y39889280D01*
X11890883Y39983666D01*
X11890877Y39983668D01*
X11699262Y40041794D01*
X11500003Y40061418D01*
X11499997Y40061418D01*
X11300738Y40041794D01*
X11300736Y40041794D01*
X11109122Y39983668D01*
X11109116Y39983666D01*
X10932533Y39889280D01*
X10777748Y39762252D01*
X10650720Y39607467D01*
X10622622Y39554898D01*
X10572869Y39504250D01*
X10503633Y39488540D01*
X10436894Y39512756D01*
X10393842Y39569210D01*
X10385500Y39614294D01*
X10385500Y42094306D01*
X10405502Y42162427D01*
X10459158Y42208920D01*
X10529432Y42219024D01*
X10591432Y42191705D01*
X10631317Y42158973D01*
X10814508Y42061055D01*
X11013282Y42000758D01*
X11013286Y42000758D01*
X11013288Y42000757D01*
X11219997Y41980398D01*
X11220000Y41980398D01*
X11220003Y41980398D01*
X11426711Y42000757D01*
X11426712Y42000758D01*
X11426718Y42000758D01*
X11625492Y42061055D01*
X11808683Y42158973D01*
X11808684Y42158975D01*
X11808686Y42158975D01*
X11808686Y42158976D01*
X11969252Y42290748D01*
X12101027Y42451317D01*
X12198945Y42634508D01*
X12244426Y42784442D01*
X12283340Y42843821D01*
X12348181Y42872736D01*
X12418362Y42862006D01*
X12471601Y42815037D01*
X12485572Y42784444D01*
X12500035Y42736768D01*
X12531055Y42634508D01*
X12628974Y42451314D01*
X12760747Y42290748D01*
X12921313Y42158976D01*
X12921313Y42158975D01*
X12921317Y42158973D01*
X13104508Y42061055D01*
X13303282Y42000758D01*
X13303286Y42000758D01*
X13303288Y42000757D01*
X13509997Y41980398D01*
X13510000Y41980398D01*
X13510003Y41980398D01*
X13716711Y42000757D01*
X13716712Y42000758D01*
X13716718Y42000758D01*
X13915492Y42061055D01*
X14098683Y42158973D01*
X14098684Y42158975D01*
X14098686Y42158975D01*
X14098686Y42158976D01*
X14259252Y42290748D01*
X14391027Y42451317D01*
X14488945Y42634508D01*
X14534426Y42784442D01*
X14573340Y42843821D01*
X14638181Y42872736D01*
X14708362Y42862006D01*
X14761601Y42815037D01*
X14775572Y42784444D01*
X14790035Y42736768D01*
X14821055Y42634508D01*
X14918974Y42451314D01*
X15050747Y42290748D01*
X15211313Y42158976D01*
X15211313Y42158975D01*
X15211317Y42158973D01*
X15394508Y42061055D01*
X15593282Y42000758D01*
X15593286Y42000758D01*
X15593288Y42000757D01*
X15799997Y41980398D01*
X15800000Y41980398D01*
X15800003Y41980398D01*
X16006711Y42000757D01*
X16006712Y42000758D01*
X16006718Y42000758D01*
X16205492Y42061055D01*
X16388683Y42158973D01*
X16388684Y42158975D01*
X16388686Y42158975D01*
X16388686Y42158976D01*
X16549252Y42290748D01*
X16681027Y42451317D01*
X16778945Y42634508D01*
X16824426Y42784442D01*
X16863340Y42843821D01*
X16928181Y42872736D01*
X16998362Y42862006D01*
X17051601Y42815037D01*
X17065572Y42784444D01*
X17080035Y42736768D01*
X17111055Y42634508D01*
X17208974Y42451314D01*
X17340747Y42290748D01*
X17501313Y42158976D01*
X17501313Y42158975D01*
X17501317Y42158973D01*
X17684508Y42061055D01*
X17883282Y42000758D01*
X17883286Y42000758D01*
X17883288Y42000757D01*
X18089997Y41980398D01*
X18090000Y41980398D01*
X18090003Y41980398D01*
X18296711Y42000757D01*
X18296712Y42000758D01*
X18296718Y42000758D01*
X18495492Y42061055D01*
X18678683Y42158973D01*
X18678684Y42158975D01*
X18678686Y42158975D01*
X18678686Y42158976D01*
X18839252Y42290748D01*
X18971027Y42451317D01*
X19051483Y42601840D01*
X19073507Y42631535D01*
X19410084Y42968111D01*
X19880000Y42968111D01*
X19920507Y42830156D01*
X19998239Y42709202D01*
X20106900Y42615048D01*
X20237685Y42555320D01*
X20344237Y42540000D01*
X20415763Y42540000D01*
X20522315Y42555320D01*
X20653100Y42615048D01*
X20761761Y42709202D01*
X20839493Y42830156D01*
X20880000Y42968111D01*
X20880000Y43111889D01*
X20839493Y43249844D01*
X20761761Y43370798D01*
X20653100Y43464952D01*
X20522315Y43524680D01*
X20415763Y43540000D01*
X20344237Y43540000D01*
X20237685Y43524680D01*
X20106900Y43464952D01*
X19998239Y43370798D01*
X19920507Y43249844D01*
X19880000Y43111889D01*
X19880000Y42968111D01*
X19410084Y42968111D01*
X19481974Y43040001D01*
X19073506Y43448469D01*
X19051481Y43478164D01*
X19023837Y43529883D01*
X19009366Y43599385D01*
X19034769Y43665682D01*
X19091982Y43707720D01*
X19142824Y43714389D01*
X19144333Y43714938D01*
X19393186Y43963789D01*
X18426069Y44930906D01*
X18416674Y44948111D01*
X18735000Y44948111D01*
X18775507Y44810156D01*
X18853239Y44689202D01*
X18961900Y44595048D01*
X19092685Y44535320D01*
X19199237Y44520000D01*
X19270763Y44520000D01*
X19377315Y44535320D01*
X19508100Y44595048D01*
X19616761Y44689202D01*
X19694493Y44810156D01*
X19735000Y44948111D01*
X19735000Y45091889D01*
X19694493Y45229844D01*
X19616761Y45350798D01*
X19508100Y45444952D01*
X19377315Y45504680D01*
X19270763Y45520000D01*
X19199237Y45520000D01*
X19092685Y45504680D01*
X18961900Y45444952D01*
X18853239Y45350798D01*
X18775507Y45229844D01*
X18735000Y45091889D01*
X18735000Y44948111D01*
X18416674Y44948111D01*
X18392043Y44993218D01*
X18397108Y45064033D01*
X18426069Y45109096D01*
X19145904Y45828931D01*
X19208216Y45862957D01*
X19279031Y45857892D01*
X19324094Y45828931D01*
X20492751Y44660274D01*
X20528048Y44792004D01*
X20547995Y45020000D01*
X20528048Y45248003D01*
X20468813Y45469069D01*
X20468811Y45469074D01*
X20372087Y45676499D01*
X20323349Y45746104D01*
X20300661Y45813378D01*
X20317946Y45882238D01*
X20369715Y45930823D01*
X20414211Y45943768D01*
X20515917Y45953785D01*
X20586710Y45960757D01*
X20586711Y45960758D01*
X20586718Y45960758D01*
X20785492Y46021055D01*
X20968683Y46118973D01*
X20968684Y46118975D01*
X20968686Y46118975D01*
X20968686Y46118976D01*
X21081376Y46211457D01*
X21129249Y46250745D01*
X21129250Y46250747D01*
X21129252Y46250748D01*
X21141100Y46265186D01*
X21199777Y46305154D01*
X21270749Y46307055D01*
X21331481Y46270284D01*
G37*
%TD.AperFunction*%
%TA.AperFunction,Conductor*%
G36*
X30560621Y49598498D02*
G01*
X30607114Y49544842D01*
X30618500Y49492500D01*
X30618500Y46400317D01*
X30598498Y46332196D01*
X30544842Y46285703D01*
X30474568Y46275599D01*
X30409988Y46305093D01*
X30395652Y46319717D01*
X30372253Y46347833D01*
X30372247Y46347839D01*
X30164249Y46534207D01*
X30164236Y46534216D01*
X29931304Y46688323D01*
X29678424Y46806869D01*
X29410958Y46887337D01*
X29134652Y46928000D01*
X28630000Y46928000D01*
X28630000Y45670000D01*
X27360000Y45670000D01*
X27360000Y46928000D01*
X26925263Y46928000D01*
X26716453Y46912718D01*
X26443832Y46851989D01*
X26443830Y46851988D01*
X26182969Y46752217D01*
X25939417Y46615529D01*
X25939413Y46615527D01*
X25718348Y46444826D01*
X25718347Y46444825D01*
X25524500Y46243764D01*
X25361985Y46016610D01*
X25234283Y45768228D01*
X25195655Y45655001D01*
X25195655Y45655000D01*
X26835368Y45655000D01*
X26832067Y45654583D01*
X26679371Y45594126D01*
X26546508Y45497595D01*
X26441825Y45371055D01*
X26371900Y45222457D01*
X26341127Y45061138D01*
X26351439Y44897234D01*
X26402188Y44741044D01*
X26490186Y44602381D01*
X26609903Y44489960D01*
X26753817Y44410842D01*
X26854465Y44385000D01*
X25191712Y44385000D01*
X25293597Y44145245D01*
X25439089Y43906847D01*
X25439094Y43906841D01*
X25617748Y43692166D01*
X25617752Y43692162D01*
X25825750Y43505794D01*
X25825763Y43505785D01*
X26058695Y43351678D01*
X26311575Y43233132D01*
X26579041Y43152664D01*
X26855346Y43112001D01*
X26855349Y43112000D01*
X27360000Y43112000D01*
X27360000Y44370000D01*
X28630000Y44370000D01*
X28630000Y43112000D01*
X29064737Y43112000D01*
X29273546Y43127283D01*
X29546167Y43188012D01*
X29546169Y43188013D01*
X29807030Y43287784D01*
X30050582Y43424472D01*
X30050586Y43424474D01*
X30271651Y43595175D01*
X30271651Y43595176D01*
X30401792Y43730159D01*
X30463472Y43765317D01*
X30534369Y43761546D01*
X30591972Y43720045D01*
X30617994Y43653989D01*
X30618500Y43642706D01*
X30618500Y40688844D01*
X30598498Y40620723D01*
X30544842Y40574230D01*
X30474568Y40564126D01*
X30409988Y40593620D01*
X30376092Y40640624D01*
X30355389Y40690605D01*
X30230668Y40894132D01*
X30198040Y40932335D01*
X30075643Y41075644D01*
X29894135Y41230666D01*
X29894133Y41230667D01*
X29894132Y41230668D01*
X29690605Y41355389D01*
X29470073Y41446737D01*
X29237966Y41502461D01*
X29000000Y41521189D01*
X28762034Y41502461D01*
X28529926Y41446737D01*
X28309396Y41355390D01*
X28105866Y41230667D01*
X28105864Y41230666D01*
X27924356Y41075644D01*
X27769334Y40894136D01*
X27769333Y40894134D01*
X27762388Y40882801D01*
X27644611Y40690605D01*
X27586111Y40549375D01*
X27585857Y40548761D01*
X27541308Y40493481D01*
X27473944Y40471060D01*
X27456055Y40471694D01*
X27186581Y40500500D01*
X27186575Y40500501D01*
X27186569Y40500501D01*
X26906787Y40500501D01*
X26906781Y40500501D01*
X26906753Y40500500D01*
X26627403Y40485612D01*
X26627385Y40485610D01*
X26259000Y40426257D01*
X25899012Y40328084D01*
X25899009Y40328083D01*
X25551514Y40192209D01*
X25551507Y40192207D01*
X25551497Y40192202D01*
X25551488Y40192198D01*
X25551485Y40192196D01*
X25220399Y40020155D01*
X25220396Y40020153D01*
X24909452Y39813881D01*
X24909445Y39813876D01*
X24622202Y39575732D01*
X24361883Y39308388D01*
X24131464Y39014900D01*
X23933543Y38698575D01*
X23770370Y38363014D01*
X23770369Y38363013D01*
X23643788Y38012008D01*
X23643786Y38012002D01*
X23555232Y37649532D01*
X23555228Y37649509D01*
X23505706Y37279696D01*
X23505705Y37279687D01*
X23495772Y36906690D01*
X23495772Y36906684D01*
X23525542Y36534741D01*
X23594683Y36168057D01*
X23594686Y36168048D01*
X23702399Y35810820D01*
X23702403Y35810811D01*
X23847484Y35467044D01*
X23847492Y35467027D01*
X23966885Y35251487D01*
X24028293Y35140626D01*
X24201434Y34894132D01*
X24242772Y34835282D01*
X24242777Y34835276D01*
X24488482Y34554474D01*
X24488484Y34554472D01*
X24684211Y34373787D01*
X24762655Y34301371D01*
X25062171Y34078849D01*
X25062172Y34078847D01*
X25062176Y34078845D01*
X25062177Y34078844D01*
X25383655Y33889415D01*
X25723446Y33735230D01*
X26077702Y33618036D01*
X26442408Y33539161D01*
X26442412Y33539161D01*
X26442415Y33539160D01*
X26538012Y33528941D01*
X26660158Y33515884D01*
X26725767Y33488755D01*
X26766294Y33430462D01*
X26768871Y33359512D01*
X26732681Y33298432D01*
X26679378Y33268892D01*
X26671300Y33266728D01*
X26671299Y33266727D01*
X27000000Y32938027D01*
X27000000Y32938026D01*
X28288348Y31649678D01*
X28322374Y31587366D01*
X28317309Y31516551D01*
X28288349Y31471488D01*
X28103000Y31286139D01*
X28103000Y30312403D01*
X28109505Y30251907D01*
X28160555Y30115036D01*
X28160555Y30115035D01*
X28248095Y29998096D01*
X28365034Y29910556D01*
X28501906Y29859506D01*
X28562402Y29853001D01*
X28562415Y29853000D01*
X28865000Y29853000D01*
X28865000Y31178111D01*
X29000000Y31178111D01*
X29040507Y31040156D01*
X29118239Y30919202D01*
X29226900Y30825048D01*
X29357685Y30765320D01*
X29464237Y30750000D01*
X29535763Y30750000D01*
X29642315Y30765320D01*
X29773100Y30825048D01*
X29881761Y30919202D01*
X29959493Y31040156D01*
X30000000Y31178111D01*
X30000000Y31321889D01*
X29959493Y31459844D01*
X29881761Y31580798D01*
X29773100Y31674952D01*
X29642315Y31734680D01*
X29535763Y31750000D01*
X29464237Y31750000D01*
X29357685Y31734680D01*
X29226900Y31674952D01*
X29118239Y31580798D01*
X29040507Y31459844D01*
X29000000Y31321889D01*
X29000000Y31178111D01*
X28865000Y31178111D01*
X28865000Y31759000D01*
X28885002Y31827121D01*
X28938658Y31873614D01*
X28991000Y31885000D01*
X30009000Y31885000D01*
X30077121Y31864998D01*
X30123614Y31811342D01*
X30135000Y31759000D01*
X30135000Y29853000D01*
X30437585Y29853000D01*
X30437595Y29853001D01*
X30479029Y29857456D01*
X30548897Y29844852D01*
X30600860Y29796474D01*
X30618500Y29732178D01*
X30618500Y16979260D01*
X30598498Y16911139D01*
X30544842Y16864646D01*
X30474568Y16854542D01*
X30409988Y16884036D01*
X30371865Y16942885D01*
X30297600Y17189181D01*
X30297596Y17189190D01*
X30280640Y17229366D01*
X30152511Y17532967D01*
X29971707Y17859374D01*
X29757232Y18164713D01*
X29757227Y18164719D01*
X29757222Y18164725D01*
X29511517Y18445527D01*
X29511515Y18445529D01*
X29237344Y18698630D01*
X28937828Y18921152D01*
X28937827Y18921154D01*
X28739175Y19038208D01*
X28616345Y19110585D01*
X28276554Y19264770D01*
X27922298Y19381964D01*
X27922297Y19381965D01*
X27922288Y19381967D01*
X27557585Y19460841D01*
X27186581Y19500501D01*
X27186569Y19500501D01*
X26906787Y19500501D01*
X26906781Y19500501D01*
X26906753Y19500500D01*
X26627403Y19485612D01*
X26627385Y19485610D01*
X26259000Y19426257D01*
X26135700Y19392631D01*
X26064716Y19394006D01*
X26005745Y19433539D01*
X25977508Y19498679D01*
X25988970Y19568744D01*
X26013449Y19603282D01*
X26832765Y20422598D01*
X26895075Y20456621D01*
X26921858Y20459500D01*
X27057048Y20459500D01*
X27057054Y20459500D01*
X27227773Y20474865D01*
X27448226Y20535706D01*
X27654272Y20634933D01*
X27839290Y20769356D01*
X27997332Y20934655D01*
X28123318Y21125517D01*
X28213201Y21335807D01*
X28264090Y21558767D01*
X28274351Y21787231D01*
X28243652Y22013855D01*
X28172982Y22231356D01*
X28064611Y22432743D01*
X28064610Y22432745D01*
X27979776Y22539122D01*
X27922022Y22611544D01*
X27922020Y22611546D01*
X27749800Y22762010D01*
X27553484Y22879304D01*
X27553473Y22879309D01*
X27366168Y22949607D01*
X27309419Y22992270D01*
X27284745Y23058841D01*
X27299978Y23128184D01*
X27350283Y23178283D01*
X27364908Y23185057D01*
X27511885Y23241995D01*
X27511886Y23241996D01*
X27517318Y23244100D01*
X27517931Y23242517D01*
X27564627Y23253501D01*
X27787064Y23253501D01*
X27787066Y23253501D01*
X27787069Y23253502D01*
X27787072Y23253502D01*
X27842376Y23264502D01*
X27861301Y23268266D01*
X27945484Y23324516D01*
X28001734Y23408699D01*
X28016500Y23482933D01*
X28016499Y23716366D01*
X28029708Y23772528D01*
X28070850Y23855150D01*
X28128845Y24058982D01*
X28134707Y24122242D01*
X28143500Y24217129D01*
X28143500Y27012872D01*
X28128845Y27171017D01*
X28112673Y27227855D01*
X28070850Y27374850D01*
X27976389Y27564554D01*
X27848677Y27733671D01*
X27848675Y27733674D01*
X27692066Y27876442D01*
X27511891Y27988002D01*
X27511886Y27988004D01*
X27511885Y27988005D01*
X27474149Y28002624D01*
X27314277Y28064559D01*
X27314278Y28064559D01*
X27314275Y28064560D01*
X27314274Y28064560D01*
X27105961Y28103500D01*
X26894039Y28103500D01*
X26720108Y28070987D01*
X26685721Y28064559D01*
X26488119Y27988007D01*
X26488108Y27988002D01*
X26307933Y27876442D01*
X26151324Y27733674D01*
X26023612Y27564556D01*
X25929150Y27374850D01*
X25929147Y27374842D01*
X25871154Y27171017D01*
X25856500Y27012872D01*
X25856500Y24217129D01*
X25871154Y24058984D01*
X25929147Y23855159D01*
X25929148Y23855156D01*
X25929150Y23855150D01*
X25970291Y23772527D01*
X25983500Y23716366D01*
X25983500Y23482937D01*
X25983501Y23482927D01*
X25998265Y23408700D01*
X26054516Y23324516D01*
X26138697Y23268267D01*
X26138699Y23268266D01*
X26212933Y23253500D01*
X26311237Y23253501D01*
X26379356Y23233500D01*
X26425849Y23179844D01*
X26435954Y23109571D01*
X26406461Y23044989D01*
X26346735Y23006605D01*
X26319716Y23001787D01*
X26304877Y23000786D01*
X26296397Y23000500D01*
X25558425Y23000500D01*
X25544319Y23001292D01*
X25508623Y23005314D01*
X25508622Y23005314D01*
X25484712Y23003702D01*
X25441451Y23000785D01*
X25432976Y23000500D01*
X20930423Y23000500D01*
X20862302Y23020502D01*
X20841327Y23037405D01*
X20077404Y23801329D01*
X20043379Y23863641D01*
X20040500Y23890424D01*
X20040500Y25296979D01*
X20040498Y25296998D01*
X20025428Y25416295D01*
X20025427Y25416297D01*
X20025427Y25416299D01*
X19968347Y25560466D01*
X19959499Y25606850D01*
X19959499Y25625064D01*
X19959498Y25625073D01*
X19944734Y25699301D01*
X19935234Y25713518D01*
X19888484Y25783484D01*
X19875500Y25792160D01*
X19804302Y25839734D01*
X19730069Y25854500D01*
X19730067Y25854500D01*
X19655970Y25854500D01*
X19610758Y25864606D01*
X19610481Y25863751D01*
X19602943Y25866200D01*
X19445227Y25896287D01*
X19445216Y25896288D01*
X19284978Y25886207D01*
X19284969Y25886205D01*
X19206371Y25860667D01*
X19167437Y25854500D01*
X19079937Y25854500D01*
X19079926Y25854499D01*
X19005699Y25839735D01*
X18921516Y25783485D01*
X18874763Y25713516D01*
X18820285Y25667989D01*
X18749842Y25659143D01*
X18685798Y25689785D01*
X18665234Y25713518D01*
X18628037Y25769186D01*
X18618484Y25783484D01*
X18605500Y25792160D01*
X18534302Y25839734D01*
X18460069Y25854500D01*
X18460067Y25854500D01*
X18385970Y25854500D01*
X18340758Y25864606D01*
X18340481Y25863751D01*
X18332943Y25866200D01*
X18175227Y25896287D01*
X18175216Y25896288D01*
X18014978Y25886207D01*
X18014969Y25886205D01*
X17936371Y25860667D01*
X17897437Y25854500D01*
X17809937Y25854500D01*
X17809926Y25854499D01*
X17723527Y25837313D01*
X17723179Y25839062D01*
X17667302Y25833056D01*
X17603816Y25864837D01*
X17588810Y25881544D01*
X17527904Y25962905D01*
X17410965Y26050445D01*
X17274093Y26101495D01*
X17213597Y26108000D01*
X17165000Y26108000D01*
X17165000Y22892000D01*
X17213585Y22892000D01*
X17213597Y22892001D01*
X17274094Y22898506D01*
X17287672Y22903570D01*
X17358488Y22908637D01*
X17420801Y22874614D01*
X17454828Y22812303D01*
X17456220Y22766207D01*
X17368420Y22200049D01*
X17362840Y22177751D01*
X17359763Y22168959D01*
X17359762Y22168953D01*
X17349861Y22081091D01*
X17349167Y22075898D01*
X17345653Y22053236D01*
X17343373Y22033637D01*
X17343234Y22031861D01*
X17342821Y22021531D01*
X17342130Y22012475D01*
X17340726Y22000000D01*
X17359763Y21831046D01*
X17415918Y21670563D01*
X17415919Y21670561D01*
X17506375Y21526601D01*
X17506377Y21526598D01*
X17507380Y21525595D01*
X17507820Y21524788D01*
X17510788Y21521067D01*
X17510136Y21520548D01*
X17541406Y21463283D01*
X17536341Y21392468D01*
X17493794Y21335632D01*
X17427274Y21310821D01*
X17418285Y21310500D01*
X14031338Y21310500D01*
X14025685Y21310627D01*
X13942771Y21314351D01*
X13942770Y21314351D01*
X13942769Y21314351D01*
X13927472Y21312280D01*
X13860508Y21303209D01*
X13854894Y21302576D01*
X13830161Y21300350D01*
X13772227Y21295135D01*
X13772224Y21295135D01*
X13772221Y21295134D01*
X13752751Y21289761D01*
X13736152Y21286363D01*
X13716150Y21283654D01*
X13716144Y21283652D01*
X13637214Y21258007D01*
X13631803Y21256382D01*
X13551775Y21234295D01*
X13533574Y21225530D01*
X13517851Y21219224D01*
X13498645Y21212983D01*
X13425553Y21173651D01*
X13420519Y21171086D01*
X13345728Y21135067D01*
X13329389Y21123197D01*
X13315044Y21114184D01*
X13297262Y21104615D01*
X13297259Y21104613D01*
X13232371Y21052868D01*
X13227877Y21049446D01*
X13160710Y21000644D01*
X13160705Y21000640D01*
X13146749Y20986044D01*
X13134248Y20974617D01*
X13118456Y20962023D01*
X13063851Y20899523D01*
X13060038Y20895351D01*
X13002668Y20835346D01*
X12991538Y20818486D01*
X12981276Y20805008D01*
X12967992Y20789803D01*
X12925420Y20718550D01*
X12922413Y20713766D01*
X12876686Y20644491D01*
X12876682Y20644483D01*
X12868742Y20625910D01*
X12861055Y20610824D01*
X12850695Y20593483D01*
X12850693Y20593478D01*
X12821525Y20515763D01*
X12819421Y20510520D01*
X12786799Y20434195D01*
X12782305Y20414506D01*
X12777433Y20398281D01*
X12770336Y20379369D01*
X12770333Y20379359D01*
X12766475Y20358098D01*
X12734631Y20294644D01*
X12673535Y20258479D01*
X12602587Y20261086D01*
X12544310Y20301637D01*
X12517208Y20367257D01*
X12516500Y20380597D01*
X12516500Y21217706D01*
X12536502Y21285827D01*
X12537699Y21287655D01*
X12539734Y21290699D01*
X12554500Y21364933D01*
X12554499Y21435175D01*
X12574500Y21503294D01*
X12580022Y21511180D01*
X12580104Y21511312D01*
X12580110Y21511319D01*
X12683935Y21715087D01*
X12749708Y21934119D01*
X12775313Y22161376D01*
X12759929Y22389552D01*
X12704050Y22611314D01*
X12609472Y22819535D01*
X12576926Y22866513D01*
X12554575Y22933899D01*
X12554499Y22938267D01*
X12554499Y23015064D01*
X12554498Y23015073D01*
X12539734Y23089301D01*
X12491482Y23161514D01*
X12483484Y23173484D01*
X12466154Y23185064D01*
X12399302Y23229734D01*
X12325069Y23244500D01*
X12325067Y23244500D01*
X12294446Y23244500D01*
X12226325Y23264502D01*
X12205351Y23281405D01*
X10643836Y24842920D01*
X10634420Y24853456D01*
X10612021Y24881543D01*
X10612020Y24881544D01*
X10561321Y24925838D01*
X10555135Y24931621D01*
X10548034Y24938722D01*
X10548033Y24938723D01*
X10548029Y24938727D01*
X10516238Y24965268D01*
X10514089Y24967104D01*
X10447744Y25025067D01*
X10439797Y25032010D01*
X10435981Y25034290D01*
X10419861Y25045729D01*
X10416457Y25048571D01*
X10416446Y25048579D01*
X10350708Y25085879D01*
X10330578Y25097302D01*
X10328187Y25098694D01*
X10243475Y25149307D01*
X10243472Y25149309D01*
X10239315Y25150869D01*
X10221413Y25159244D01*
X10217552Y25161435D01*
X10217537Y25161442D01*
X10124420Y25194024D01*
X10121761Y25194988D01*
X10029369Y25229664D01*
X10029364Y25229665D01*
X10024978Y25230461D01*
X10005873Y25235505D01*
X10001691Y25236969D01*
X9904223Y25252408D01*
X9901439Y25252881D01*
X9804348Y25270500D01*
X9804345Y25270500D01*
X9799907Y25270500D01*
X9780199Y25272051D01*
X9775814Y25272746D01*
X9775805Y25272746D01*
X9707962Y25271224D01*
X9677170Y25270532D01*
X9674345Y25270500D01*
X4942946Y25270500D01*
X4867052Y25263670D01*
X4770801Y25255007D01*
X4759507Y25254500D01*
X3974936Y25254500D01*
X3974926Y25254499D01*
X3900699Y25239735D01*
X3816515Y25183484D01*
X3760266Y25099303D01*
X3745500Y25025070D01*
X3745500Y24227447D01*
X3742341Y24199411D01*
X3735911Y24171240D01*
X3735909Y24171229D01*
X3730868Y24058982D01*
X3725649Y23942769D01*
X3744360Y23804639D01*
X3745500Y23787726D01*
X3745500Y22974937D01*
X3745501Y22974927D01*
X3760265Y22900700D01*
X3816516Y22816516D01*
X3900697Y22760267D01*
X3900699Y22760266D01*
X3974933Y22745500D01*
X4786142Y22745501D01*
X4808640Y22743476D01*
X4852432Y22735529D01*
X4885653Y22729500D01*
X9111549Y22729500D01*
X9179670Y22709498D01*
X9200644Y22692595D01*
X10408595Y21484644D01*
X10442621Y21422332D01*
X10445500Y21395552D01*
X10445500Y21364933D01*
X10460265Y21290702D01*
X10460266Y21290699D01*
X10462263Y21287710D01*
X10464616Y21280197D01*
X10465015Y21279234D01*
X10464928Y21279199D01*
X10483480Y21219962D01*
X10483500Y21217707D01*
X10483500Y20096123D01*
X10482893Y20083773D01*
X10478582Y20040003D01*
X10478582Y20039999D01*
X10483500Y19990067D01*
X10483500Y19990065D01*
X10498206Y19840740D01*
X10498206Y19840737D01*
X10556332Y19649123D01*
X10556334Y19649117D01*
X10650366Y19473197D01*
X10650722Y19472531D01*
X10777748Y19317748D01*
X10932531Y19190722D01*
X11109120Y19096333D01*
X11300731Y19038208D01*
X11300736Y19038208D01*
X11300738Y19038207D01*
X11372728Y19031117D01*
X11438560Y19004535D01*
X11479571Y18946581D01*
X11482739Y18875656D01*
X11449474Y18816629D01*
X8463733Y15830888D01*
X8450577Y15819438D01*
X8436326Y15808675D01*
X8384691Y15752035D01*
X8380672Y15747827D01*
X7589000Y14956155D01*
X7526688Y14922129D01*
X7455873Y14927194D01*
X7399037Y14969741D01*
X7374226Y15036261D01*
X7377505Y15075153D01*
X7380610Y15087859D01*
X7444769Y15350476D01*
X7494294Y15720312D01*
X7499257Y15906683D01*
X7504227Y16093311D01*
X7504227Y16093317D01*
X7474457Y16465260D01*
X7453267Y16577641D01*
X7405317Y16831941D01*
X7351024Y17012001D01*
X7297600Y17189181D01*
X7297596Y17189190D01*
X7280640Y17229366D01*
X7152511Y17532967D01*
X6971707Y17859374D01*
X6757232Y18164713D01*
X6757227Y18164719D01*
X6757222Y18164725D01*
X6511517Y18445527D01*
X6511515Y18445529D01*
X6237344Y18698630D01*
X5937828Y18921152D01*
X5937827Y18921154D01*
X5739175Y19038208D01*
X5616345Y19110585D01*
X5276554Y19264770D01*
X4922298Y19381964D01*
X4922297Y19381965D01*
X4922288Y19381967D01*
X4557585Y19460841D01*
X4186581Y19500501D01*
X4186569Y19500501D01*
X3906787Y19500501D01*
X3906781Y19500501D01*
X3906753Y19500500D01*
X3627399Y19485612D01*
X3627384Y19485610D01*
X3550338Y19473197D01*
X3479903Y19482110D01*
X3425467Y19527688D01*
X3413891Y19549369D01*
X3355389Y19690605D01*
X3230668Y19894132D01*
X3230665Y19894136D01*
X3075643Y20075644D01*
X2894135Y20230666D01*
X2894133Y20230667D01*
X2894132Y20230668D01*
X2690605Y20355389D01*
X2661953Y20367257D01*
X2470073Y20446737D01*
X2416907Y20459501D01*
X2237966Y20502461D01*
X2000000Y20521189D01*
X1762034Y20502461D01*
X1529926Y20446737D01*
X1309396Y20355390D01*
X1105866Y20230667D01*
X1105864Y20230666D01*
X924356Y20075644D01*
X769334Y19894136D01*
X769333Y19894134D01*
X769332Y19894132D01*
X644611Y19690605D01*
X623907Y19640624D01*
X579360Y19585345D01*
X511996Y19562924D01*
X443205Y19580483D01*
X394827Y19632445D01*
X381500Y19688844D01*
X381500Y30278622D01*
X3724686Y30278622D01*
X3729215Y30211452D01*
X3729500Y30202977D01*
X3729500Y28031339D01*
X3729373Y28025686D01*
X3725649Y27942772D01*
X3725649Y27942771D01*
X3736791Y27860509D01*
X3737424Y27854894D01*
X3744865Y27772226D01*
X3744867Y27772219D01*
X3750236Y27752766D01*
X3753636Y27736160D01*
X3756347Y27716144D01*
X3781994Y27637211D01*
X3783620Y27631797D01*
X3805703Y27551782D01*
X3805707Y27551772D01*
X3814468Y27533579D01*
X3820778Y27517846D01*
X3827015Y27498649D01*
X3866348Y27425557D01*
X3868915Y27420519D01*
X3904931Y27345732D01*
X3904934Y27345727D01*
X3916804Y27329388D01*
X3925817Y27315043D01*
X3935387Y27297259D01*
X3987148Y27232352D01*
X3990572Y27227855D01*
X4034604Y27167250D01*
X4039356Y27160710D01*
X4053953Y27146754D01*
X4065382Y27134250D01*
X4077978Y27118456D01*
X4140489Y27063842D01*
X4144621Y27060067D01*
X4204655Y27002668D01*
X4221514Y26991540D01*
X4234997Y26981273D01*
X4250199Y26967991D01*
X4321460Y26925414D01*
X4326247Y26922406D01*
X4363506Y26897812D01*
X4395517Y26876682D01*
X4414089Y26868744D01*
X4429185Y26861052D01*
X4436220Y26856849D01*
X4446523Y26850693D01*
X4524241Y26821525D01*
X4529489Y26819419D01*
X4542247Y26813966D01*
X4605807Y26786799D01*
X4625495Y26782306D01*
X4641721Y26777434D01*
X4660634Y26770335D01*
X4660636Y26770335D01*
X4660638Y26770334D01*
X4697430Y26763658D01*
X4742316Y26755513D01*
X4747815Y26754387D01*
X4828767Y26735910D01*
X4848941Y26735004D01*
X4865776Y26733108D01*
X4881386Y26730275D01*
X4885652Y26729500D01*
X4885653Y26729500D01*
X4968662Y26729500D01*
X4974314Y26729374D01*
X5057231Y26725649D01*
X5073786Y26727892D01*
X5077246Y26728360D01*
X5094157Y26729500D01*
X7585653Y26729500D01*
X9111575Y26729500D01*
X9125681Y26728708D01*
X9130694Y26728144D01*
X9161378Y26724686D01*
X9222028Y26728776D01*
X9228549Y26729215D01*
X9237024Y26729500D01*
X9247046Y26729500D01*
X9247054Y26729500D01*
X9288372Y26733220D01*
X9291055Y26733431D01*
X9336322Y26736483D01*
X9347197Y26737215D01*
X9355670Y26737500D01*
X10610877Y26737500D01*
X10642272Y26737500D01*
X10660532Y26736170D01*
X10662741Y26735847D01*
X10684672Y26732634D01*
X10730976Y26736686D01*
X10734817Y26737021D01*
X10745797Y26737500D01*
X10751412Y26737500D01*
X11435272Y26737500D01*
X11453532Y26736170D01*
X11455741Y26735847D01*
X11477672Y26732634D01*
X11523976Y26736686D01*
X11527817Y26737021D01*
X11538797Y26737500D01*
X11544413Y26737500D01*
X11558331Y26739128D01*
X11575688Y26741157D01*
X11579328Y26741528D01*
X11655240Y26748169D01*
X11655246Y26748172D01*
X11662425Y26749653D01*
X11662437Y26749593D01*
X11669914Y26751251D01*
X11669900Y26751310D01*
X11677029Y26753001D01*
X11677042Y26753002D01*
X11748682Y26779078D01*
X11752074Y26780257D01*
X11824440Y26804235D01*
X11824443Y26804238D01*
X11831090Y26807336D01*
X11831116Y26807280D01*
X11838003Y26810614D01*
X11837976Y26810669D01*
X11844534Y26813964D01*
X11844534Y26813965D01*
X11844539Y26813966D01*
X11908245Y26855868D01*
X11911264Y26857791D01*
X11976149Y26897812D01*
X11976150Y26897813D01*
X11981909Y26902366D01*
X11981947Y26902318D01*
X11987874Y26907145D01*
X11987834Y26907193D01*
X11993452Y26911909D01*
X11993462Y26911915D01*
X12045802Y26967394D01*
X12048288Y26969953D01*
X12399406Y27321070D01*
X12461717Y27355094D01*
X12532533Y27350029D01*
X12589368Y27307482D01*
X12614179Y27240962D01*
X12614500Y27231973D01*
X12614500Y26929069D01*
X12612748Y26913199D01*
X12613038Y26913171D01*
X12612292Y26905280D01*
X12614438Y26836989D01*
X12614500Y26833031D01*
X12614500Y26805013D01*
X12615011Y26800962D01*
X12615940Y26789153D01*
X12617334Y26744798D01*
X12617335Y26744793D01*
X12623014Y26725244D01*
X12627021Y26705893D01*
X12629572Y26685705D01*
X12629572Y26685704D01*
X12645906Y26644447D01*
X12649749Y26633221D01*
X12662129Y26590610D01*
X12662131Y26590605D01*
X12672492Y26573086D01*
X12681189Y26555334D01*
X12688681Y26536412D01*
X12714765Y26500510D01*
X12721281Y26490590D01*
X12743865Y26452403D01*
X12743868Y26452399D01*
X12758250Y26438017D01*
X12771090Y26422984D01*
X12783054Y26406517D01*
X12783057Y26406514D01*
X12817248Y26378229D01*
X12826029Y26370239D01*
X13336188Y25860079D01*
X13346171Y25847618D01*
X13346396Y25847803D01*
X13351447Y25841697D01*
X13401264Y25794916D01*
X13404075Y25792192D01*
X13423906Y25772361D01*
X13427067Y25769200D01*
X13427082Y25769186D01*
X14922595Y24273673D01*
X14956621Y24211361D01*
X14959500Y24184578D01*
X14959500Y23560022D01*
X14959501Y23560003D01*
X14974571Y23440706D01*
X14974572Y23440704D01*
X15033681Y23291412D01*
X15033682Y23291409D01*
X15128056Y23161515D01*
X15128057Y23161514D01*
X15128058Y23161513D01*
X15251776Y23059165D01*
X15397059Y22990800D01*
X15397061Y22990800D01*
X15397062Y22990799D01*
X15554772Y22960714D01*
X15554775Y22960714D01*
X15554779Y22960713D01*
X15554781Y22960714D01*
X15554783Y22960713D01*
X15634903Y22965754D01*
X15715027Y22970795D01*
X15715028Y22970795D01*
X15810411Y23001787D01*
X15867733Y23020412D01*
X16003303Y23106447D01*
X16003303Y23106448D01*
X16004393Y23107139D01*
X16072626Y23126752D01*
X16140632Y23106361D01*
X16172775Y23076264D01*
X16202097Y23037095D01*
X16319034Y22949556D01*
X16455906Y22898506D01*
X16516402Y22892001D01*
X16516415Y22892000D01*
X16565000Y22892000D01*
X16565000Y26108000D01*
X16516402Y26108000D01*
X16455905Y26101495D01*
X16351903Y26062704D01*
X16281087Y26057640D01*
X16218775Y26091665D01*
X16186875Y26145605D01*
X16182869Y26159393D01*
X16172508Y26176912D01*
X16163812Y26194664D01*
X16156320Y26213585D01*
X16156319Y26213588D01*
X16130233Y26249492D01*
X16123720Y26259407D01*
X16101135Y26297598D01*
X16101133Y26297600D01*
X16101133Y26297601D01*
X16086746Y26311988D01*
X16073905Y26327022D01*
X16061942Y26343487D01*
X16061941Y26343489D01*
X16027750Y26371773D01*
X16018969Y26379764D01*
X15758815Y26639918D01*
X15748831Y26652380D01*
X15748607Y26652194D01*
X15743554Y26658302D01*
X15693734Y26705086D01*
X15690890Y26707843D01*
X15671099Y26727635D01*
X15671096Y26727637D01*
X15671094Y26727639D01*
X15667875Y26730136D01*
X15658849Y26737845D01*
X15649471Y26746652D01*
X15613507Y26807866D01*
X15616347Y26878806D01*
X15657089Y26936949D01*
X15722797Y26963835D01*
X15735726Y26964500D01*
X16169718Y26964500D01*
X16190066Y26964500D01*
X16209775Y26962950D01*
X16229879Y26959765D01*
X16274056Y26963942D01*
X16285913Y26964500D01*
X20015930Y26964500D01*
X20031798Y26962748D01*
X20031826Y26963038D01*
X20039718Y26962292D01*
X20039718Y26962293D01*
X20039719Y26962292D01*
X20108012Y26964438D01*
X20111969Y26964500D01*
X20139983Y26964500D01*
X20144013Y26965010D01*
X20155851Y26965942D01*
X20200205Y26967335D01*
X20219751Y26973015D01*
X20239102Y26977022D01*
X20259299Y26979573D01*
X20300555Y26995908D01*
X20311778Y26999751D01*
X20354393Y27012131D01*
X20371907Y27022490D01*
X20389656Y27031186D01*
X20408588Y27038681D01*
X20444494Y27064770D01*
X20454394Y27071273D01*
X20492598Y27093866D01*
X20506984Y27108253D01*
X20522018Y27121094D01*
X20538487Y27133058D01*
X20566782Y27167263D01*
X20574752Y27176022D01*
X21089920Y27691189D01*
X21102378Y27701168D01*
X21102192Y27701392D01*
X21108298Y27706445D01*
X21108303Y27706447D01*
X21155103Y27756286D01*
X21157794Y27759063D01*
X21177639Y27778906D01*
X21180131Y27782120D01*
X21187839Y27791147D01*
X21218217Y27823494D01*
X21228021Y27841330D01*
X21238880Y27857859D01*
X21240936Y27860509D01*
X21251349Y27873933D01*
X21268972Y27914661D01*
X21274192Y27925313D01*
X21295567Y27964194D01*
X21295569Y27964197D01*
X21300632Y27983921D01*
X21307031Y28002609D01*
X21315117Y28021292D01*
X21322057Y28065117D01*
X21324466Y28076746D01*
X21335499Y28119712D01*
X21335500Y28119719D01*
X21335500Y28140066D01*
X21337051Y28159777D01*
X21340235Y28179879D01*
X21336059Y28224056D01*
X21335500Y28235914D01*
X21335500Y30813276D01*
X26671300Y30813276D01*
X26778625Y30784518D01*
X27000000Y30765150D01*
X27221379Y30784518D01*
X27328698Y30813275D01*
X27328699Y30813276D01*
X27000001Y31141974D01*
X27000000Y31141974D01*
X26671300Y30813276D01*
X21335500Y30813276D01*
X21335500Y31634578D01*
X21355502Y31702699D01*
X21372405Y31723673D01*
X21688732Y32040000D01*
X25725149Y32040000D01*
X25744517Y31818621D01*
X25773273Y31711302D01*
X26101974Y32040001D01*
X26067967Y32074008D01*
X26546190Y32074008D01*
X26556327Y31938735D01*
X26605887Y31812459D01*
X26690465Y31706401D01*
X26802547Y31629984D01*
X26932173Y31590000D01*
X27033724Y31590000D01*
X27134138Y31605135D01*
X27256357Y31663993D01*
X27355798Y31756260D01*
X27423625Y31873740D01*
X27453810Y32005992D01*
X27443673Y32141265D01*
X27394113Y32267541D01*
X27309535Y32373599D01*
X27197453Y32450016D01*
X27067827Y32490000D01*
X26966276Y32490000D01*
X26865862Y32474865D01*
X26743643Y32416007D01*
X26644202Y32323740D01*
X26576375Y32206260D01*
X26546190Y32074008D01*
X26067967Y32074008D01*
X25773274Y32368701D01*
X25744517Y32261380D01*
X25725149Y32040000D01*
X21688732Y32040000D01*
X21878172Y32229440D01*
X22389919Y32741188D01*
X22402378Y32751167D01*
X22402192Y32751392D01*
X22408298Y32756445D01*
X22408303Y32756447D01*
X22455103Y32806286D01*
X22457794Y32809063D01*
X22477639Y32828906D01*
X22480131Y32832120D01*
X22487839Y32841147D01*
X22518217Y32873494D01*
X22528025Y32891337D01*
X22538873Y32907850D01*
X22551350Y32923934D01*
X22568975Y32964666D01*
X22574192Y32975314D01*
X22584342Y32993776D01*
X22595569Y33014197D01*
X22600630Y33033913D01*
X22607031Y33052609D01*
X22615117Y33071292D01*
X22622057Y33115117D01*
X22624466Y33126746D01*
X22635499Y33169712D01*
X22635500Y33169719D01*
X22635500Y33190067D01*
X22637051Y33209778D01*
X22640235Y33229880D01*
X22636059Y33274057D01*
X22635500Y33285915D01*
X22635500Y34090875D01*
X22652101Y34153388D01*
X22696380Y34230876D01*
X23109877Y34954498D01*
X23114645Y34966115D01*
X23126443Y34988272D01*
X23128734Y34991699D01*
X23129722Y34996667D01*
X23134516Y35012520D01*
X23134047Y35012678D01*
X23135349Y35016546D01*
X23136891Y35022345D01*
X23136892Y35022347D01*
X23140328Y35048586D01*
X23141683Y35056801D01*
X23143500Y35065933D01*
X23143499Y35065943D01*
X23143766Y35068637D01*
X23144568Y35080946D01*
X23145610Y35088894D01*
X23145609Y35088897D01*
X23145610Y35088900D01*
X23145535Y35091188D01*
X23143499Y35111913D01*
X23143499Y36894064D01*
X23143498Y36894073D01*
X23128734Y36968301D01*
X23072483Y37052485D01*
X22988302Y37108734D01*
X22914069Y37123500D01*
X22550665Y37123500D01*
X22482544Y37143502D01*
X22461570Y37160405D01*
X21191069Y38430905D01*
X21181674Y38448111D01*
X21500000Y38448111D01*
X21540507Y38310156D01*
X21618239Y38189202D01*
X21726900Y38095048D01*
X21857685Y38035320D01*
X21964237Y38020000D01*
X22035763Y38020000D01*
X22142315Y38035320D01*
X22273100Y38095048D01*
X22381761Y38189202D01*
X22459493Y38310156D01*
X22500000Y38448111D01*
X22500000Y38519999D01*
X22898026Y38519999D01*
X23331360Y38086665D01*
X23331361Y38086665D01*
X23382667Y38289263D01*
X23382668Y38289269D01*
X23401787Y38520000D01*
X23382667Y38750735D01*
X23331361Y38953337D01*
X22898026Y38520001D01*
X22898026Y38519999D01*
X22500000Y38519999D01*
X22500000Y38591889D01*
X22459493Y38729844D01*
X22381761Y38850798D01*
X22273100Y38944952D01*
X22142315Y39004680D01*
X22035763Y39020000D01*
X21964237Y39020000D01*
X21857685Y39004680D01*
X21726900Y38944952D01*
X21618239Y38850798D01*
X21540507Y38729844D01*
X21500000Y38591889D01*
X21500000Y38448111D01*
X21181674Y38448111D01*
X21157044Y38493217D01*
X21162108Y38564032D01*
X21191069Y38609096D01*
X22000001Y39418027D01*
X22431030Y39849057D01*
X22344119Y39878894D01*
X22344114Y39878895D01*
X22115755Y39917000D01*
X21884245Y39917000D01*
X21655885Y39878895D01*
X21655876Y39878893D01*
X21436911Y39803722D01*
X21436908Y39803721D01*
X21233295Y39693531D01*
X21228930Y39690678D01*
X21227829Y39692363D01*
X21169811Y39669492D01*
X21100170Y39683298D01*
X21049048Y39732563D01*
X21032500Y39794983D01*
X21032500Y40331579D01*
X21052502Y40399700D01*
X21069400Y40420669D01*
X22389917Y41741187D01*
X22402384Y41751173D01*
X22402198Y41751397D01*
X22408300Y41756446D01*
X22408303Y41756447D01*
X22455087Y41806269D01*
X22457809Y41809079D01*
X22477638Y41828906D01*
X22480133Y41832124D01*
X22487832Y41841138D01*
X22518217Y41873494D01*
X22528023Y41891333D01*
X22538870Y41907847D01*
X22551349Y41923933D01*
X22568972Y41964661D01*
X22574192Y41975313D01*
X22595567Y42014194D01*
X22595569Y42014197D01*
X22600632Y42033921D01*
X22607031Y42052609D01*
X22615117Y42071292D01*
X22622057Y42115117D01*
X22624466Y42126746D01*
X22635499Y42169712D01*
X22635500Y42169719D01*
X22635500Y42190066D01*
X22637051Y42209777D01*
X22640235Y42229879D01*
X22636059Y42274056D01*
X22635500Y42285914D01*
X22635500Y47325322D01*
X22637252Y47341195D01*
X22636963Y47341222D01*
X22637709Y47349115D01*
X22635562Y47417429D01*
X22635500Y47421387D01*
X22635500Y47449377D01*
X22635500Y47449380D01*
X22634991Y47453403D01*
X22634058Y47465249D01*
X22632665Y47509602D01*
X22626984Y47529154D01*
X22622977Y47548502D01*
X22620427Y47568696D01*
X22604089Y47609960D01*
X22600251Y47621170D01*
X22587869Y47663790D01*
X22577508Y47681309D01*
X22568812Y47699061D01*
X22561320Y47717982D01*
X22561319Y47717985D01*
X22535233Y47753889D01*
X22528720Y47763804D01*
X22519439Y47779498D01*
X22506135Y47801995D01*
X22506133Y47801997D01*
X22506133Y47801998D01*
X22491746Y47816385D01*
X22478905Y47831419D01*
X22466942Y47847884D01*
X22466941Y47847886D01*
X22432750Y47876170D01*
X22423969Y47884161D01*
X21483212Y48824918D01*
X21473228Y48837380D01*
X21473004Y48837194D01*
X21467951Y48843302D01*
X21418131Y48890086D01*
X21415287Y48892843D01*
X21395496Y48912635D01*
X21395493Y48912637D01*
X21395491Y48912639D01*
X21392272Y48915136D01*
X21383248Y48922843D01*
X21350903Y48953217D01*
X21350896Y48953222D01*
X21333070Y48963022D01*
X21316544Y48973877D01*
X21300463Y48986351D01*
X21259734Y49003976D01*
X21249075Y49009198D01*
X21210202Y49030568D01*
X21210200Y49030569D01*
X21190482Y49035632D01*
X21171779Y49042036D01*
X21153103Y49050118D01*
X21109271Y49057060D01*
X21097646Y49059468D01*
X21054684Y49070499D01*
X21054681Y49070500D01*
X21054679Y49070500D01*
X21054676Y49070500D01*
X21034331Y49070500D01*
X21014621Y49072051D01*
X20994518Y49075235D01*
X20994517Y49075235D01*
X20975138Y49073403D01*
X20950340Y49071059D01*
X20938484Y49070500D01*
X17319070Y49070500D01*
X17303201Y49072253D01*
X17303174Y49071962D01*
X17295281Y49072708D01*
X17271546Y49071962D01*
X17227002Y49070562D01*
X17223044Y49070500D01*
X17195017Y49070500D01*
X17193968Y49070368D01*
X17190951Y49069987D01*
X17179145Y49069059D01*
X17134794Y49067665D01*
X17115250Y49061987D01*
X17095905Y49057981D01*
X17075704Y49055428D01*
X17075696Y49055426D01*
X17034434Y49039090D01*
X17023211Y49035247D01*
X16980605Y49022868D01*
X16963093Y49012511D01*
X16945343Y49003816D01*
X16926420Y48996324D01*
X16926413Y48996320D01*
X16890511Y48970237D01*
X16880596Y48963724D01*
X16842400Y48941135D01*
X16828006Y48926740D01*
X16812981Y48913908D01*
X16796513Y48901942D01*
X16796512Y48901941D01*
X16768220Y48867744D01*
X16760233Y48858968D01*
X16531810Y48630545D01*
X16504817Y48610007D01*
X15530318Y48058001D01*
X15461187Y48041830D01*
X15394288Y48065601D01*
X15350861Y48121767D01*
X15344693Y48192495D01*
X15361528Y48234669D01*
X15384082Y48270563D01*
X15440237Y48431046D01*
X15459274Y48600000D01*
X15440237Y48768954D01*
X15384082Y48929437D01*
X15293624Y49073400D01*
X15293622Y49073403D01*
X15173402Y49193623D01*
X15173399Y49193625D01*
X15029439Y49284081D01*
X15029437Y49284082D01*
X14868954Y49340237D01*
X14700000Y49359274D01*
X14699998Y49359274D01*
X14677549Y49356745D01*
X14662466Y49356486D01*
X14662471Y49356255D01*
X14656279Y49356129D01*
X13679657Y49239911D01*
X13674503Y49238856D01*
X13674371Y49239499D01*
X13646520Y49235500D01*
X10684070Y49235500D01*
X10668201Y49237253D01*
X10668174Y49236962D01*
X10660281Y49237708D01*
X10636546Y49236962D01*
X10592002Y49235562D01*
X10588044Y49235500D01*
X10560017Y49235500D01*
X10558968Y49235368D01*
X10555951Y49234987D01*
X10544145Y49234059D01*
X10499794Y49232665D01*
X10480250Y49226987D01*
X10460905Y49222981D01*
X10440704Y49220428D01*
X10440696Y49220426D01*
X10399434Y49204090D01*
X10388211Y49200247D01*
X10345605Y49187868D01*
X10328093Y49177511D01*
X10310343Y49168816D01*
X10291420Y49161324D01*
X10291413Y49161320D01*
X10255511Y49135237D01*
X10245596Y49128724D01*
X10207400Y49106135D01*
X10193006Y49091740D01*
X10177981Y49078908D01*
X10166410Y49070500D01*
X10161512Y49066941D01*
X10133220Y49032744D01*
X10125233Y49023968D01*
X8110077Y47008812D01*
X8097616Y46998827D01*
X8097801Y46998603D01*
X8091700Y46993557D01*
X8044927Y46943749D01*
X8042179Y46940914D01*
X8022359Y46921093D01*
X8022356Y46921089D01*
X8019848Y46917856D01*
X8012158Y46908855D01*
X7981785Y46876510D01*
X7981784Y46876508D01*
X7971976Y46858668D01*
X7961124Y46842150D01*
X7948654Y46826075D01*
X7948651Y46826069D01*
X7931022Y46785335D01*
X7925804Y46774685D01*
X7904433Y46735809D01*
X7904430Y46735801D01*
X7899370Y46716093D01*
X7892968Y46697393D01*
X7884882Y46678707D01*
X7884881Y46678703D01*
X7877940Y46634881D01*
X7875534Y46623260D01*
X7864500Y46580283D01*
X7864500Y46559935D01*
X7862949Y46540225D01*
X7859765Y46520122D01*
X7863941Y46475946D01*
X7864500Y46464088D01*
X7864500Y44334069D01*
X7862748Y44318199D01*
X7863038Y44318171D01*
X7862292Y44310280D01*
X7864438Y44241989D01*
X7864500Y44238031D01*
X7864500Y44210013D01*
X7865011Y44205962D01*
X7865940Y44194153D01*
X7867334Y44149798D01*
X7867335Y44149793D01*
X7873014Y44130244D01*
X7877021Y44110893D01*
X7879572Y44090705D01*
X7879572Y44090704D01*
X7895906Y44049447D01*
X7899749Y44038221D01*
X7912129Y43995610D01*
X7912131Y43995605D01*
X7922492Y43978086D01*
X7931189Y43960334D01*
X7938681Y43941412D01*
X7964765Y43905510D01*
X7971281Y43895590D01*
X7993865Y43857403D01*
X7993868Y43857399D01*
X8008250Y43843017D01*
X8021090Y43827984D01*
X8033054Y43811517D01*
X8033057Y43811514D01*
X8033058Y43811513D01*
X8067254Y43783224D01*
X8076034Y43775234D01*
X9077595Y42773673D01*
X9111621Y42711361D01*
X9114500Y42684578D01*
X9114500Y35684000D01*
X9094498Y35615879D01*
X9040842Y35569386D01*
X8988500Y35558000D01*
X8700000Y35558000D01*
X8700000Y34176000D01*
X8679998Y34107879D01*
X8626342Y34061386D01*
X8574000Y34050000D01*
X6842000Y34050000D01*
X6842000Y34001403D01*
X6848505Y33940907D01*
X6899555Y33804036D01*
X6899555Y33804035D01*
X6987095Y33687096D01*
X7104034Y33599556D01*
X7193255Y33566279D01*
X7250091Y33523733D01*
X7274902Y33457212D01*
X7259811Y33387838D01*
X7244791Y33367773D01*
X7244997Y33367619D01*
X7152657Y33244266D01*
X7101962Y33108350D01*
X7101960Y33108342D01*
X7095500Y33048263D01*
X7095500Y32451754D01*
X7095502Y32451730D01*
X7101959Y32391661D01*
X7101959Y32391659D01*
X7152657Y32255735D01*
X7156397Y32248886D01*
X7171489Y32179512D01*
X7146678Y32112991D01*
X7089843Y32070444D01*
X7045810Y32062500D01*
X6114727Y32062500D01*
X6096467Y32063830D01*
X6072328Y32067366D01*
X6072320Y32067366D01*
X6031912Y32063830D01*
X6022196Y32062980D01*
X6011215Y32062500D01*
X5364735Y32062500D01*
X5346475Y32063830D01*
X5322330Y32067367D01*
X5322321Y32067367D01*
X5277770Y32063469D01*
X5272186Y32062980D01*
X5261205Y32062500D01*
X5255586Y32062500D01*
X5224287Y32058844D01*
X5220653Y32058473D01*
X5144759Y32051832D01*
X5137574Y32050348D01*
X5137562Y32050406D01*
X5130083Y32048748D01*
X5130097Y32048690D01*
X5122950Y32046996D01*
X5051340Y32020934D01*
X5047884Y32019732D01*
X4975563Y31995767D01*
X4968915Y31992666D01*
X4968890Y31992720D01*
X4961988Y31989378D01*
X4962015Y31989326D01*
X4955468Y31986039D01*
X4891791Y31944158D01*
X4888703Y31942192D01*
X4823852Y31902191D01*
X4818094Y31897637D01*
X4818057Y31897684D01*
X4812122Y31892850D01*
X4812161Y31892804D01*
X4806540Y31888087D01*
X4754228Y31832642D01*
X4751676Y31830016D01*
X4006602Y31084942D01*
X3992753Y31072972D01*
X3973179Y31058399D01*
X3973176Y31058397D01*
X3940820Y31019837D01*
X3933409Y31011748D01*
X3929427Y31007766D01*
X3929421Y31007759D01*
X3909884Y30983052D01*
X3907576Y30980218D01*
X3858604Y30921853D01*
X3854574Y30915725D01*
X3854523Y30915758D01*
X3850405Y30909294D01*
X3850455Y30909263D01*
X3846605Y30903022D01*
X3814394Y30833946D01*
X3812798Y30830649D01*
X3778605Y30762566D01*
X3776095Y30755668D01*
X3776039Y30755689D01*
X3773525Y30748455D01*
X3773582Y30748436D01*
X3771273Y30741471D01*
X3755865Y30666852D01*
X3755073Y30663278D01*
X3737500Y30589126D01*
X3736648Y30581833D01*
X3736587Y30581841D01*
X3735809Y30574227D01*
X3735871Y30574221D01*
X3735231Y30566910D01*
X3737447Y30490746D01*
X3737500Y30487082D01*
X3737500Y30419771D01*
X3735475Y30397272D01*
X3729500Y30364349D01*
X3729500Y30359909D01*
X3727949Y30340201D01*
X3727254Y30335818D01*
X3727253Y30335803D01*
X3727706Y30315617D01*
X3726947Y30298696D01*
X3724686Y30278622D01*
X381500Y30278622D01*
X381500Y33311157D01*
X401502Y33379278D01*
X455158Y33425771D01*
X525432Y33435875D01*
X590012Y33406381D01*
X623907Y33359377D01*
X644611Y33309395D01*
X766357Y33110722D01*
X769333Y33105867D01*
X769334Y33105865D01*
X924356Y32924357D01*
X1080829Y32790717D01*
X1105868Y32769332D01*
X1309395Y32644611D01*
X1529927Y32553263D01*
X1762034Y32497539D01*
X2000000Y32478811D01*
X2237966Y32497539D01*
X2470073Y32553263D01*
X2690605Y32644611D01*
X2894132Y32769332D01*
X3075643Y32924357D01*
X3230668Y33105868D01*
X3355389Y33309395D01*
X3414144Y33451242D01*
X3458690Y33506520D01*
X3526054Y33528941D01*
X3543944Y33528307D01*
X3813418Y33499500D01*
X3813425Y33499500D01*
X3813431Y33499499D01*
X3813436Y33499499D01*
X4093206Y33499499D01*
X4093213Y33499499D01*
X4216123Y33506050D01*
X4372596Y33514389D01*
X4372601Y33514390D01*
X4372609Y33514390D01*
X4740995Y33573743D01*
X5100986Y33671916D01*
X5448503Y33807798D01*
X5779607Y33979849D01*
X6090547Y34186119D01*
X6377801Y34424272D01*
X6471694Y34520698D01*
X7846372Y34520698D01*
X7875047Y34407462D01*
X7938936Y34309673D01*
X8031115Y34237928D01*
X8141595Y34200000D01*
X8229005Y34200000D01*
X8315216Y34214386D01*
X8417947Y34269981D01*
X8497060Y34355921D01*
X8543982Y34462892D01*
X8553628Y34579302D01*
X8524953Y34692538D01*
X8461064Y34790327D01*
X8368885Y34862072D01*
X8258405Y34900000D01*
X8170995Y34900000D01*
X8084784Y34885614D01*
X7982053Y34830019D01*
X7902940Y34744079D01*
X7856018Y34637108D01*
X7846372Y34520698D01*
X6471694Y34520698D01*
X6638114Y34691609D01*
X6868535Y34985101D01*
X6872118Y34990829D01*
X6925205Y35037969D01*
X6978936Y35050000D01*
X7700000Y35050000D01*
X7700000Y35558000D01*
X7380527Y35558000D01*
X7312406Y35578002D01*
X7265913Y35631658D01*
X7255809Y35701932D01*
X7261999Y35726744D01*
X7356211Y35987993D01*
X7356213Y35987999D01*
X7387476Y36115965D01*
X7444769Y36350476D01*
X7494294Y36720312D01*
X7504227Y37093317D01*
X7489309Y37279696D01*
X7474457Y37465260D01*
X7466408Y37507945D01*
X7405317Y37831941D01*
X7351024Y38012002D01*
X7297600Y38189181D01*
X7297596Y38189190D01*
X7296949Y38190722D01*
X7152511Y38532967D01*
X6971707Y38859374D01*
X6757232Y39164713D01*
X6757227Y39164719D01*
X6757222Y39164725D01*
X6511517Y39445527D01*
X6511515Y39445529D01*
X6237344Y39698630D01*
X5992215Y39880746D01*
X5937827Y39921153D01*
X5937827Y39921154D01*
X5733089Y40041794D01*
X5616345Y40110585D01*
X5276554Y40264770D01*
X4922298Y40381964D01*
X4922297Y40381965D01*
X4922288Y40381967D01*
X4557585Y40460841D01*
X4186581Y40500501D01*
X4186569Y40500501D01*
X3906787Y40500501D01*
X3906781Y40500501D01*
X3906753Y40500500D01*
X3627399Y40485612D01*
X3627384Y40485610D01*
X3550338Y40473197D01*
X3479903Y40482110D01*
X3425467Y40527688D01*
X3413891Y40549369D01*
X3355389Y40690605D01*
X3230668Y40894132D01*
X3198040Y40932335D01*
X3075643Y41075644D01*
X2894135Y41230666D01*
X2894133Y41230667D01*
X2894132Y41230668D01*
X2690605Y41355389D01*
X2470073Y41446737D01*
X2237966Y41502461D01*
X2000000Y41521189D01*
X1762034Y41502461D01*
X1529926Y41446737D01*
X1309396Y41355390D01*
X1105866Y41230667D01*
X1105864Y41230666D01*
X924356Y41075644D01*
X769334Y40894136D01*
X769333Y40894134D01*
X762388Y40882801D01*
X644611Y40690605D01*
X623907Y40640624D01*
X579360Y40585345D01*
X511996Y40562924D01*
X443205Y40580483D01*
X394827Y40632445D01*
X381500Y40688844D01*
X381500Y43639684D01*
X401502Y43707805D01*
X455158Y43754298D01*
X525432Y43764402D01*
X590012Y43734908D01*
X604350Y43720283D01*
X627754Y43692160D01*
X835750Y43505794D01*
X835763Y43505785D01*
X1068695Y43351678D01*
X1321575Y43233132D01*
X1589041Y43152664D01*
X1865346Y43112001D01*
X1865349Y43112000D01*
X2370000Y43112000D01*
X2370000Y44370000D01*
X3640000Y44370000D01*
X3640000Y43112000D01*
X4074737Y43112000D01*
X4283546Y43127283D01*
X4556167Y43188012D01*
X4556169Y43188013D01*
X4817030Y43287784D01*
X5060582Y43424472D01*
X5060586Y43424474D01*
X5281651Y43595175D01*
X5281652Y43595176D01*
X5475499Y43796237D01*
X5638014Y44023391D01*
X5765716Y44271773D01*
X5804344Y44385000D01*
X4164632Y44385000D01*
X4167933Y44385417D01*
X4320629Y44445874D01*
X4453492Y44542405D01*
X4558175Y44668945D01*
X4628100Y44817543D01*
X4658873Y44978862D01*
X4648561Y45142766D01*
X4597812Y45298956D01*
X4509814Y45437619D01*
X4390097Y45550040D01*
X4246183Y45629158D01*
X4145535Y45655000D01*
X5808288Y45655000D01*
X5808287Y45655001D01*
X5706402Y45894756D01*
X5560910Y46133154D01*
X5560905Y46133160D01*
X5382251Y46347835D01*
X5382247Y46347839D01*
X5174249Y46534207D01*
X5174236Y46534216D01*
X4941304Y46688323D01*
X4688424Y46806869D01*
X4420958Y46887337D01*
X4144652Y46928000D01*
X3640000Y46928000D01*
X3640000Y45670000D01*
X2370000Y45670000D01*
X2370000Y46928000D01*
X1935263Y46928000D01*
X1726453Y46912718D01*
X1453832Y46851989D01*
X1453830Y46851988D01*
X1192969Y46752217D01*
X949417Y46615529D01*
X949413Y46615527D01*
X728348Y46444826D01*
X728347Y46444825D01*
X598208Y46309842D01*
X536527Y46274684D01*
X465631Y46278455D01*
X408028Y46319956D01*
X382006Y46386012D01*
X381500Y46397295D01*
X381500Y49492500D01*
X401502Y49560621D01*
X455158Y49607114D01*
X507500Y49618500D01*
X30492500Y49618500D01*
X30560621Y49598498D01*
G37*
%TD.AperFunction*%
M02*
