%TF.GenerationSoftware,KiCad,Pcbnew,7.0.11-7.0.11~ubuntu22.04.1*%
%TF.CreationDate,2024-09-13T11:34:55+03:00*%
%TF.ProjectId,RVPC_Rev_B,52565043-5f52-4657-965f-422e6b696361,B*%
%TF.SameCoordinates,PX7bfa480PY7270e00*%
%TF.FileFunction,Legend,Top*%
%TF.FilePolarity,Positive*%
%FSLAX46Y46*%
G04 Gerber Fmt 4.6, Leading zero omitted, Abs format (unit mm)*
G04 Created by KiCad (PCBNEW 7.0.11-7.0.11~ubuntu22.04.1) date 2024-09-13 11:34:55*
%MOMM*%
%LPD*%
G01*
G04 APERTURE LIST*
%ADD10C,0.254000*%
%ADD11C,0.444500*%
%ADD12C,0.317500*%
%ADD13C,0.190500*%
%ADD14C,0.381000*%
%ADD15C,0.203200*%
%ADD16C,0.127000*%
%ADD17C,0.762000*%
G04 APERTURE END LIST*
D10*
X23500000Y38500000D02*
X24100000Y38200000D01*
X23500000Y36000000D02*
X24100000Y35700000D01*
X23500000Y38500000D02*
X25000000Y38500000D01*
X24700000Y36000000D02*
X25900000Y34800000D01*
X23500000Y36000000D02*
X24100000Y36300000D01*
X23500000Y36000000D02*
X24700000Y36000000D01*
X25500000Y35200000D02*
X25500000Y34900000D01*
X25000000Y38500000D02*
X25700000Y39200000D01*
X25400000Y38900000D02*
X25400000Y39100000D01*
X23500000Y38500000D02*
X24100000Y38800000D01*
D11*
G36*
X4330780Y20251385D02*
G01*
X4364443Y20217722D01*
X4409517Y20127575D01*
X4409517Y19978506D01*
X4364443Y19888359D01*
X4330780Y19854696D01*
X4240635Y19809623D01*
X3838017Y19809623D01*
X3838017Y20296457D01*
X4240635Y20296457D01*
X4330780Y20251385D01*
G37*
G36*
X7632780Y20251385D02*
G01*
X7666443Y20217722D01*
X7711517Y20127575D01*
X7711517Y19978506D01*
X7666443Y19888359D01*
X7632780Y19854696D01*
X7542635Y19809623D01*
X7140017Y19809623D01*
X7140017Y20296457D01*
X7542635Y20296457D01*
X7632780Y20251385D01*
G37*
G36*
X10187712Y18264457D02*
G01*
X3139517Y18264457D01*
X3139517Y18740707D01*
X3393517Y18740707D01*
X3412732Y18650310D01*
X3467053Y18575543D01*
X3547088Y18529335D01*
X3638998Y18519675D01*
X3726892Y18548233D01*
X3795571Y18610072D01*
X3833160Y18694499D01*
X3838017Y18740707D01*
X3838017Y19365123D01*
X3923385Y19365123D01*
X4449693Y18613255D01*
X4517274Y18550218D01*
X4604651Y18520117D01*
X4696717Y18528160D01*
X4777552Y18572953D01*
X4833181Y18646752D01*
X4853982Y18736798D01*
X4836361Y18827519D01*
X4813841Y18868159D01*
X4434750Y19409716D01*
X4561827Y19473253D01*
X4571699Y19481125D01*
X4583481Y19485647D01*
X4619589Y19514886D01*
X4704256Y19599554D01*
X4711130Y19610141D01*
X4720877Y19618156D01*
X4745886Y19657313D01*
X4830553Y19826646D01*
X4837662Y19854008D01*
X4849160Y19879832D01*
X4852412Y19910777D01*
X4853794Y19916093D01*
X4853290Y19919126D01*
X4854017Y19926040D01*
X4854017Y20180040D01*
X4848139Y20207693D01*
X4846874Y20235932D01*
X4835943Y20265066D01*
X4834802Y20270437D01*
X4832995Y20272924D01*
X4830553Y20279434D01*
X4745886Y20448767D01*
X4738017Y20458636D01*
X4733495Y20470418D01*
X4714563Y20493798D01*
X4918918Y20493798D01*
X4928922Y20448425D01*
X5521589Y18670425D01*
X5532576Y18651724D01*
X5539122Y18631046D01*
X5555726Y18612322D01*
X5568404Y18590743D01*
X5586048Y18578128D01*
X5600438Y18561900D01*
X5623221Y18551548D01*
X5643581Y18536991D01*
X5664830Y18532643D01*
X5684576Y18523671D01*
X5709600Y18523481D01*
X5734121Y18518463D01*
X5755302Y18523134D01*
X5776991Y18522969D01*
X5799932Y18532976D01*
X5824369Y18538364D01*
X5841817Y18551245D01*
X5861701Y18559917D01*
X5878587Y18578389D01*
X5898722Y18593251D01*
X5909425Y18612119D01*
X5924059Y18628125D01*
X5943279Y18670425D01*
X5966706Y18740707D01*
X6695517Y18740707D01*
X6714732Y18650310D01*
X6769053Y18575543D01*
X6849088Y18529335D01*
X6940998Y18519675D01*
X7028892Y18548233D01*
X7097571Y18610072D01*
X7135160Y18694499D01*
X7140017Y18740707D01*
X7140017Y19365123D01*
X7595100Y19365123D01*
X7622752Y19371001D01*
X7650991Y19372266D01*
X7680122Y19383196D01*
X7685497Y19384338D01*
X7687984Y19386146D01*
X7694493Y19388587D01*
X7863827Y19473253D01*
X7873699Y19481125D01*
X7885481Y19485647D01*
X7906549Y19502707D01*
X8388850Y19502707D01*
X8389686Y19498771D01*
X8388991Y19494810D01*
X8395486Y19448803D01*
X8480153Y19110136D01*
X8480613Y19109195D01*
X8480660Y19108148D01*
X8496981Y19064646D01*
X8581648Y18895314D01*
X8589516Y18885445D01*
X8594040Y18873661D01*
X8623279Y18837553D01*
X8792612Y18668219D01*
X8816322Y18652821D01*
X8837185Y18633748D01*
X8865509Y18620879D01*
X8870119Y18617885D01*
X8873156Y18617404D01*
X8879486Y18614528D01*
X9133486Y18529862D01*
X9146029Y18528448D01*
X9157559Y18523314D01*
X9203767Y18518457D01*
X9373100Y18518457D01*
X9385448Y18521082D01*
X9398008Y18519858D01*
X9443381Y18529862D01*
X9697381Y18614528D01*
X9721754Y18628848D01*
X9748146Y18638979D01*
X9772326Y18658561D01*
X9777063Y18661343D01*
X9778851Y18663844D01*
X9784254Y18668219D01*
X9868921Y18752885D01*
X9919255Y18830393D01*
X9933712Y18921672D01*
X9909793Y19010939D01*
X9851633Y19082760D01*
X9769289Y19124717D01*
X9676999Y19129553D01*
X9590721Y19096434D01*
X9554612Y19067194D01*
X9507045Y19019627D01*
X9337034Y18962957D01*
X9239833Y18962957D01*
X9069822Y19019627D01*
X8963090Y19126359D01*
X8905463Y19241613D01*
X8833350Y19530068D01*
X8833350Y19729347D01*
X8905464Y20017803D01*
X8963091Y20133056D01*
X9069820Y20239786D01*
X9239834Y20296457D01*
X9337033Y20296457D01*
X9507045Y20239786D01*
X9554612Y20192219D01*
X9632120Y20141885D01*
X9723399Y20127428D01*
X9812666Y20151347D01*
X9884487Y20209507D01*
X9926444Y20291851D01*
X9931280Y20384141D01*
X9898161Y20470419D01*
X9868921Y20506528D01*
X9784254Y20591194D01*
X9760548Y20606589D01*
X9739683Y20625665D01*
X9711351Y20638538D01*
X9706747Y20641528D01*
X9703712Y20642009D01*
X9697382Y20644885D01*
X9443382Y20729552D01*
X9430837Y20730967D01*
X9419308Y20736100D01*
X9373100Y20740957D01*
X9203767Y20740957D01*
X9191418Y20738333D01*
X9178858Y20739556D01*
X9133485Y20729552D01*
X8879485Y20644885D01*
X8855109Y20630565D01*
X8828721Y20620434D01*
X8804543Y20600855D01*
X8799803Y20598070D01*
X8798013Y20595568D01*
X8792613Y20591194D01*
X8623280Y20421861D01*
X8616405Y20411276D01*
X8606657Y20403258D01*
X8581647Y20364100D01*
X8496981Y20194766D01*
X8496717Y20193753D01*
X8496072Y20192927D01*
X8480153Y20149277D01*
X8395486Y19810611D01*
X8395343Y19806590D01*
X8393707Y19802915D01*
X8388850Y19756707D01*
X8388850Y19502707D01*
X7906549Y19502707D01*
X7921589Y19514886D01*
X8006256Y19599554D01*
X8013130Y19610141D01*
X8022877Y19618156D01*
X8047886Y19657313D01*
X8132553Y19826646D01*
X8139662Y19854008D01*
X8151160Y19879832D01*
X8154412Y19910777D01*
X8155794Y19916093D01*
X8155290Y19919126D01*
X8156017Y19926040D01*
X8156017Y20180040D01*
X8150139Y20207693D01*
X8148874Y20235932D01*
X8137943Y20265066D01*
X8136802Y20270437D01*
X8134995Y20272924D01*
X8132553Y20279434D01*
X8047886Y20448767D01*
X8040017Y20458636D01*
X8035495Y20470418D01*
X8006256Y20506526D01*
X7921589Y20591194D01*
X7911001Y20598070D01*
X7902985Y20607817D01*
X7863827Y20632827D01*
X7694493Y20717493D01*
X7667133Y20724602D01*
X7641308Y20736100D01*
X7610361Y20739353D01*
X7605046Y20740734D01*
X7602014Y20740231D01*
X7595100Y20740957D01*
X6917767Y20740957D01*
X6906246Y20738509D01*
X6894536Y20739739D01*
X6861425Y20728981D01*
X6827370Y20721742D01*
X6817843Y20714821D01*
X6806642Y20711181D01*
X6780768Y20687885D01*
X6752603Y20667421D01*
X6746714Y20657223D01*
X6737963Y20649342D01*
X6723802Y20617538D01*
X6706395Y20587386D01*
X6705163Y20575674D01*
X6700374Y20564915D01*
X6695517Y20518707D01*
X6695517Y18740707D01*
X5966706Y18740707D01*
X6535945Y20448425D01*
X6546302Y20540260D01*
X6518412Y20628368D01*
X6457096Y20697514D01*
X6372957Y20735742D01*
X6280543Y20736444D01*
X6195833Y20699497D01*
X6133475Y20631289D01*
X6114255Y20588988D01*
X5732433Y19443524D01*
X5350612Y20588989D01*
X5303797Y20668670D01*
X5228620Y20722423D01*
X5138080Y20740950D01*
X5047832Y20721050D01*
X4973479Y20666163D01*
X4927880Y20585779D01*
X4918918Y20493798D01*
X4714563Y20493798D01*
X4704256Y20506526D01*
X4619589Y20591194D01*
X4609001Y20598070D01*
X4600985Y20607817D01*
X4561827Y20632827D01*
X4392493Y20717493D01*
X4365133Y20724602D01*
X4339308Y20736100D01*
X4308361Y20739353D01*
X4303046Y20740734D01*
X4300014Y20740231D01*
X4293100Y20740957D01*
X3615767Y20740957D01*
X3604246Y20738509D01*
X3592536Y20739739D01*
X3559425Y20728981D01*
X3525370Y20721742D01*
X3515843Y20714821D01*
X3504642Y20711181D01*
X3478768Y20687885D01*
X3450603Y20667421D01*
X3444714Y20657223D01*
X3435963Y20649342D01*
X3421802Y20617538D01*
X3404395Y20587386D01*
X3403163Y20575674D01*
X3398374Y20564915D01*
X3393517Y20518707D01*
X3393517Y18740707D01*
X3139517Y18740707D01*
X3139517Y20994957D01*
X10187712Y20994957D01*
X10187712Y18264457D01*
G37*
D10*
G36*
X25195167Y19286833D02*
G01*
X24998061Y19352534D01*
X25195167Y19418236D01*
X25195167Y19286833D01*
G37*
G36*
X25883873Y18745655D02*
G01*
X24325031Y18745655D01*
X24325031Y19366053D01*
X24470174Y19366053D01*
X24475758Y19335180D01*
X24479098Y19303986D01*
X24482067Y19300298D01*
X24482911Y19295635D01*
X24504301Y19272681D01*
X24523974Y19248246D01*
X24529786Y19245334D01*
X24531697Y19243283D01*
X24536132Y19242154D01*
X24556291Y19232051D01*
X25572291Y18893384D01*
X25643804Y18890798D01*
X25705363Y18927285D01*
X25737423Y18991261D01*
X25729806Y19062415D01*
X25684930Y19118155D01*
X25652613Y19134350D01*
X25449167Y19202166D01*
X25449167Y19502903D01*
X25652613Y19570718D01*
X25711375Y19611557D01*
X25738730Y19677682D01*
X25725992Y19748100D01*
X25677207Y19800452D01*
X25607861Y19818118D01*
X25572291Y19811684D01*
X24556291Y19473017D01*
X24530524Y19455110D01*
X24503541Y19439116D01*
X24501418Y19434882D01*
X24497529Y19432178D01*
X24485537Y19403191D01*
X24471480Y19375140D01*
X24471984Y19370430D01*
X24470174Y19366053D01*
X24325031Y19366053D01*
X24325031Y19963261D01*
X25883873Y19963261D01*
X25883873Y18745655D01*
G37*
G36*
X27307834Y40244165D02*
G01*
X27368825Y40183175D01*
X27401754Y40117317D01*
X27442962Y39952485D01*
X27442962Y39838610D01*
X27401754Y39673778D01*
X27368825Y39607921D01*
X27307834Y39546930D01*
X27210686Y39514548D01*
X27116390Y39514548D01*
X27116390Y40276548D01*
X27210685Y40276548D01*
X27307834Y40244165D01*
G37*
G36*
X27842105Y39115405D02*
G01*
X24588485Y39115405D01*
X24588485Y39822976D01*
X24733628Y39822976D01*
X24734600Y39819664D01*
X24737420Y39792174D01*
X24785801Y39598650D01*
X24788053Y39594811D01*
X24795417Y39572656D01*
X24843798Y39475894D01*
X24845418Y39474152D01*
X24845925Y39471825D01*
X24867587Y39442887D01*
X24964349Y39346126D01*
X24974453Y39340609D01*
X24981675Y39331639D01*
X25013992Y39315445D01*
X25159135Y39267065D01*
X25161512Y39266980D01*
X25163515Y39265692D01*
X25199295Y39260548D01*
X25296057Y39260548D01*
X25298340Y39261219D01*
X25300647Y39260631D01*
X25336217Y39267065D01*
X25481360Y39315445D01*
X25490814Y39322016D01*
X25502065Y39324463D01*
X25531003Y39346125D01*
X25572426Y39387548D01*
X25798009Y39387548D01*
X25818170Y39318887D01*
X25872251Y39272025D01*
X25943083Y39261841D01*
X26008176Y39291568D01*
X26046865Y39351768D01*
X26052009Y39387548D01*
X26052009Y39925322D01*
X26395314Y39324539D01*
X26397778Y39322168D01*
X26398742Y39318887D01*
X26423388Y39297531D01*
X26446884Y39274927D01*
X26450237Y39274266D01*
X26452823Y39272025D01*
X26485105Y39267384D01*
X26517090Y39261071D01*
X26520270Y39262328D01*
X26523655Y39261841D01*
X26553316Y39275388D01*
X26583642Y39287371D01*
X26585637Y39290148D01*
X26588748Y39291568D01*
X26606383Y39319010D01*
X26625409Y39345477D01*
X26625586Y39348890D01*
X26627437Y39351768D01*
X26632581Y39387548D01*
X26862390Y39387548D01*
X26865002Y39378651D01*
X26863683Y39369474D01*
X26874925Y39344856D01*
X26882551Y39318887D01*
X26889558Y39312816D01*
X26893410Y39304381D01*
X26916178Y39289749D01*
X26936632Y39272025D01*
X26945808Y39270706D01*
X26953610Y39265692D01*
X26989390Y39260548D01*
X27231295Y39260548D01*
X27233578Y39261219D01*
X27235885Y39260631D01*
X27271455Y39267065D01*
X27416598Y39315445D01*
X27426052Y39322016D01*
X27437303Y39324463D01*
X27466241Y39346125D01*
X27563002Y39442887D01*
X27564142Y39444977D01*
X27566190Y39446192D01*
X27586792Y39475894D01*
X27635173Y39572656D01*
X27635961Y39577037D01*
X27644789Y39598650D01*
X27693170Y39792174D01*
X27693029Y39795625D01*
X27696962Y39822976D01*
X27696962Y39968119D01*
X27695989Y39971432D01*
X27693170Y39998921D01*
X27644789Y40192445D01*
X27642536Y40196285D01*
X27635173Y40218439D01*
X27586792Y40315201D01*
X27585171Y40316944D01*
X27584665Y40319270D01*
X27563002Y40348208D01*
X27466241Y40444970D01*
X27456135Y40450488D01*
X27448916Y40459455D01*
X27416599Y40475650D01*
X27271456Y40524031D01*
X27269077Y40524118D01*
X27267075Y40525404D01*
X27231295Y40530548D01*
X26989390Y40530548D01*
X26980492Y40527936D01*
X26971316Y40529255D01*
X26946697Y40518013D01*
X26920729Y40510387D01*
X26914657Y40503380D01*
X26906223Y40499528D01*
X26891590Y40476760D01*
X26873867Y40456306D01*
X26872547Y40447130D01*
X26867534Y40439328D01*
X26862390Y40403548D01*
X26862390Y39387548D01*
X26632581Y39387548D01*
X26632581Y40403548D01*
X26612420Y40472209D01*
X26558339Y40519071D01*
X26487507Y40529255D01*
X26422414Y40499528D01*
X26383725Y40439328D01*
X26378581Y40403548D01*
X26378581Y39865775D01*
X26035276Y40466558D01*
X26032811Y40468930D01*
X26031848Y40472209D01*
X26007206Y40493562D01*
X25983706Y40516169D01*
X25980352Y40516831D01*
X25977767Y40519071D01*
X25945484Y40523713D01*
X25913500Y40530025D01*
X25910319Y40528769D01*
X25906935Y40529255D01*
X25877273Y40515709D01*
X25846948Y40503725D01*
X25844951Y40500949D01*
X25841842Y40499528D01*
X25824214Y40472100D01*
X25805180Y40445620D01*
X25805002Y40442206D01*
X25803153Y40439328D01*
X25798009Y40403548D01*
X25798009Y39387548D01*
X25572426Y39387548D01*
X25579384Y39394506D01*
X25594446Y39422092D01*
X25611437Y39448529D01*
X25612350Y39454882D01*
X25613678Y39457313D01*
X25613353Y39461857D01*
X25616581Y39484309D01*
X25616581Y39822976D01*
X25613968Y39831874D01*
X25615288Y39841050D01*
X25604045Y39865669D01*
X25596420Y39891637D01*
X25589412Y39897709D01*
X25585561Y39906143D01*
X25562792Y39920776D01*
X25542339Y39938499D01*
X25533162Y39939819D01*
X25525361Y39944832D01*
X25489581Y39949976D01*
X25296057Y39949976D01*
X25227396Y39929815D01*
X25180534Y39875734D01*
X25170350Y39804902D01*
X25200077Y39739809D01*
X25260277Y39701120D01*
X25296057Y39695976D01*
X25362581Y39695976D01*
X25362581Y39543592D01*
X25275448Y39514548D01*
X25219904Y39514548D01*
X25122755Y39546931D01*
X25061764Y39607922D01*
X25028836Y39673778D01*
X24987628Y39838610D01*
X24987628Y39952485D01*
X25028836Y40117317D01*
X25061764Y40183174D01*
X25122754Y40244165D01*
X25219905Y40276548D01*
X25314458Y40276548D01*
X25384404Y40241575D01*
X25454832Y40228901D01*
X25520933Y40256315D01*
X25561719Y40315115D01*
X25564240Y40386630D01*
X25527698Y40448157D01*
X25497996Y40468759D01*
X25401234Y40517140D01*
X25389904Y40519179D01*
X25380218Y40525404D01*
X25344438Y40530548D01*
X25199295Y40530548D01*
X25197010Y40529878D01*
X25194704Y40530465D01*
X25159134Y40524031D01*
X25013991Y40475650D01*
X25004536Y40469080D01*
X24993287Y40466632D01*
X24964349Y40444969D01*
X24867587Y40348208D01*
X24866445Y40346119D01*
X24864400Y40344903D01*
X24843798Y40315201D01*
X24795417Y40218439D01*
X24794628Y40214059D01*
X24785801Y40192445D01*
X24737420Y39998921D01*
X24737560Y39995471D01*
X24733628Y39968119D01*
X24733628Y39822976D01*
X24588485Y39822976D01*
X24588485Y40675691D01*
X27842105Y40675691D01*
X27842105Y39115405D01*
G37*
G36*
X25317587Y34500793D02*
G01*
X25336826Y34481554D01*
X25362581Y34430044D01*
X25362581Y34344861D01*
X25336826Y34293351D01*
X25317587Y34274112D01*
X25266077Y34248357D01*
X25036009Y34248357D01*
X25036009Y34526548D01*
X25266077Y34526548D01*
X25317587Y34500793D01*
G37*
G36*
X27890486Y33365405D02*
G01*
X24636866Y33365405D01*
X24636866Y33637548D01*
X24782009Y33637548D01*
X24802170Y33568887D01*
X24856251Y33522025D01*
X24927083Y33511841D01*
X24992176Y33541568D01*
X25030865Y33601768D01*
X25036009Y33637548D01*
X25036009Y33994357D01*
X25296057Y33994357D01*
X25307102Y33997601D01*
X25318550Y33996364D01*
X25352853Y34007765D01*
X25449615Y34056146D01*
X25451357Y34057767D01*
X25453684Y34058273D01*
X25473326Y34072976D01*
X25749628Y34072976D01*
X25750600Y34069664D01*
X25753420Y34042174D01*
X25801801Y33848650D01*
X25804053Y33844811D01*
X25811417Y33822656D01*
X25859798Y33725894D01*
X25861418Y33724152D01*
X25861925Y33721825D01*
X25883587Y33692887D01*
X25980349Y33596126D01*
X25990453Y33590609D01*
X25997675Y33581639D01*
X26029992Y33565445D01*
X26175135Y33517065D01*
X26177512Y33516980D01*
X26179515Y33515692D01*
X26215295Y33510548D01*
X26312057Y33510548D01*
X26314340Y33511219D01*
X26316647Y33510631D01*
X26352217Y33517065D01*
X26497360Y33565445D01*
X26506814Y33572016D01*
X26518065Y33574463D01*
X26547003Y33596125D01*
X26588426Y33637548D01*
X26814009Y33637548D01*
X26834170Y33568887D01*
X26888251Y33522025D01*
X26959083Y33511841D01*
X27024176Y33541568D01*
X27062865Y33601768D01*
X27068009Y33637548D01*
X27068009Y34081089D01*
X27164591Y33874127D01*
X27175984Y33861195D01*
X27183015Y33845459D01*
X27199149Y33834902D01*
X27211896Y33820433D01*
X27228473Y33815714D01*
X27242895Y33806276D01*
X27262175Y33806118D01*
X27280721Y33800837D01*
X27297217Y33805829D01*
X27314452Y33805687D01*
X27330759Y33815979D01*
X27349214Y33821563D01*
X27360391Y33834680D01*
X27374969Y33843879D01*
X27394761Y33874127D01*
X27491343Y34081089D01*
X27491343Y33637548D01*
X27511504Y33568887D01*
X27565585Y33522025D01*
X27636417Y33511841D01*
X27701510Y33541568D01*
X27740199Y33601768D01*
X27745343Y33637548D01*
X27745343Y34653548D01*
X27742878Y34661942D01*
X27744194Y34670587D01*
X27732949Y34695755D01*
X27725182Y34722209D01*
X27718571Y34727938D01*
X27715004Y34735922D01*
X27691937Y34751016D01*
X27671101Y34769071D01*
X27662442Y34770316D01*
X27655124Y34775105D01*
X27627554Y34775332D01*
X27600269Y34779255D01*
X27592313Y34775623D01*
X27583567Y34775694D01*
X27560250Y34760980D01*
X27535176Y34749528D01*
X27530447Y34742171D01*
X27523050Y34737502D01*
X27503258Y34707254D01*
X27279676Y34228150D01*
X27056094Y34707254D01*
X27050312Y34713817D01*
X27047848Y34722209D01*
X27027012Y34740264D01*
X27008789Y34760948D01*
X27000377Y34763343D01*
X26993767Y34769071D01*
X26966480Y34772995D01*
X26939964Y34780544D01*
X26931591Y34778011D01*
X26922935Y34779255D01*
X26897858Y34767803D01*
X26871471Y34759818D01*
X26865798Y34753162D01*
X26857842Y34749528D01*
X26842935Y34726334D01*
X26825056Y34705353D01*
X26823882Y34696688D01*
X26819153Y34689328D01*
X26814009Y34653548D01*
X26814009Y33637548D01*
X26588426Y33637548D01*
X26595384Y33644506D01*
X26610446Y33672092D01*
X26627437Y33698529D01*
X26628350Y33704882D01*
X26629678Y33707313D01*
X26629353Y33711857D01*
X26632581Y33734309D01*
X26632581Y34072976D01*
X26629968Y34081874D01*
X26631288Y34091050D01*
X26620045Y34115669D01*
X26612420Y34141637D01*
X26605412Y34147709D01*
X26601561Y34156143D01*
X26578792Y34170776D01*
X26558339Y34188499D01*
X26549162Y34189819D01*
X26541361Y34194832D01*
X26505581Y34199976D01*
X26312057Y34199976D01*
X26243396Y34179815D01*
X26196534Y34125734D01*
X26186350Y34054902D01*
X26216077Y33989809D01*
X26276277Y33951120D01*
X26312057Y33945976D01*
X26378581Y33945976D01*
X26378581Y33793592D01*
X26291448Y33764548D01*
X26235904Y33764548D01*
X26138755Y33796931D01*
X26077764Y33857922D01*
X26044836Y33923778D01*
X26003628Y34088610D01*
X26003628Y34202485D01*
X26044836Y34367317D01*
X26077764Y34433174D01*
X26138754Y34494165D01*
X26235905Y34526548D01*
X26330458Y34526548D01*
X26400404Y34491575D01*
X26470832Y34478901D01*
X26536933Y34506315D01*
X26577719Y34565115D01*
X26580240Y34636630D01*
X26543698Y34698157D01*
X26513996Y34718759D01*
X26417234Y34767140D01*
X26405904Y34769179D01*
X26396218Y34775404D01*
X26360438Y34780548D01*
X26215295Y34780548D01*
X26213010Y34779878D01*
X26210704Y34780465D01*
X26175134Y34774031D01*
X26029991Y34725650D01*
X26020536Y34719080D01*
X26009287Y34716632D01*
X25980349Y34694969D01*
X25883587Y34598208D01*
X25882445Y34596119D01*
X25880400Y34594903D01*
X25859798Y34565201D01*
X25811417Y34468439D01*
X25810628Y34464059D01*
X25801801Y34442445D01*
X25753420Y34248921D01*
X25753560Y34245471D01*
X25749628Y34218119D01*
X25749628Y34072976D01*
X25473326Y34072976D01*
X25482622Y34079935D01*
X25531003Y34128316D01*
X25532144Y34130406D01*
X25534190Y34131621D01*
X25554792Y34161323D01*
X25603173Y34258085D01*
X25605211Y34269415D01*
X25611437Y34279101D01*
X25616581Y34314881D01*
X25616581Y34460024D01*
X25613337Y34471070D01*
X25614574Y34482517D01*
X25603173Y34516820D01*
X25554792Y34613582D01*
X25553171Y34615325D01*
X25552665Y34617651D01*
X25531003Y34646589D01*
X25482622Y34694970D01*
X25480532Y34696112D01*
X25479317Y34698157D01*
X25449615Y34718759D01*
X25352853Y34767140D01*
X25341523Y34769179D01*
X25331837Y34775404D01*
X25296057Y34780548D01*
X24909009Y34780548D01*
X24900111Y34777936D01*
X24890935Y34779255D01*
X24866316Y34768013D01*
X24840348Y34760387D01*
X24834276Y34753380D01*
X24825842Y34749528D01*
X24811209Y34726760D01*
X24793486Y34706306D01*
X24792166Y34697130D01*
X24787153Y34689328D01*
X24782009Y34653548D01*
X24782009Y33637548D01*
X24636866Y33637548D01*
X24636866Y34925691D01*
X27890486Y34925691D01*
X27890486Y33365405D01*
G37*
G36*
X13758846Y21366698D02*
G01*
X12636866Y21366698D01*
X12636866Y21637548D01*
X12782009Y21637548D01*
X12802170Y21568887D01*
X12856251Y21522025D01*
X12927083Y21511841D01*
X12992176Y21541568D01*
X13030865Y21601768D01*
X13036009Y21637548D01*
X13036009Y22020371D01*
X13040411Y22024773D01*
X13387981Y21561348D01*
X13445306Y21518516D01*
X13516688Y21513475D01*
X13579464Y21547827D01*
X13613703Y21610664D01*
X13608534Y21682038D01*
X13591181Y21713748D01*
X13221840Y22206202D01*
X13579384Y22563746D01*
X13613678Y22626552D01*
X13608574Y22697930D01*
X13565689Y22755217D01*
X13498641Y22780224D01*
X13428716Y22765014D01*
X13399779Y22743351D01*
X13036009Y22379582D01*
X13036009Y22653548D01*
X13015848Y22722209D01*
X12961767Y22769071D01*
X12890935Y22779255D01*
X12825842Y22749528D01*
X12787153Y22689328D01*
X12782009Y22653548D01*
X12782009Y21637548D01*
X12636866Y21637548D01*
X12636866Y22925367D01*
X13758846Y22925367D01*
X13758846Y21366698D01*
G37*
G36*
X13268235Y29454833D02*
G01*
X13136831Y29454833D01*
X13202533Y29651939D01*
X13268235Y29454833D01*
G37*
G36*
X13813260Y28766127D02*
G01*
X12595654Y28766127D01*
X12595654Y29006196D01*
X12740797Y29006196D01*
X12777284Y28944637D01*
X12841260Y28912576D01*
X12912414Y28920194D01*
X12968154Y28965070D01*
X12984349Y28997387D01*
X13052164Y29200833D01*
X13352902Y29200833D01*
X13420717Y28997387D01*
X13461556Y28938625D01*
X13527681Y28911270D01*
X13598099Y28924008D01*
X13650451Y28972793D01*
X13668117Y29042139D01*
X13661683Y29077709D01*
X13323016Y30093709D01*
X13305108Y30119476D01*
X13289115Y30146459D01*
X13284880Y30148582D01*
X13282177Y30152471D01*
X13253183Y30164466D01*
X13225139Y30178519D01*
X13220429Y30178015D01*
X13216052Y30179826D01*
X13185172Y30174241D01*
X13153985Y30170902D01*
X13150296Y30167933D01*
X13145634Y30167089D01*
X13122679Y30145699D01*
X13098245Y30126026D01*
X13095332Y30120214D01*
X13093282Y30118303D01*
X13092152Y30113868D01*
X13082050Y30093709D01*
X12743383Y29077709D01*
X12740797Y29006196D01*
X12595654Y29006196D01*
X12595654Y30324969D01*
X13813260Y30324969D01*
X13813260Y28766127D01*
G37*
G36*
X7539478Y17173300D02*
G01*
X7328628Y17131130D01*
X7328628Y17139758D01*
X7344669Y17171840D01*
X7376751Y17187881D01*
X7510315Y17187881D01*
X7539478Y17173300D01*
G37*
G36*
X9793977Y17010355D02*
G01*
X9806588Y16997744D01*
X9832343Y16946234D01*
X9832343Y16861051D01*
X9806588Y16809541D01*
X9787350Y16790304D01*
X9735839Y16764548D01*
X9505771Y16764548D01*
X9505771Y17042738D01*
X9696828Y17042738D01*
X9793977Y17010355D01*
G37*
G36*
X9738968Y17500793D02*
G01*
X9758207Y17481554D01*
X9783962Y17430044D01*
X9783962Y17393242D01*
X9758207Y17341732D01*
X9738968Y17322493D01*
X9687458Y17296738D01*
X9505771Y17296738D01*
X9505771Y17526548D01*
X9687458Y17526548D01*
X9738968Y17500793D01*
G37*
G36*
X6642587Y17500793D02*
G01*
X6661826Y17481554D01*
X6687581Y17430044D01*
X6687581Y17344861D01*
X6661826Y17293351D01*
X6642587Y17274112D01*
X6591077Y17248357D01*
X6361009Y17248357D01*
X6361009Y17526548D01*
X6591077Y17526548D01*
X6642587Y17500793D01*
G37*
G36*
X10231486Y16365405D02*
G01*
X5961866Y16365405D01*
X5961866Y16637548D01*
X6107009Y16637548D01*
X6127170Y16568887D01*
X6181251Y16522025D01*
X6252083Y16511841D01*
X6317176Y16541568D01*
X6355865Y16601768D01*
X6361009Y16637548D01*
X6361009Y16994357D01*
X6409791Y16994357D01*
X6710539Y16564718D01*
X6766430Y16520030D01*
X6837608Y16512653D01*
X6901476Y16544929D01*
X6937755Y16606611D01*
X6934928Y16678115D01*
X6918624Y16710377D01*
X6868005Y16782690D01*
X7074628Y16782690D01*
X7077871Y16771645D01*
X7076635Y16760197D01*
X7088036Y16725894D01*
X7136417Y16629132D01*
X7151901Y16612486D01*
X7163512Y16592937D01*
X7182038Y16580087D01*
X7185155Y16576736D01*
X7187870Y16576042D01*
X7193214Y16572335D01*
X7289976Y16523955D01*
X7301306Y16521917D01*
X7310991Y16515692D01*
X7346771Y16510548D01*
X7540295Y16510548D01*
X7551339Y16513792D01*
X7562787Y16512555D01*
X7597090Y16523955D01*
X7693852Y16572335D01*
X7746249Y16621074D01*
X7763978Y16690402D01*
X7741411Y16758311D01*
X7685712Y16803238D01*
X7614565Y16810921D01*
X7580262Y16799521D01*
X7510315Y16764548D01*
X7376751Y16764548D01*
X7344668Y16780590D01*
X7328628Y16812670D01*
X7328628Y16872099D01*
X7710344Y16948442D01*
X7739086Y16963516D01*
X7768605Y16976996D01*
X7770543Y16980013D01*
X7773718Y16981677D01*
X7789744Y17009889D01*
X7807294Y17037196D01*
X7807984Y17041998D01*
X7809064Y17043898D01*
X7808841Y17047963D01*
X7812438Y17072976D01*
X7812438Y17169738D01*
X7809194Y17180784D01*
X7810431Y17192231D01*
X7799030Y17226534D01*
X7758501Y17307592D01*
X7897313Y17307592D01*
X7904503Y17272166D01*
X8146408Y16594834D01*
X8163328Y16571560D01*
X8177470Y16546500D01*
X8184086Y16543007D01*
X8188487Y16536953D01*
X8215308Y16526520D01*
X8240750Y16513086D01*
X8248204Y16513724D01*
X8255179Y16511011D01*
X8283380Y16516735D01*
X8312049Y16519188D01*
X8317976Y16523756D01*
X8325310Y16525244D01*
X8345935Y16545301D01*
X8368732Y16562868D01*
X8373725Y16572325D01*
X8376612Y16575132D01*
X8377714Y16579881D01*
X8385610Y16594833D01*
X8421379Y16694987D01*
X8719904Y16694987D01*
X8725656Y16668543D01*
X8727587Y16641546D01*
X8733143Y16634123D01*
X8735115Y16625062D01*
X8756778Y16596125D01*
X8805159Y16547745D01*
X8813296Y16543302D01*
X8818852Y16535880D01*
X8831777Y16531060D01*
X8842203Y16522025D01*
X8855859Y16520062D01*
X8867966Y16513451D01*
X8877212Y16514113D01*
X8885900Y16510872D01*
X8899380Y16513805D01*
X8913035Y16511841D01*
X8925583Y16517572D01*
X8939344Y16518556D01*
X8946764Y16524112D01*
X8955825Y16526082D01*
X8973982Y16539675D01*
X8978128Y16541568D01*
X8979626Y16543900D01*
X8984763Y16547745D01*
X9033143Y16596124D01*
X9037587Y16604264D01*
X9045010Y16609820D01*
X9054467Y16635176D01*
X9055762Y16637548D01*
X9251771Y16637548D01*
X9254383Y16628651D01*
X9253064Y16619474D01*
X9264306Y16594856D01*
X9271932Y16568887D01*
X9278939Y16562816D01*
X9282791Y16554381D01*
X9305559Y16539749D01*
X9326013Y16522025D01*
X9335189Y16520706D01*
X9342991Y16515692D01*
X9378771Y16510548D01*
X9765819Y16510548D01*
X9776863Y16513792D01*
X9788311Y16512555D01*
X9822614Y16523955D01*
X9919376Y16572335D01*
X9921119Y16573957D01*
X9923446Y16574463D01*
X9952384Y16596125D01*
X10000765Y16644506D01*
X10001906Y16646596D01*
X10003952Y16647811D01*
X10024554Y16677513D01*
X10072935Y16774275D01*
X10074973Y16785605D01*
X10081199Y16795291D01*
X10086343Y16831071D01*
X10086343Y16976214D01*
X10083099Y16987260D01*
X10084336Y16998707D01*
X10072935Y17033010D01*
X10024554Y17129772D01*
X10022933Y17131515D01*
X10022427Y17133841D01*
X10000765Y17162779D01*
X9967026Y17196518D01*
X9976173Y17209704D01*
X10024554Y17306466D01*
X10026592Y17317796D01*
X10032818Y17327482D01*
X10037962Y17363262D01*
X10037962Y17460024D01*
X10034718Y17471070D01*
X10035955Y17482517D01*
X10024554Y17516820D01*
X9976173Y17613582D01*
X9974552Y17615325D01*
X9974046Y17617651D01*
X9952384Y17646589D01*
X9904003Y17694970D01*
X9901913Y17696112D01*
X9900698Y17698157D01*
X9870996Y17718759D01*
X9774234Y17767140D01*
X9762904Y17769179D01*
X9753218Y17775404D01*
X9717438Y17780548D01*
X9378771Y17780548D01*
X9369873Y17777936D01*
X9360697Y17779255D01*
X9336078Y17768013D01*
X9310110Y17760387D01*
X9304038Y17753380D01*
X9295604Y17749528D01*
X9280971Y17726760D01*
X9263248Y17706306D01*
X9261928Y17697130D01*
X9256915Y17689328D01*
X9251771Y17653548D01*
X9251771Y16637548D01*
X9055762Y16637548D01*
X9067439Y16658931D01*
X9066777Y16668181D01*
X9070018Y16676868D01*
X9064265Y16703313D01*
X9062335Y16730308D01*
X9056778Y16737731D01*
X9054807Y16746793D01*
X9033145Y16775731D01*
X8984764Y16824112D01*
X8976623Y16828557D01*
X8971069Y16835977D01*
X8958145Y16840798D01*
X8947719Y16849832D01*
X8934064Y16851796D01*
X8921957Y16858406D01*
X8912708Y16857745D01*
X8904021Y16860985D01*
X8890541Y16858053D01*
X8876887Y16860016D01*
X8864340Y16854287D01*
X8850579Y16853302D01*
X8843155Y16847745D01*
X8834096Y16845774D01*
X8815937Y16832182D01*
X8811794Y16830289D01*
X8810296Y16827959D01*
X8805158Y16824112D01*
X8756777Y16775731D01*
X8752332Y16767591D01*
X8744911Y16762035D01*
X8735454Y16736681D01*
X8722483Y16712924D01*
X8723144Y16703675D01*
X8719904Y16694987D01*
X8421379Y16694987D01*
X8627515Y17272166D01*
X8631622Y17343608D01*
X8596453Y17405929D01*
X8533173Y17439343D01*
X8461874Y17433241D01*
X8405191Y17389561D01*
X8388313Y17357595D01*
X8266009Y17015146D01*
X8143705Y17357596D01*
X8101626Y17415476D01*
X8034934Y17441418D01*
X7964803Y17427186D01*
X7913501Y17377297D01*
X7897313Y17307592D01*
X7758501Y17307592D01*
X7750649Y17323296D01*
X7735164Y17339943D01*
X7723555Y17359490D01*
X7705028Y17372341D01*
X7701911Y17375692D01*
X7699195Y17376387D01*
X7693853Y17380092D01*
X7597091Y17428473D01*
X7585761Y17430512D01*
X7576075Y17436737D01*
X7540295Y17441881D01*
X7346771Y17441881D01*
X7335725Y17438638D01*
X7324278Y17439874D01*
X7289975Y17428473D01*
X7193213Y17380092D01*
X7176566Y17364608D01*
X7157019Y17352998D01*
X7144168Y17334472D01*
X7140817Y17331354D01*
X7140122Y17328639D01*
X7136417Y17323296D01*
X7088036Y17226534D01*
X7085997Y17215205D01*
X7079772Y17205518D01*
X7074628Y17169738D01*
X7074628Y16782690D01*
X6868005Y16782690D01*
X6702000Y17019839D01*
X6774615Y17056146D01*
X6776357Y17057767D01*
X6778684Y17058273D01*
X6807622Y17079935D01*
X6856003Y17128316D01*
X6857144Y17130406D01*
X6859190Y17131621D01*
X6879792Y17161323D01*
X6928173Y17258085D01*
X6930211Y17269415D01*
X6936437Y17279101D01*
X6941581Y17314881D01*
X6941581Y17460024D01*
X6938337Y17471070D01*
X6939574Y17482517D01*
X6928173Y17516820D01*
X6879792Y17613582D01*
X6878171Y17615325D01*
X6877665Y17617651D01*
X6856003Y17646589D01*
X6807622Y17694970D01*
X6805532Y17696112D01*
X6804317Y17698157D01*
X6774615Y17718759D01*
X6677853Y17767140D01*
X6666523Y17769179D01*
X6656837Y17775404D01*
X6621057Y17780548D01*
X6234009Y17780548D01*
X6225111Y17777936D01*
X6215935Y17779255D01*
X6191316Y17768013D01*
X6165348Y17760387D01*
X6159276Y17753380D01*
X6150842Y17749528D01*
X6136209Y17726760D01*
X6118486Y17706306D01*
X6117166Y17697130D01*
X6112153Y17689328D01*
X6107009Y17653548D01*
X6107009Y16637548D01*
X5961866Y16637548D01*
X5961866Y17925691D01*
X10231486Y17925691D01*
X10231486Y16365405D01*
G37*
G36*
X25883302Y25886867D02*
G01*
X24324633Y25886867D01*
X24324633Y26748642D01*
X24469776Y26748642D01*
X24484987Y26678717D01*
X24506649Y26649779D01*
X24870419Y26286010D01*
X24596452Y26286010D01*
X24527791Y26265849D01*
X24480929Y26211768D01*
X24470745Y26140936D01*
X24500472Y26075843D01*
X24560672Y26037154D01*
X24596452Y26032010D01*
X25612452Y26032010D01*
X25681113Y26052171D01*
X25727975Y26106252D01*
X25738159Y26177084D01*
X25708432Y26242177D01*
X25648232Y26280866D01*
X25612452Y26286010D01*
X25229629Y26286010D01*
X25225226Y26290413D01*
X25688652Y26637982D01*
X25731484Y26695307D01*
X25736525Y26766689D01*
X25702173Y26829465D01*
X25639336Y26863704D01*
X25567962Y26858535D01*
X25536252Y26841182D01*
X25043798Y26471842D01*
X24686255Y26829385D01*
X24623448Y26863679D01*
X24552070Y26858575D01*
X24494783Y26815690D01*
X24469776Y26748642D01*
X24324633Y26748642D01*
X24324633Y27008847D01*
X25883302Y27008847D01*
X25883302Y25886867D01*
G37*
X14174318Y25362619D02*
X12904318Y25362619D01*
X12904318Y25362619D02*
X12904318Y25665000D01*
X12904318Y25665000D02*
X12964794Y25846429D01*
X12964794Y25846429D02*
X13085746Y25967381D01*
X13085746Y25967381D02*
X13206699Y26027858D01*
X13206699Y26027858D02*
X13448603Y26088334D01*
X13448603Y26088334D02*
X13630032Y26088334D01*
X13630032Y26088334D02*
X13871937Y26027858D01*
X13871937Y26027858D02*
X13992889Y25967381D01*
X13992889Y25967381D02*
X14113842Y25846429D01*
X14113842Y25846429D02*
X14174318Y25665000D01*
X14174318Y25665000D02*
X14174318Y25362619D01*
X14174318Y27297858D02*
X14174318Y26572143D01*
X14174318Y26935000D02*
X12904318Y26935000D01*
X12904318Y26935000D02*
X13085746Y26814048D01*
X13085746Y26814048D02*
X13206699Y26693096D01*
X13206699Y26693096D02*
X13267175Y26572143D01*
X7504318Y36032382D02*
X7504318Y36758096D01*
X8774318Y36395239D02*
X7504318Y36395239D01*
X8774318Y37846668D02*
X8774318Y37120953D01*
X8774318Y37483810D02*
X7504318Y37483810D01*
X7504318Y37483810D02*
X7685746Y37362858D01*
X7685746Y37362858D02*
X7806699Y37241906D01*
X7806699Y37241906D02*
X7867175Y37120953D01*
G36*
X6482747Y33678793D02*
G01*
X4596896Y33678793D01*
X4596896Y34334041D01*
X4778325Y34334041D01*
X4778768Y34333025D01*
X4778611Y34331926D01*
X4793045Y34300318D01*
X4806954Y34268457D01*
X4808041Y34267483D01*
X4808338Y34266833D01*
X4809849Y34265862D01*
X4833871Y34244330D01*
X5004835Y34130354D01*
X5102323Y34032867D01*
X5153582Y33930348D01*
X5202321Y33877951D01*
X5271650Y33860222D01*
X5339558Y33882790D01*
X5384485Y33938489D01*
X5392168Y34009636D01*
X5380767Y34043939D01*
X5320291Y34164892D01*
X5318670Y34166635D01*
X5318164Y34168961D01*
X5296501Y34197899D01*
X5271400Y34223000D01*
X6047318Y34223000D01*
X6047318Y33987143D01*
X6067479Y33918482D01*
X6121560Y33871620D01*
X6192392Y33861436D01*
X6257485Y33891163D01*
X6296174Y33951363D01*
X6301318Y33987143D01*
X6301318Y34712858D01*
X6281157Y34781519D01*
X6227076Y34828381D01*
X6156244Y34838565D01*
X6091151Y34808838D01*
X6052462Y34748638D01*
X6047318Y34712858D01*
X6047318Y34477000D01*
X4904318Y34477000D01*
X4870977Y34467211D01*
X4837462Y34457978D01*
X4836721Y34457152D01*
X4835657Y34456839D01*
X4812888Y34430563D01*
X4789698Y34404691D01*
X4789521Y34403597D01*
X4788795Y34402758D01*
X4783847Y34368349D01*
X4778325Y34334041D01*
X4596896Y34334041D01*
X4596896Y35019994D01*
X6482747Y35019994D01*
X6482747Y33678793D01*
G37*
X25574318Y29288334D02*
X24969556Y28865000D01*
X25574318Y28562619D02*
X24304318Y28562619D01*
X24304318Y28562619D02*
X24304318Y29046429D01*
X24304318Y29046429D02*
X24364794Y29167381D01*
X24364794Y29167381D02*
X24425270Y29227858D01*
X24425270Y29227858D02*
X24546222Y29288334D01*
X24546222Y29288334D02*
X24727651Y29288334D01*
X24727651Y29288334D02*
X24848603Y29227858D01*
X24848603Y29227858D02*
X24909080Y29167381D01*
X24909080Y29167381D02*
X24969556Y29046429D01*
X24969556Y29046429D02*
X24969556Y28562619D01*
X25574318Y30497858D02*
X25574318Y29772143D01*
X25574318Y30135000D02*
X24304318Y30135000D01*
X24304318Y30135000D02*
X24485746Y30014048D01*
X24485746Y30014048D02*
X24606699Y29893096D01*
X24606699Y29893096D02*
X24667175Y29772143D01*
X19574318Y31688334D02*
X18969556Y31265000D01*
X19574318Y30962619D02*
X18304318Y30962619D01*
X18304318Y30962619D02*
X18304318Y31446429D01*
X18304318Y31446429D02*
X18364794Y31567381D01*
X18364794Y31567381D02*
X18425270Y31627858D01*
X18425270Y31627858D02*
X18546222Y31688334D01*
X18546222Y31688334D02*
X18727651Y31688334D01*
X18727651Y31688334D02*
X18848603Y31627858D01*
X18848603Y31627858D02*
X18909080Y31567381D01*
X18909080Y31567381D02*
X18969556Y31446429D01*
X18969556Y31446429D02*
X18969556Y30962619D01*
X18848603Y32414048D02*
X18788127Y32293096D01*
X18788127Y32293096D02*
X18727651Y32232619D01*
X18727651Y32232619D02*
X18606699Y32172143D01*
X18606699Y32172143D02*
X18546222Y32172143D01*
X18546222Y32172143D02*
X18425270Y32232619D01*
X18425270Y32232619D02*
X18364794Y32293096D01*
X18364794Y32293096D02*
X18304318Y32414048D01*
X18304318Y32414048D02*
X18304318Y32655953D01*
X18304318Y32655953D02*
X18364794Y32776905D01*
X18364794Y32776905D02*
X18425270Y32837381D01*
X18425270Y32837381D02*
X18546222Y32897858D01*
X18546222Y32897858D02*
X18606699Y32897858D01*
X18606699Y32897858D02*
X18727651Y32837381D01*
X18727651Y32837381D02*
X18788127Y32776905D01*
X18788127Y32776905D02*
X18848603Y32655953D01*
X18848603Y32655953D02*
X18848603Y32414048D01*
X18848603Y32414048D02*
X18909080Y32293096D01*
X18909080Y32293096D02*
X18969556Y32232619D01*
X18969556Y32232619D02*
X19090508Y32172143D01*
X19090508Y32172143D02*
X19332413Y32172143D01*
X19332413Y32172143D02*
X19453365Y32232619D01*
X19453365Y32232619D02*
X19513842Y32293096D01*
X19513842Y32293096D02*
X19574318Y32414048D01*
X19574318Y32414048D02*
X19574318Y32655953D01*
X19574318Y32655953D02*
X19513842Y32776905D01*
X19513842Y32776905D02*
X19453365Y32837381D01*
X19453365Y32837381D02*
X19332413Y32897858D01*
X19332413Y32897858D02*
X19090508Y32897858D01*
X19090508Y32897858D02*
X18969556Y32837381D01*
X18969556Y32837381D02*
X18909080Y32776905D01*
X18909080Y32776905D02*
X18848603Y32655953D01*
X12474318Y31688334D02*
X11869556Y31265000D01*
X12474318Y30962619D02*
X11204318Y30962619D01*
X11204318Y30962619D02*
X11204318Y31446429D01*
X11204318Y31446429D02*
X11264794Y31567381D01*
X11264794Y31567381D02*
X11325270Y31627858D01*
X11325270Y31627858D02*
X11446222Y31688334D01*
X11446222Y31688334D02*
X11627651Y31688334D01*
X11627651Y31688334D02*
X11748603Y31627858D01*
X11748603Y31627858D02*
X11809080Y31567381D01*
X11809080Y31567381D02*
X11869556Y31446429D01*
X11869556Y31446429D02*
X11869556Y30962619D01*
X11325270Y32172143D02*
X11264794Y32232619D01*
X11264794Y32232619D02*
X11204318Y32353572D01*
X11204318Y32353572D02*
X11204318Y32655953D01*
X11204318Y32655953D02*
X11264794Y32776905D01*
X11264794Y32776905D02*
X11325270Y32837381D01*
X11325270Y32837381D02*
X11446222Y32897858D01*
X11446222Y32897858D02*
X11567175Y32897858D01*
X11567175Y32897858D02*
X11748603Y32837381D01*
X11748603Y32837381D02*
X12474318Y32111667D01*
X12474318Y32111667D02*
X12474318Y32897858D01*
D12*
G36*
X8406651Y39850591D02*
G01*
X8242396Y39850591D01*
X8324523Y40096974D01*
X8406651Y39850591D01*
G37*
G36*
X10176607Y38988805D02*
G01*
X5205663Y38988805D01*
X5205663Y40630810D01*
X5387092Y40630810D01*
X5392016Y40548783D01*
X5815348Y39278783D01*
X5832917Y39252174D01*
X5847175Y39223658D01*
X5855276Y39218309D01*
X5860626Y39210207D01*
X5889144Y39195948D01*
X5915751Y39178381D01*
X5925441Y39177800D01*
X5934126Y39173457D01*
X5965952Y39175368D01*
X5997778Y39173457D01*
X6006462Y39177800D01*
X6016153Y39178381D01*
X6042759Y39195948D01*
X6071278Y39210207D01*
X6076627Y39218309D01*
X6084729Y39223658D01*
X6098988Y39252177D01*
X6116555Y39278783D01*
X6314718Y39873270D01*
X6593392Y39873270D01*
X6598461Y39854351D01*
X6598132Y39834768D01*
X6658608Y39592863D01*
X6667114Y39577541D01*
X6670628Y39560369D01*
X6731105Y39439417D01*
X6748061Y39420295D01*
X6760841Y39398160D01*
X6881794Y39277207D01*
X6913392Y39258964D01*
X6943846Y39238856D01*
X7125275Y39178380D01*
X7150788Y39176849D01*
X7175476Y39170234D01*
X7296428Y39170234D01*
X7321115Y39176849D01*
X7346629Y39178380D01*
X7528058Y39238856D01*
X7558510Y39258963D01*
X7590111Y39277208D01*
X7610061Y39297158D01*
X7745663Y39297158D01*
X7782413Y39223658D01*
X7850989Y39178381D01*
X7933016Y39173457D01*
X8006516Y39210207D01*
X8051793Y39278783D01*
X8136562Y39533091D01*
X8512485Y39533091D01*
X8597254Y39278783D01*
X8642531Y39210206D01*
X8716031Y39173456D01*
X8798058Y39178380D01*
X8866634Y39223658D01*
X8903385Y39297158D01*
X8901475Y39328984D01*
X8951963Y39328984D01*
X8973231Y39249609D01*
X9031338Y39191502D01*
X9110713Y39170234D01*
X9473570Y39170234D01*
X9836428Y39170234D01*
X9915803Y39191502D01*
X9973910Y39249609D01*
X9995178Y39328984D01*
X9973910Y39408359D01*
X9915803Y39466466D01*
X9836428Y39487734D01*
X9632320Y39487734D01*
X9632320Y40598984D01*
X9622963Y40633905D01*
X9615875Y40669346D01*
X9612410Y40673288D01*
X9611052Y40678359D01*
X9585483Y40703928D01*
X9561628Y40731072D01*
X9556657Y40732754D01*
X9552945Y40736466D01*
X9518024Y40745823D01*
X9483787Y40757405D01*
X9478639Y40756376D01*
X9473570Y40757734D01*
X9438652Y40748379D01*
X9403207Y40741289D01*
X9399264Y40737825D01*
X9394195Y40736466D01*
X9368630Y40710902D01*
X9341482Y40687042D01*
X9229248Y40518693D01*
X9137627Y40427072D01*
X9039718Y40378118D01*
X8978234Y40323597D01*
X8952248Y40245639D01*
X8968722Y40165132D01*
X9023243Y40103648D01*
X9101201Y40077662D01*
X9181708Y40094136D01*
X9302660Y40154612D01*
X9314820Y40165395D01*
X9314820Y39487734D01*
X9110713Y39487734D01*
X9031338Y39466466D01*
X8973231Y39408359D01*
X8951963Y39328984D01*
X8901475Y39328984D01*
X8898461Y39379185D01*
X8475126Y40649185D01*
X8457559Y40675792D01*
X8443300Y40704310D01*
X8435198Y40709660D01*
X8429849Y40717761D01*
X8401330Y40732021D01*
X8374724Y40749587D01*
X8365033Y40750169D01*
X8356349Y40754511D01*
X8324523Y40752601D01*
X8292697Y40754511D01*
X8284012Y40750169D01*
X8274322Y40749587D01*
X8247715Y40732021D01*
X8219197Y40717761D01*
X8213847Y40709660D01*
X8205746Y40704310D01*
X8191488Y40675795D01*
X8173919Y40649185D01*
X7750587Y39379185D01*
X7745663Y39297158D01*
X7610061Y39297158D01*
X7650587Y39337685D01*
X7661035Y39355783D01*
X7675815Y39370562D01*
X7681224Y39390750D01*
X7691675Y39408851D01*
X7691674Y39429753D01*
X7697083Y39449937D01*
X7697083Y39873270D01*
X7675815Y39952645D01*
X7617708Y40010752D01*
X7538333Y40032020D01*
X7296428Y40032020D01*
X7217053Y40010752D01*
X7158946Y39952645D01*
X7137678Y39873270D01*
X7158946Y39793895D01*
X7217053Y39735788D01*
X7296428Y39714520D01*
X7379583Y39714520D01*
X7379583Y39524040D01*
X7270665Y39487734D01*
X7201239Y39487734D01*
X7079801Y39528213D01*
X7003563Y39604452D01*
X6962400Y39686776D01*
X6910892Y39892812D01*
X6910892Y40035157D01*
X6962401Y40241194D01*
X7003564Y40323519D01*
X7079799Y40399755D01*
X7201239Y40440234D01*
X7319428Y40440234D01*
X7406862Y40396518D01*
X7487369Y40380043D01*
X7565327Y40406029D01*
X7619847Y40467513D01*
X7636322Y40548020D01*
X7610335Y40625979D01*
X7548851Y40680499D01*
X7427899Y40740975D01*
X7392147Y40748291D01*
X7356904Y40757734D01*
X7175476Y40757734D01*
X7150788Y40751120D01*
X7125275Y40749588D01*
X6943846Y40689112D01*
X6913392Y40669005D01*
X6881794Y40650761D01*
X6760842Y40529809D01*
X6748063Y40507677D01*
X6731105Y40488552D01*
X6670628Y40367599D01*
X6667114Y40350430D01*
X6658608Y40335106D01*
X6598132Y40093202D01*
X6598461Y40073619D01*
X6593392Y40054699D01*
X6593392Y39873270D01*
X6314718Y39873270D01*
X6539890Y40548783D01*
X6544814Y40630810D01*
X6508063Y40704310D01*
X6439487Y40749588D01*
X6357460Y40754512D01*
X6283960Y40717762D01*
X6238683Y40649185D01*
X5965952Y39830995D01*
X5693222Y40649185D01*
X5647945Y40717761D01*
X5574445Y40754511D01*
X5492418Y40749587D01*
X5423842Y40704310D01*
X5387092Y40630810D01*
X5205663Y40630810D01*
X5205663Y40939163D01*
X10176607Y40939163D01*
X10176607Y38988805D01*
G37*
D10*
X12839048Y49020920D02*
X12415714Y49020920D01*
X12415714Y48355682D02*
X12415714Y49625682D01*
X12415714Y49625682D02*
X13020476Y49625682D01*
X13988095Y48416158D02*
X13867143Y48355682D01*
X13867143Y48355682D02*
X13625238Y48355682D01*
X13625238Y48355682D02*
X13504285Y48416158D01*
X13504285Y48416158D02*
X13443809Y48537111D01*
X13443809Y48537111D02*
X13443809Y49020920D01*
X13443809Y49020920D02*
X13504285Y49141873D01*
X13504285Y49141873D02*
X13625238Y49202349D01*
X13625238Y49202349D02*
X13867143Y49202349D01*
X13867143Y49202349D02*
X13988095Y49141873D01*
X13988095Y49141873D02*
X14048571Y49020920D01*
X14048571Y49020920D02*
X14048571Y48899968D01*
X14048571Y48899968D02*
X13443809Y48779016D01*
X14592856Y48355682D02*
X14592856Y49202349D01*
X14592856Y49081397D02*
X14653333Y49141873D01*
X14653333Y49141873D02*
X14774285Y49202349D01*
X14774285Y49202349D02*
X14955714Y49202349D01*
X14955714Y49202349D02*
X15076666Y49141873D01*
X15076666Y49141873D02*
X15137142Y49020920D01*
X15137142Y49020920D02*
X15137142Y48355682D01*
X15137142Y49020920D02*
X15197618Y49141873D01*
X15197618Y49141873D02*
X15318571Y49202349D01*
X15318571Y49202349D02*
X15499999Y49202349D01*
X15499999Y49202349D02*
X15620952Y49141873D01*
X15620952Y49141873D02*
X15681428Y49020920D01*
X15681428Y49020920D02*
X15681428Y48355682D01*
X16830475Y48355682D02*
X16830475Y49020920D01*
X16830475Y49020920D02*
X16769999Y49141873D01*
X16769999Y49141873D02*
X16649047Y49202349D01*
X16649047Y49202349D02*
X16407142Y49202349D01*
X16407142Y49202349D02*
X16286189Y49141873D01*
X16830475Y48416158D02*
X16709523Y48355682D01*
X16709523Y48355682D02*
X16407142Y48355682D01*
X16407142Y48355682D02*
X16286189Y48416158D01*
X16286189Y48416158D02*
X16225713Y48537111D01*
X16225713Y48537111D02*
X16225713Y48658063D01*
X16225713Y48658063D02*
X16286189Y48779016D01*
X16286189Y48779016D02*
X16407142Y48839492D01*
X16407142Y48839492D02*
X16709523Y48839492D01*
X16709523Y48839492D02*
X16830475Y48899968D01*
X17616666Y48355682D02*
X17495714Y48416158D01*
X17495714Y48416158D02*
X17435237Y48537111D01*
X17435237Y48537111D02*
X17435237Y49625682D01*
X18584285Y48416158D02*
X18463333Y48355682D01*
X18463333Y48355682D02*
X18221428Y48355682D01*
X18221428Y48355682D02*
X18100475Y48416158D01*
X18100475Y48416158D02*
X18039999Y48537111D01*
X18039999Y48537111D02*
X18039999Y49020920D01*
X18039999Y49020920D02*
X18100475Y49141873D01*
X18100475Y49141873D02*
X18221428Y49202349D01*
X18221428Y49202349D02*
X18463333Y49202349D01*
X18463333Y49202349D02*
X18584285Y49141873D01*
X18584285Y49141873D02*
X18644761Y49020920D01*
X18644761Y49020920D02*
X18644761Y48899968D01*
X18644761Y48899968D02*
X18039999Y48779016D01*
X8202904Y45842682D02*
X7960999Y45842682D01*
X7960999Y45842682D02*
X7840047Y45782206D01*
X7840047Y45782206D02*
X7779571Y45721730D01*
X7779571Y45721730D02*
X7658618Y45540301D01*
X7658618Y45540301D02*
X7598142Y45298397D01*
X7598142Y45298397D02*
X7598142Y44814587D01*
X7598142Y44814587D02*
X7658618Y44693635D01*
X7658618Y44693635D02*
X7719095Y44633158D01*
X7719095Y44633158D02*
X7840047Y44572682D01*
X7840047Y44572682D02*
X8081952Y44572682D01*
X8081952Y44572682D02*
X8202904Y44633158D01*
X8202904Y44633158D02*
X8263380Y44693635D01*
X8263380Y44693635D02*
X8323857Y44814587D01*
X8323857Y44814587D02*
X8323857Y45116968D01*
X8323857Y45116968D02*
X8263380Y45237920D01*
X8263380Y45237920D02*
X8202904Y45298397D01*
X8202904Y45298397D02*
X8081952Y45358873D01*
X8081952Y45358873D02*
X7840047Y45358873D01*
X7840047Y45358873D02*
X7719095Y45298397D01*
X7719095Y45298397D02*
X7658618Y45237920D01*
X7658618Y45237920D02*
X7598142Y45116968D01*
X8323857Y42592682D02*
X7598142Y42592682D01*
X7960999Y42592682D02*
X7960999Y43862682D01*
X7960999Y43862682D02*
X7840047Y43681254D01*
X7840047Y43681254D02*
X7719095Y43560301D01*
X7719095Y43560301D02*
X7598142Y43499825D01*
X7892095Y46425682D02*
X7166380Y46425682D01*
X7529237Y46425682D02*
X7529237Y47695682D01*
X7529237Y47695682D02*
X7408285Y47514254D01*
X7408285Y47514254D02*
X7287333Y47393301D01*
X7287333Y47393301D02*
X7166380Y47332825D01*
X9101619Y46425682D02*
X8375904Y46425682D01*
X8738761Y46425682D02*
X8738761Y47695682D01*
X8738761Y47695682D02*
X8617809Y47514254D01*
X8617809Y47514254D02*
X8496857Y47393301D01*
X8496857Y47393301D02*
X8375904Y47332825D01*
X22497095Y44445682D02*
X21771380Y44445682D01*
X22134237Y44445682D02*
X22134237Y45715682D01*
X22134237Y45715682D02*
X22013285Y45534254D01*
X22013285Y45534254D02*
X21892333Y45413301D01*
X21892333Y45413301D02*
X21771380Y45352825D01*
X23283285Y45715682D02*
X23404238Y45715682D01*
X23404238Y45715682D02*
X23525190Y45655206D01*
X23525190Y45655206D02*
X23585666Y45594730D01*
X23585666Y45594730D02*
X23646142Y45473778D01*
X23646142Y45473778D02*
X23706619Y45231873D01*
X23706619Y45231873D02*
X23706619Y44929492D01*
X23706619Y44929492D02*
X23646142Y44687587D01*
X23646142Y44687587D02*
X23585666Y44566635D01*
X23585666Y44566635D02*
X23525190Y44506158D01*
X23525190Y44506158D02*
X23404238Y44445682D01*
X23404238Y44445682D02*
X23283285Y44445682D01*
X23283285Y44445682D02*
X23162333Y44506158D01*
X23162333Y44506158D02*
X23101857Y44566635D01*
X23101857Y44566635D02*
X23041380Y44687587D01*
X23041380Y44687587D02*
X22980904Y44929492D01*
X22980904Y44929492D02*
X22980904Y45231873D01*
X22980904Y45231873D02*
X23041380Y45473778D01*
X23041380Y45473778D02*
X23101857Y45594730D01*
X23101857Y45594730D02*
X23162333Y45655206D01*
X23162333Y45655206D02*
X23283285Y45715682D01*
X22624095Y46425682D02*
X21898380Y46425682D01*
X22261237Y46425682D02*
X22261237Y47695682D01*
X22261237Y47695682D02*
X22140285Y47514254D01*
X22140285Y47514254D02*
X22019333Y47393301D01*
X22019333Y47393301D02*
X21898380Y47332825D01*
X23773142Y47695682D02*
X23168380Y47695682D01*
X23168380Y47695682D02*
X23107904Y47090920D01*
X23107904Y47090920D02*
X23168380Y47151397D01*
X23168380Y47151397D02*
X23289333Y47211873D01*
X23289333Y47211873D02*
X23591714Y47211873D01*
X23591714Y47211873D02*
X23712666Y47151397D01*
X23712666Y47151397D02*
X23773142Y47090920D01*
X23773142Y47090920D02*
X23833619Y46969968D01*
X23833619Y46969968D02*
X23833619Y46667587D01*
X23833619Y46667587D02*
X23773142Y46546635D01*
X23773142Y46546635D02*
X23712666Y46486158D01*
X23712666Y46486158D02*
X23591714Y46425682D01*
X23591714Y46425682D02*
X23289333Y46425682D01*
X23289333Y46425682D02*
X23168380Y46486158D01*
X23168380Y46486158D02*
X23107904Y46546635D01*
X22741380Y43735682D02*
X22136618Y43735682D01*
X22136618Y43735682D02*
X22076142Y43130920D01*
X22076142Y43130920D02*
X22136618Y43191397D01*
X22136618Y43191397D02*
X22257571Y43251873D01*
X22257571Y43251873D02*
X22559952Y43251873D01*
X22559952Y43251873D02*
X22680904Y43191397D01*
X22680904Y43191397D02*
X22741380Y43130920D01*
X22741380Y43130920D02*
X22801857Y43009968D01*
X22801857Y43009968D02*
X22801857Y42707587D01*
X22801857Y42707587D02*
X22741380Y42586635D01*
X22741380Y42586635D02*
X22680904Y42526158D01*
X22680904Y42526158D02*
X22559952Y42465682D01*
X22559952Y42465682D02*
X22257571Y42465682D01*
X22257571Y42465682D02*
X22136618Y42526158D01*
X22136618Y42526158D02*
X22076142Y42586635D01*
G36*
X29670582Y28702650D02*
G01*
X29736438Y28669722D01*
X29797429Y28608731D01*
X29829812Y28511583D01*
X29829812Y28417286D01*
X29067812Y28417286D01*
X29067812Y28511581D01*
X29100195Y28608731D01*
X29161185Y28669722D01*
X29227043Y28702650D01*
X29391875Y28743858D01*
X29505750Y28743858D01*
X29670582Y28702650D01*
G37*
G36*
X30228955Y25889381D02*
G01*
X28668669Y25889381D01*
X28668669Y26500191D01*
X28813812Y26500191D01*
X28814482Y26497908D01*
X28813895Y26495601D01*
X28820329Y26460030D01*
X28868710Y26314887D01*
X28875280Y26305433D01*
X28877728Y26294183D01*
X28899390Y26265245D01*
X28996152Y26168484D01*
X28998241Y26167344D01*
X28999457Y26165296D01*
X29029159Y26144694D01*
X29125921Y26096313D01*
X29130301Y26095525D01*
X29151915Y26086697D01*
X29345439Y26038316D01*
X29348889Y26038457D01*
X29376241Y26034524D01*
X29521384Y26034524D01*
X29524696Y26035497D01*
X29552186Y26038316D01*
X29745710Y26086697D01*
X29749549Y26088950D01*
X29771704Y26096313D01*
X29868466Y26144694D01*
X29870208Y26146315D01*
X29872535Y26146821D01*
X29901473Y26168483D01*
X29998234Y26265245D01*
X30003751Y26275350D01*
X30012721Y26282571D01*
X30028915Y26314888D01*
X30077295Y26460031D01*
X30077380Y26462409D01*
X30078668Y26464411D01*
X30083812Y26500191D01*
X30083812Y26596953D01*
X30083141Y26599237D01*
X30083729Y26601542D01*
X30077295Y26637113D01*
X30028915Y26782256D01*
X30022344Y26791711D01*
X30019897Y26802961D01*
X29998235Y26831899D01*
X29949854Y26880280D01*
X29922268Y26895343D01*
X29895831Y26912333D01*
X29889478Y26913247D01*
X29887047Y26914574D01*
X29882503Y26914250D01*
X29860051Y26917477D01*
X29521384Y26917477D01*
X29512486Y26914865D01*
X29503310Y26916184D01*
X29478691Y26904942D01*
X29452723Y26897316D01*
X29446651Y26890309D01*
X29438217Y26886457D01*
X29423584Y26863689D01*
X29405861Y26843235D01*
X29404541Y26834059D01*
X29399528Y26826257D01*
X29394384Y26790477D01*
X29394384Y26596953D01*
X29414545Y26528292D01*
X29468626Y26481430D01*
X29539458Y26471246D01*
X29604551Y26500973D01*
X29643240Y26561173D01*
X29648384Y26596953D01*
X29648384Y26663477D01*
X29800768Y26663477D01*
X29829812Y26576345D01*
X29829812Y26520800D01*
X29797429Y26423652D01*
X29736438Y26362661D01*
X29670582Y26329732D01*
X29505750Y26288524D01*
X29391875Y26288524D01*
X29227043Y26329732D01*
X29161185Y26362661D01*
X29100195Y26423652D01*
X29067812Y26520801D01*
X29067812Y26615354D01*
X29102785Y26685300D01*
X29115459Y26755728D01*
X29088045Y26821829D01*
X29029245Y26862615D01*
X28957730Y26865136D01*
X28896203Y26828594D01*
X28875601Y26798892D01*
X28827220Y26702130D01*
X28825181Y26690801D01*
X28818956Y26681114D01*
X28813812Y26645334D01*
X28813812Y26500191D01*
X28668669Y26500191D01*
X28668669Y27214396D01*
X28814335Y27214396D01*
X28815591Y27211216D01*
X28815105Y27207831D01*
X28828651Y27178170D01*
X28840635Y27147844D01*
X28843411Y27145848D01*
X28844832Y27142738D01*
X28872260Y27125111D01*
X28898740Y27106076D01*
X28902154Y27105899D01*
X28905032Y27104049D01*
X28940812Y27098905D01*
X29956812Y27098905D01*
X30025473Y27119066D01*
X30072335Y27173147D01*
X30082519Y27243979D01*
X30052792Y27309072D01*
X29992592Y27347761D01*
X29956812Y27352905D01*
X29419038Y27352905D01*
X30019821Y27696210D01*
X30022192Y27698675D01*
X30025473Y27699638D01*
X30046829Y27724285D01*
X30069433Y27747780D01*
X30070094Y27751134D01*
X30072335Y27753719D01*
X30076976Y27786002D01*
X30083289Y27817986D01*
X30082032Y27821167D01*
X30082519Y27824551D01*
X30068972Y27854213D01*
X30056989Y27884538D01*
X30054212Y27886534D01*
X30052792Y27889644D01*
X30025350Y27907280D01*
X29998883Y27926305D01*
X29995470Y27926483D01*
X29992592Y27928333D01*
X29956812Y27933477D01*
X28940812Y27933477D01*
X28872151Y27913316D01*
X28825289Y27859235D01*
X28815105Y27788403D01*
X28844832Y27723310D01*
X28905032Y27684621D01*
X28940812Y27679477D01*
X29478585Y27679477D01*
X28877802Y27336172D01*
X28875430Y27333708D01*
X28872151Y27332744D01*
X28850798Y27308103D01*
X28828191Y27284602D01*
X28827529Y27281249D01*
X28825289Y27278663D01*
X28820647Y27246381D01*
X28814335Y27214396D01*
X28668669Y27214396D01*
X28668669Y28290286D01*
X28813812Y28290286D01*
X28816424Y28281389D01*
X28815105Y28272212D01*
X28826347Y28247594D01*
X28833973Y28221625D01*
X28840980Y28215554D01*
X28844832Y28207119D01*
X28867600Y28192487D01*
X28888054Y28174763D01*
X28897230Y28173444D01*
X28905032Y28168430D01*
X28940812Y28163286D01*
X29956812Y28163286D01*
X29965709Y28165899D01*
X29974886Y28164579D01*
X29999504Y28175822D01*
X30025473Y28183447D01*
X30031544Y28190455D01*
X30039979Y28194306D01*
X30054611Y28217075D01*
X30072335Y28237528D01*
X30073654Y28246705D01*
X30078668Y28254506D01*
X30083812Y28290286D01*
X30083812Y28532191D01*
X30083141Y28534475D01*
X30083729Y28536780D01*
X30077295Y28572351D01*
X30028915Y28717494D01*
X30022344Y28726949D01*
X30019897Y28738199D01*
X29998234Y28767137D01*
X29901473Y28863899D01*
X29899383Y28865041D01*
X29898168Y28867086D01*
X29868466Y28887688D01*
X29771704Y28936069D01*
X29767323Y28936858D01*
X29745710Y28945685D01*
X29552186Y28994066D01*
X29548735Y28993926D01*
X29521384Y28997858D01*
X29376241Y28997858D01*
X29372928Y28996886D01*
X29345439Y28994066D01*
X29151915Y28945685D01*
X29148075Y28943433D01*
X29125921Y28936069D01*
X29029159Y28887688D01*
X29027416Y28886068D01*
X29025090Y28885561D01*
X28996152Y28863898D01*
X28899390Y28767137D01*
X28893872Y28757032D01*
X28884905Y28749812D01*
X28868710Y28717495D01*
X28820329Y28572352D01*
X28820242Y28569974D01*
X28818956Y28567971D01*
X28813812Y28532191D01*
X28813812Y28290286D01*
X28668669Y28290286D01*
X28668669Y29532232D01*
X28814819Y29532232D01*
X28815262Y29531216D01*
X28815105Y29530117D01*
X28829539Y29498509D01*
X28843448Y29466648D01*
X28844535Y29465674D01*
X28844832Y29465024D01*
X28846343Y29464053D01*
X28870365Y29442521D01*
X29005041Y29352737D01*
X29078342Y29279437D01*
X29117506Y29201109D01*
X29166244Y29148713D01*
X29235573Y29130984D01*
X29303482Y29153552D01*
X29348408Y29209251D01*
X29356091Y29280398D01*
X29344690Y29314701D01*
X29296309Y29411463D01*
X29294688Y29413206D01*
X29294182Y29415532D01*
X29289946Y29421191D01*
X29829812Y29421191D01*
X29829812Y29257905D01*
X29849973Y29189244D01*
X29904054Y29142382D01*
X29974886Y29132198D01*
X30039979Y29161925D01*
X30078668Y29222125D01*
X30083812Y29257905D01*
X30083812Y29838477D01*
X30063651Y29907138D01*
X30009570Y29954000D01*
X29938738Y29964184D01*
X29873645Y29934457D01*
X29834956Y29874257D01*
X29829812Y29838477D01*
X29829812Y29675191D01*
X28940812Y29675191D01*
X28907471Y29665402D01*
X28873956Y29656169D01*
X28873215Y29655343D01*
X28872151Y29655030D01*
X28849382Y29628754D01*
X28826192Y29602882D01*
X28826015Y29601788D01*
X28825289Y29600949D01*
X28820341Y29566540D01*
X28814819Y29532232D01*
X28668669Y29532232D01*
X28668669Y30109327D01*
X30228955Y30109327D01*
X30228955Y25889381D01*
G37*
X16474318Y31688334D02*
X15869556Y31265000D01*
X16474318Y30962619D02*
X15204318Y30962619D01*
X15204318Y30962619D02*
X15204318Y31446429D01*
X15204318Y31446429D02*
X15264794Y31567381D01*
X15264794Y31567381D02*
X15325270Y31627858D01*
X15325270Y31627858D02*
X15446222Y31688334D01*
X15446222Y31688334D02*
X15627651Y31688334D01*
X15627651Y31688334D02*
X15748603Y31627858D01*
X15748603Y31627858D02*
X15809080Y31567381D01*
X15809080Y31567381D02*
X15869556Y31446429D01*
X15869556Y31446429D02*
X15869556Y30962619D01*
X15627651Y32776905D02*
X16474318Y32776905D01*
X15143842Y32474524D02*
X16050984Y32172143D01*
X16050984Y32172143D02*
X16050984Y32958334D01*
D12*
G36*
X18361764Y1204770D02*
G01*
X18385808Y1180726D01*
X18418004Y1116334D01*
X18418004Y828750D01*
X18070266Y828750D01*
X18070266Y1116335D01*
X18102462Y1180727D01*
X18126505Y1204770D01*
X18190896Y1236965D01*
X18297374Y1236965D01*
X18361764Y1204770D01*
G37*
G36*
X18361764Y3926199D02*
G01*
X18385808Y3902155D01*
X18418004Y3837763D01*
X18418004Y3550179D01*
X18070266Y3550179D01*
X18070266Y3837764D01*
X18102462Y3902156D01*
X18126505Y3926199D01*
X18190896Y3958394D01*
X18297374Y3958394D01*
X18361764Y3926199D01*
G37*
G36*
X18659909Y6756446D02*
G01*
X18413526Y6838573D01*
X18659909Y6920701D01*
X18659909Y6756446D01*
G37*
G36*
X19642647Y329821D02*
G01*
X17571337Y329821D01*
X17571337Y670000D01*
X17752766Y670000D01*
X17774034Y590625D01*
X17832141Y532518D01*
X17911516Y511250D01*
X18576754Y511250D01*
X19181516Y511250D01*
X19260891Y532518D01*
X19318998Y590625D01*
X19340266Y670000D01*
X19318998Y749375D01*
X19260891Y807482D01*
X19181516Y828750D01*
X18735504Y828750D01*
X18735504Y1153810D01*
X18726059Y1189059D01*
X18718744Y1224806D01*
X18658268Y1345757D01*
X18641310Y1364881D01*
X18628531Y1387015D01*
X18568054Y1447492D01*
X18545921Y1460271D01*
X18526796Y1477230D01*
X18405844Y1537705D01*
X18370099Y1545020D01*
X18334849Y1554465D01*
X18153420Y1554465D01*
X18118171Y1545021D01*
X18082424Y1537705D01*
X17961473Y1477229D01*
X17942349Y1460272D01*
X17920214Y1447491D01*
X17859738Y1387014D01*
X17846960Y1364883D01*
X17830001Y1345757D01*
X17769526Y1224805D01*
X17762211Y1189061D01*
X17752766Y1153810D01*
X17752766Y670000D01*
X17571337Y670000D01*
X17571337Y1782278D01*
X17757083Y1782278D01*
X17796158Y1709988D01*
X17866143Y1666920D01*
X17948286Y1664615D01*
X19218286Y1966996D01*
X19220391Y1968135D01*
X19222787Y1968137D01*
X19256409Y1987603D01*
X19290577Y2006071D01*
X19291832Y2008111D01*
X19293904Y2009310D01*
X19313276Y2042958D01*
X19333645Y2076056D01*
X19333712Y2078452D01*
X19334906Y2080525D01*
X19334859Y2119363D01*
X19335949Y2158199D01*
X19334810Y2160305D01*
X19334808Y2162700D01*
X19315346Y2196317D01*
X19296875Y2230489D01*
X19294834Y2231745D01*
X19293635Y2233817D01*
X19259970Y2253200D01*
X19226889Y2273557D01*
X19224495Y2273625D01*
X19222420Y2274819D01*
X18890489Y2363334D01*
X19222420Y2451849D01*
X19224495Y2453044D01*
X19226889Y2453111D01*
X19259962Y2473465D01*
X19293635Y2492851D01*
X19294835Y2494925D01*
X19296874Y2496179D01*
X19315338Y2530339D01*
X19334808Y2563968D01*
X19334810Y2566364D01*
X19335949Y2568469D01*
X19334859Y2607290D01*
X19334906Y2646143D01*
X19333711Y2648219D01*
X19333644Y2650612D01*
X19313286Y2683694D01*
X19293904Y2717358D01*
X19291831Y2718558D01*
X19290576Y2720598D01*
X19256409Y2739066D01*
X19222787Y2758531D01*
X19220390Y2758534D01*
X19218285Y2759672D01*
X17948286Y3062052D01*
X17866143Y3059747D01*
X17796157Y3016679D01*
X17757083Y2944389D01*
X17759388Y2862246D01*
X17802456Y2792260D01*
X17874746Y2753186D01*
X18532723Y2596526D01*
X18233469Y2516724D01*
X18233299Y2516627D01*
X18233102Y2516626D01*
X18197672Y2496115D01*
X18162254Y2475722D01*
X18162155Y2475552D01*
X18161985Y2475453D01*
X18141592Y2440035D01*
X18121081Y2404605D01*
X18121080Y2404408D01*
X18120983Y2404238D01*
X18121031Y2363334D01*
X18120983Y2322430D01*
X18121080Y2322261D01*
X18121081Y2322063D01*
X18141592Y2286634D01*
X18161985Y2251215D01*
X18162155Y2251117D01*
X18162254Y2250946D01*
X18197672Y2230554D01*
X18233102Y2210042D01*
X18233299Y2210042D01*
X18233469Y2209944D01*
X18532724Y2130143D01*
X17874746Y1973481D01*
X17802456Y1934406D01*
X17759388Y1864421D01*
X17757083Y1782278D01*
X17571337Y1782278D01*
X17571337Y3391429D01*
X17752766Y3391429D01*
X17774034Y3312054D01*
X17832141Y3253947D01*
X17911516Y3232679D01*
X18576754Y3232679D01*
X19181516Y3232679D01*
X19260891Y3253947D01*
X19318998Y3312054D01*
X19340266Y3391429D01*
X19318998Y3470804D01*
X19260891Y3528911D01*
X19181516Y3550179D01*
X18735504Y3550179D01*
X18735504Y3611157D01*
X19272553Y3987091D01*
X19325383Y4050033D01*
X19339664Y4130958D01*
X19313373Y4203221D01*
X19381843Y4221566D01*
X19439950Y4279673D01*
X19461218Y4359048D01*
X19461218Y5326668D01*
X19439950Y5406043D01*
X19381843Y5464150D01*
X19332064Y5477488D01*
X19340266Y5508096D01*
X19340266Y5629048D01*
X19333651Y5653736D01*
X19332120Y5679249D01*
X19271644Y5860678D01*
X19251536Y5891132D01*
X19233293Y5922730D01*
X19112340Y6043683D01*
X19080738Y6061928D01*
X19050289Y6082032D01*
X18868861Y6142509D01*
X18843347Y6144041D01*
X18818659Y6150656D01*
X17911516Y6150656D01*
X17832141Y6129388D01*
X17774034Y6071281D01*
X17752766Y5991906D01*
X17774034Y5912531D01*
X17832141Y5854424D01*
X17911516Y5833156D01*
X18792898Y5833156D01*
X18914332Y5792678D01*
X18982287Y5724723D01*
X19022766Y5603286D01*
X19022766Y5508096D01*
X19044034Y5428721D01*
X19102141Y5370614D01*
X19151919Y5357277D01*
X19143718Y5326668D01*
X19143718Y4359048D01*
X19164986Y4279673D01*
X19169723Y4274936D01*
X19167701Y4275292D01*
X19090478Y4247197D01*
X18703652Y3976419D01*
X18658268Y4067186D01*
X18641310Y4086310D01*
X18628531Y4108444D01*
X18568054Y4168921D01*
X18545921Y4181700D01*
X18526796Y4198659D01*
X18405844Y4259134D01*
X18370099Y4266449D01*
X18334849Y4275894D01*
X18153420Y4275894D01*
X18118171Y4266450D01*
X18082424Y4259134D01*
X17961473Y4198658D01*
X17942349Y4181701D01*
X17920214Y4168920D01*
X17859738Y4108443D01*
X17846960Y4086312D01*
X17830001Y4067186D01*
X17769526Y3946234D01*
X17762211Y3910490D01*
X17752766Y3875239D01*
X17752766Y3391429D01*
X17571337Y3391429D01*
X17571337Y6806746D01*
X17755989Y6806746D01*
X17760331Y6798062D01*
X17760913Y6788371D01*
X17778479Y6761765D01*
X17792739Y6733246D01*
X17800840Y6727897D01*
X17806190Y6719795D01*
X17834708Y6705536D01*
X17861315Y6687969D01*
X19131314Y6264636D01*
X19213342Y6259712D01*
X19286842Y6296462D01*
X19332119Y6365038D01*
X19337043Y6447065D01*
X19300293Y6520565D01*
X19231717Y6565843D01*
X18977409Y6650613D01*
X18977409Y7026534D01*
X19231717Y7111303D01*
X19300294Y7156580D01*
X19337044Y7230080D01*
X19332120Y7312107D01*
X19286842Y7380683D01*
X19213342Y7417434D01*
X19131315Y7412510D01*
X17861315Y6989175D01*
X17834708Y6971609D01*
X17806190Y6957349D01*
X17800840Y6949248D01*
X17792739Y6943898D01*
X17778479Y6915380D01*
X17760913Y6888773D01*
X17760331Y6879083D01*
X17755989Y6870398D01*
X17757899Y6838572D01*
X17755989Y6806746D01*
X17571337Y6806746D01*
X17571337Y8048096D01*
X17752766Y8048096D01*
X17759380Y8023409D01*
X17760912Y7997895D01*
X17821388Y7816466D01*
X17841495Y7786013D01*
X17859739Y7754414D01*
X17980691Y7633462D01*
X18002823Y7620684D01*
X18021948Y7603725D01*
X18142902Y7543248D01*
X18160070Y7539735D01*
X18175394Y7531228D01*
X18417299Y7470752D01*
X18436881Y7471082D01*
X18455801Y7466012D01*
X18637230Y7466012D01*
X18656149Y7471082D01*
X18675732Y7470752D01*
X18917637Y7531228D01*
X18932959Y7539735D01*
X18950131Y7543248D01*
X19071083Y7603725D01*
X19090205Y7620682D01*
X19112340Y7633461D01*
X19233293Y7754414D01*
X19251536Y7786013D01*
X19271644Y7816466D01*
X19332120Y7997895D01*
X19333651Y8023409D01*
X19340266Y8048096D01*
X19340266Y8169048D01*
X19333651Y8193736D01*
X19332120Y8219249D01*
X19271644Y8400678D01*
X19251537Y8431131D01*
X19233292Y8462731D01*
X19172815Y8523207D01*
X19101650Y8564294D01*
X19019474Y8564294D01*
X18948309Y8523205D01*
X18907222Y8452040D01*
X18907222Y8369864D01*
X18948311Y8298699D01*
X18982286Y8264724D01*
X19022766Y8143286D01*
X19022766Y8073859D01*
X18982287Y7952422D01*
X18906048Y7876184D01*
X18823724Y7835021D01*
X18617688Y7783512D01*
X18475344Y7783512D01*
X18269306Y7835022D01*
X18186980Y7876185D01*
X18110745Y7952420D01*
X18070266Y8073859D01*
X18070266Y8143286D01*
X18110745Y8264725D01*
X18144721Y8298700D01*
X18185809Y8369865D01*
X18185809Y8452041D01*
X18144721Y8523206D01*
X18073556Y8564294D01*
X17991380Y8564294D01*
X17920215Y8523206D01*
X17859739Y8462730D01*
X17841495Y8431132D01*
X17821388Y8400678D01*
X17760912Y8219249D01*
X17759380Y8193736D01*
X17752766Y8169048D01*
X17752766Y8048096D01*
X17571337Y8048096D01*
X17571337Y8955238D01*
X17752766Y8955238D01*
X17774034Y8875863D01*
X17832141Y8817756D01*
X17911516Y8796488D01*
X19181516Y8796488D01*
X19260891Y8817756D01*
X19318998Y8875863D01*
X19340266Y8955238D01*
X19318998Y9034613D01*
X19260891Y9092720D01*
X19181516Y9113988D01*
X18702986Y9113988D01*
X18697483Y9119492D01*
X19276766Y9553953D01*
X19327506Y9618593D01*
X19339127Y9699942D01*
X19308516Y9776203D01*
X19243877Y9826942D01*
X19162527Y9838564D01*
X19086266Y9807953D01*
X18470697Y9346277D01*
X18023769Y9793206D01*
X17952604Y9834294D01*
X17870428Y9834294D01*
X17799263Y9793206D01*
X17758175Y9722041D01*
X17758175Y9639865D01*
X17799263Y9568700D01*
X18253974Y9113988D01*
X17911516Y9113988D01*
X17832141Y9092720D01*
X17774034Y9034613D01*
X17752766Y8955238D01*
X17571337Y8955238D01*
X17571337Y10527619D01*
X17752766Y10527619D01*
X17762121Y10492702D01*
X17769211Y10457256D01*
X17772675Y10453314D01*
X17774034Y10448244D01*
X17799594Y10422684D01*
X17823457Y10395531D01*
X17991805Y10283299D01*
X18083427Y10191678D01*
X18132382Y10093768D01*
X18186902Y10032284D01*
X18264861Y10006297D01*
X18345368Y10022772D01*
X18406852Y10077292D01*
X18432838Y10155250D01*
X18416363Y10235757D01*
X18355888Y10356710D01*
X18345106Y10368869D01*
X19022766Y10368869D01*
X19022766Y10164762D01*
X19044034Y10085387D01*
X19102141Y10027280D01*
X19181516Y10006012D01*
X19260891Y10027280D01*
X19318998Y10085387D01*
X19340266Y10164762D01*
X19340266Y10890477D01*
X19318998Y10969852D01*
X19260891Y11027959D01*
X19181516Y11049227D01*
X19102141Y11027959D01*
X19044034Y10969852D01*
X19022766Y10890477D01*
X19022766Y10686369D01*
X17911516Y10686369D01*
X17876598Y10677014D01*
X17841153Y10669924D01*
X17837210Y10666460D01*
X17832141Y10665101D01*
X17806580Y10639541D01*
X17779428Y10615678D01*
X17777746Y10610707D01*
X17774034Y10606994D01*
X17764677Y10572076D01*
X17753095Y10537836D01*
X17754124Y10532689D01*
X17752766Y10527619D01*
X17571337Y10527619D01*
X17571337Y11230656D01*
X19642647Y11230656D01*
X19642647Y329821D01*
G37*
D10*
X14574318Y31688334D02*
X13969556Y31265000D01*
X14574318Y30962619D02*
X13304318Y30962619D01*
X13304318Y30962619D02*
X13304318Y31446429D01*
X13304318Y31446429D02*
X13364794Y31567381D01*
X13364794Y31567381D02*
X13425270Y31627858D01*
X13425270Y31627858D02*
X13546222Y31688334D01*
X13546222Y31688334D02*
X13727651Y31688334D01*
X13727651Y31688334D02*
X13848603Y31627858D01*
X13848603Y31627858D02*
X13909080Y31567381D01*
X13909080Y31567381D02*
X13969556Y31446429D01*
X13969556Y31446429D02*
X13969556Y30962619D01*
X13304318Y32111667D02*
X13304318Y32897858D01*
X13304318Y32897858D02*
X13788127Y32474524D01*
X13788127Y32474524D02*
X13788127Y32655953D01*
X13788127Y32655953D02*
X13848603Y32776905D01*
X13848603Y32776905D02*
X13909080Y32837381D01*
X13909080Y32837381D02*
X14030032Y32897858D01*
X14030032Y32897858D02*
X14332413Y32897858D01*
X14332413Y32897858D02*
X14453365Y32837381D01*
X14453365Y32837381D02*
X14513842Y32776905D01*
X14513842Y32776905D02*
X14574318Y32655953D01*
X14574318Y32655953D02*
X14574318Y32293096D01*
X14574318Y32293096D02*
X14513842Y32172143D01*
X14513842Y32172143D02*
X14453365Y32111667D01*
X19953365Y12538334D02*
X20013842Y12477858D01*
X20013842Y12477858D02*
X20074318Y12296429D01*
X20074318Y12296429D02*
X20074318Y12175477D01*
X20074318Y12175477D02*
X20013842Y11994048D01*
X20013842Y11994048D02*
X19892889Y11873096D01*
X19892889Y11873096D02*
X19771937Y11812619D01*
X19771937Y11812619D02*
X19530032Y11752143D01*
X19530032Y11752143D02*
X19348603Y11752143D01*
X19348603Y11752143D02*
X19106699Y11812619D01*
X19106699Y11812619D02*
X18985746Y11873096D01*
X18985746Y11873096D02*
X18864794Y11994048D01*
X18864794Y11994048D02*
X18804318Y12175477D01*
X18804318Y12175477D02*
X18804318Y12296429D01*
X18804318Y12296429D02*
X18864794Y12477858D01*
X18864794Y12477858D02*
X18925270Y12538334D01*
X20074318Y13747858D02*
X20074318Y13022143D01*
X20074318Y13385000D02*
X18804318Y13385000D01*
X18804318Y13385000D02*
X18985746Y13264048D01*
X18985746Y13264048D02*
X19106699Y13143096D01*
X19106699Y13143096D02*
X19167175Y13022143D01*
X17074318Y12538334D02*
X16469556Y12115000D01*
X17074318Y11812619D02*
X15804318Y11812619D01*
X15804318Y11812619D02*
X15804318Y12296429D01*
X15804318Y12296429D02*
X15864794Y12417381D01*
X15864794Y12417381D02*
X15925270Y12477858D01*
X15925270Y12477858D02*
X16046222Y12538334D01*
X16046222Y12538334D02*
X16227651Y12538334D01*
X16227651Y12538334D02*
X16348603Y12477858D01*
X16348603Y12477858D02*
X16409080Y12417381D01*
X16409080Y12417381D02*
X16469556Y12296429D01*
X16469556Y12296429D02*
X16469556Y11812619D01*
X15804318Y13687381D02*
X15804318Y13082619D01*
X15804318Y13082619D02*
X16409080Y13022143D01*
X16409080Y13022143D02*
X16348603Y13082619D01*
X16348603Y13082619D02*
X16288127Y13203572D01*
X16288127Y13203572D02*
X16288127Y13505953D01*
X16288127Y13505953D02*
X16348603Y13626905D01*
X16348603Y13626905D02*
X16409080Y13687381D01*
X16409080Y13687381D02*
X16530032Y13747858D01*
X16530032Y13747858D02*
X16832413Y13747858D01*
X16832413Y13747858D02*
X16953365Y13687381D01*
X16953365Y13687381D02*
X17013842Y13626905D01*
X17013842Y13626905D02*
X17074318Y13505953D01*
X17074318Y13505953D02*
X17074318Y13203572D01*
X17074318Y13203572D02*
X17013842Y13082619D01*
X17013842Y13082619D02*
X16953365Y13022143D01*
X18782380Y22945682D02*
X18782380Y21917587D01*
X18782380Y21917587D02*
X18842857Y21796635D01*
X18842857Y21796635D02*
X18903333Y21736158D01*
X18903333Y21736158D02*
X19024285Y21675682D01*
X19024285Y21675682D02*
X19266190Y21675682D01*
X19266190Y21675682D02*
X19387142Y21736158D01*
X19387142Y21736158D02*
X19447619Y21796635D01*
X19447619Y21796635D02*
X19508095Y21917587D01*
X19508095Y21917587D02*
X19508095Y22945682D01*
X20778095Y21675682D02*
X20052380Y21675682D01*
X20415237Y21675682D02*
X20415237Y22945682D01*
X20415237Y22945682D02*
X20294285Y22764254D01*
X20294285Y22764254D02*
X20173333Y22643301D01*
X20173333Y22643301D02*
X20052380Y22582825D01*
D13*
X15536142Y27143676D02*
X15645000Y27107391D01*
X15645000Y27107391D02*
X15826428Y27107391D01*
X15826428Y27107391D02*
X15899000Y27143676D01*
X15899000Y27143676D02*
X15935285Y27179962D01*
X15935285Y27179962D02*
X15971571Y27252534D01*
X15971571Y27252534D02*
X15971571Y27325105D01*
X15971571Y27325105D02*
X15935285Y27397676D01*
X15935285Y27397676D02*
X15899000Y27433962D01*
X15899000Y27433962D02*
X15826428Y27470248D01*
X15826428Y27470248D02*
X15681285Y27506534D01*
X15681285Y27506534D02*
X15608714Y27542819D01*
X15608714Y27542819D02*
X15572428Y27579105D01*
X15572428Y27579105D02*
X15536142Y27651676D01*
X15536142Y27651676D02*
X15536142Y27724248D01*
X15536142Y27724248D02*
X15572428Y27796819D01*
X15572428Y27796819D02*
X15608714Y27833105D01*
X15608714Y27833105D02*
X15681285Y27869391D01*
X15681285Y27869391D02*
X15862714Y27869391D01*
X15862714Y27869391D02*
X15971571Y27833105D01*
X16443285Y27869391D02*
X16588428Y27869391D01*
X16588428Y27869391D02*
X16660999Y27833105D01*
X16660999Y27833105D02*
X16733571Y27760534D01*
X16733571Y27760534D02*
X16769856Y27615391D01*
X16769856Y27615391D02*
X16769856Y27361391D01*
X16769856Y27361391D02*
X16733571Y27216248D01*
X16733571Y27216248D02*
X16660999Y27143676D01*
X16660999Y27143676D02*
X16588428Y27107391D01*
X16588428Y27107391D02*
X16443285Y27107391D01*
X16443285Y27107391D02*
X16370714Y27143676D01*
X16370714Y27143676D02*
X16298142Y27216248D01*
X16298142Y27216248D02*
X16261856Y27361391D01*
X16261856Y27361391D02*
X16261856Y27615391D01*
X16261856Y27615391D02*
X16298142Y27760534D01*
X16298142Y27760534D02*
X16370714Y27833105D01*
X16370714Y27833105D02*
X16443285Y27869391D01*
X17096428Y27107391D02*
X17096428Y27869391D01*
X17894714Y27179962D02*
X17858428Y27143676D01*
X17858428Y27143676D02*
X17749571Y27107391D01*
X17749571Y27107391D02*
X17676999Y27107391D01*
X17676999Y27107391D02*
X17568142Y27143676D01*
X17568142Y27143676D02*
X17495571Y27216248D01*
X17495571Y27216248D02*
X17459285Y27288819D01*
X17459285Y27288819D02*
X17422999Y27433962D01*
X17422999Y27433962D02*
X17422999Y27542819D01*
X17422999Y27542819D02*
X17459285Y27687962D01*
X17459285Y27687962D02*
X17495571Y27760534D01*
X17495571Y27760534D02*
X17568142Y27833105D01*
X17568142Y27833105D02*
X17676999Y27869391D01*
X17676999Y27869391D02*
X17749571Y27869391D01*
X17749571Y27869391D02*
X17858428Y27833105D01*
X17858428Y27833105D02*
X17894714Y27796819D01*
X18221285Y27397676D02*
X18801857Y27397676D01*
X19273571Y27542819D02*
X19201000Y27579105D01*
X19201000Y27579105D02*
X19164714Y27615391D01*
X19164714Y27615391D02*
X19128428Y27687962D01*
X19128428Y27687962D02*
X19128428Y27724248D01*
X19128428Y27724248D02*
X19164714Y27796819D01*
X19164714Y27796819D02*
X19201000Y27833105D01*
X19201000Y27833105D02*
X19273571Y27869391D01*
X19273571Y27869391D02*
X19418714Y27869391D01*
X19418714Y27869391D02*
X19491286Y27833105D01*
X19491286Y27833105D02*
X19527571Y27796819D01*
X19527571Y27796819D02*
X19563857Y27724248D01*
X19563857Y27724248D02*
X19563857Y27687962D01*
X19563857Y27687962D02*
X19527571Y27615391D01*
X19527571Y27615391D02*
X19491286Y27579105D01*
X19491286Y27579105D02*
X19418714Y27542819D01*
X19418714Y27542819D02*
X19273571Y27542819D01*
X19273571Y27542819D02*
X19201000Y27506534D01*
X19201000Y27506534D02*
X19164714Y27470248D01*
X19164714Y27470248D02*
X19128428Y27397676D01*
X19128428Y27397676D02*
X19128428Y27252534D01*
X19128428Y27252534D02*
X19164714Y27179962D01*
X19164714Y27179962D02*
X19201000Y27143676D01*
X19201000Y27143676D02*
X19273571Y27107391D01*
X19273571Y27107391D02*
X19418714Y27107391D01*
X19418714Y27107391D02*
X19491286Y27143676D01*
X19491286Y27143676D02*
X19527571Y27179962D01*
X19527571Y27179962D02*
X19563857Y27252534D01*
X19563857Y27252534D02*
X19563857Y27397676D01*
X19563857Y27397676D02*
X19527571Y27470248D01*
X19527571Y27470248D02*
X19491286Y27506534D01*
X19491286Y27506534D02*
X19418714Y27542819D01*
D14*
X14331228Y23806321D02*
X14186085Y23878892D01*
X14186085Y23878892D02*
X14113514Y23951464D01*
X14113514Y23951464D02*
X14040942Y24096607D01*
X14040942Y24096607D02*
X14040942Y24532035D01*
X14040942Y24532035D02*
X14113514Y24677178D01*
X14113514Y24677178D02*
X14186085Y24749750D01*
X14186085Y24749750D02*
X14331228Y24822321D01*
X14331228Y24822321D02*
X14548942Y24822321D01*
X14548942Y24822321D02*
X14694085Y24749750D01*
X14694085Y24749750D02*
X14766657Y24677178D01*
X14766657Y24677178D02*
X14839228Y24532035D01*
X14839228Y24532035D02*
X14839228Y24096607D01*
X14839228Y24096607D02*
X14766657Y23951464D01*
X14766657Y23951464D02*
X14694085Y23878892D01*
X14694085Y23878892D02*
X14548942Y23806321D01*
X14548942Y23806321D02*
X14331228Y23806321D01*
D13*
X16403000Y26107391D02*
X15967571Y26107391D01*
X16185286Y26107391D02*
X16185286Y26869391D01*
X16185286Y26869391D02*
X16112714Y26760534D01*
X16112714Y26760534D02*
X16040143Y26687962D01*
X16040143Y26687962D02*
X15967571Y26651676D01*
X17092428Y26869391D02*
X16729571Y26869391D01*
X16729571Y26869391D02*
X16693285Y26506534D01*
X16693285Y26506534D02*
X16729571Y26542819D01*
X16729571Y26542819D02*
X16802143Y26579105D01*
X16802143Y26579105D02*
X16983571Y26579105D01*
X16983571Y26579105D02*
X17056143Y26542819D01*
X17056143Y26542819D02*
X17092428Y26506534D01*
X17092428Y26506534D02*
X17128714Y26433962D01*
X17128714Y26433962D02*
X17128714Y26252534D01*
X17128714Y26252534D02*
X17092428Y26179962D01*
X17092428Y26179962D02*
X17056143Y26143676D01*
X17056143Y26143676D02*
X16983571Y26107391D01*
X16983571Y26107391D02*
X16802143Y26107391D01*
X16802143Y26107391D02*
X16729571Y26143676D01*
X16729571Y26143676D02*
X16693285Y26179962D01*
X17600428Y26869391D02*
X17672999Y26869391D01*
X17672999Y26869391D02*
X17745571Y26833105D01*
X17745571Y26833105D02*
X17781857Y26796819D01*
X17781857Y26796819D02*
X17818142Y26724248D01*
X17818142Y26724248D02*
X17854428Y26579105D01*
X17854428Y26579105D02*
X17854428Y26397676D01*
X17854428Y26397676D02*
X17818142Y26252534D01*
X17818142Y26252534D02*
X17781857Y26179962D01*
X17781857Y26179962D02*
X17745571Y26143676D01*
X17745571Y26143676D02*
X17672999Y26107391D01*
X17672999Y26107391D02*
X17600428Y26107391D01*
X17600428Y26107391D02*
X17527857Y26143676D01*
X17527857Y26143676D02*
X17491571Y26179962D01*
X17491571Y26179962D02*
X17455285Y26252534D01*
X17455285Y26252534D02*
X17418999Y26397676D01*
X17418999Y26397676D02*
X17418999Y26579105D01*
X17418999Y26579105D02*
X17455285Y26724248D01*
X17455285Y26724248D02*
X17491571Y26796819D01*
X17491571Y26796819D02*
X17527857Y26833105D01*
X17527857Y26833105D02*
X17600428Y26869391D01*
X18180999Y26107391D02*
X18180999Y26615391D01*
X18180999Y26542819D02*
X18217285Y26579105D01*
X18217285Y26579105D02*
X18289856Y26615391D01*
X18289856Y26615391D02*
X18398713Y26615391D01*
X18398713Y26615391D02*
X18471285Y26579105D01*
X18471285Y26579105D02*
X18507571Y26506534D01*
X18507571Y26506534D02*
X18507571Y26107391D01*
X18507571Y26506534D02*
X18543856Y26579105D01*
X18543856Y26579105D02*
X18616428Y26615391D01*
X18616428Y26615391D02*
X18725285Y26615391D01*
X18725285Y26615391D02*
X18797856Y26579105D01*
X18797856Y26579105D02*
X18834142Y26506534D01*
X18834142Y26506534D02*
X18834142Y26107391D01*
X19196999Y26107391D02*
X19196999Y26615391D01*
X19196999Y26869391D02*
X19160713Y26833105D01*
X19160713Y26833105D02*
X19196999Y26796819D01*
X19196999Y26796819D02*
X19233285Y26833105D01*
X19233285Y26833105D02*
X19196999Y26869391D01*
X19196999Y26869391D02*
X19196999Y26796819D01*
X19668713Y26107391D02*
X19596142Y26143676D01*
X19596142Y26143676D02*
X19559856Y26216248D01*
X19559856Y26216248D02*
X19559856Y26869391D01*
D10*
X8788333Y14175682D02*
X8364999Y14780444D01*
X8062618Y14175682D02*
X8062618Y15445682D01*
X8062618Y15445682D02*
X8546428Y15445682D01*
X8546428Y15445682D02*
X8667380Y15385206D01*
X8667380Y15385206D02*
X8727857Y15324730D01*
X8727857Y15324730D02*
X8788333Y15203778D01*
X8788333Y15203778D02*
X8788333Y15022349D01*
X8788333Y15022349D02*
X8727857Y14901397D01*
X8727857Y14901397D02*
X8667380Y14840920D01*
X8667380Y14840920D02*
X8546428Y14780444D01*
X8546428Y14780444D02*
X8062618Y14780444D01*
X9211666Y15445682D02*
X10058333Y15445682D01*
X10058333Y15445682D02*
X9514047Y14175682D01*
D12*
G36*
X4245011Y13008038D02*
G01*
X4269054Y12983995D01*
X4301250Y12919604D01*
X4301250Y12813128D01*
X4269054Y12748736D01*
X4245010Y12724692D01*
X4180620Y12692496D01*
X3893035Y12692496D01*
X3893035Y13040234D01*
X4180620Y13040234D01*
X4245011Y13008038D01*
G37*
G36*
X10179961Y12394993D02*
G01*
X10195721Y12379233D01*
X10227917Y12314842D01*
X10227917Y12208366D01*
X10195721Y12143974D01*
X10171677Y12119930D01*
X10107287Y12087734D01*
X9819702Y12087734D01*
X9819702Y12435472D01*
X10058526Y12435472D01*
X10179961Y12394993D01*
G37*
G36*
X10111201Y13008039D02*
G01*
X10135244Y12983996D01*
X10167441Y12919604D01*
X10167441Y12873604D01*
X10135244Y12809212D01*
X10111201Y12785169D01*
X10046809Y12752972D01*
X9819702Y12752972D01*
X9819702Y13040234D01*
X10046811Y13040234D01*
X10111201Y13008039D01*
G37*
G36*
X11329009Y12999755D02*
G01*
X11405244Y12923520D01*
X11446407Y12841194D01*
X11497917Y12635156D01*
X11497917Y12492812D01*
X11446408Y12286776D01*
X11405244Y12204450D01*
X11329008Y12128214D01*
X11207570Y12087734D01*
X11089702Y12087734D01*
X11089702Y13040234D01*
X11207570Y13040234D01*
X11329009Y12999755D01*
G37*
G36*
X13206370Y11467853D02*
G01*
X3394106Y11467853D01*
X3394106Y11928984D01*
X3575535Y11928984D01*
X3596803Y11849609D01*
X3654910Y11791502D01*
X3734285Y11770234D01*
X3813660Y11791502D01*
X3871767Y11849609D01*
X3893035Y11928984D01*
X3893035Y12374996D01*
X4218095Y12374996D01*
X4253345Y12384442D01*
X4289090Y12391756D01*
X4410042Y12452231D01*
X4429167Y12469191D01*
X4451300Y12481969D01*
X4511777Y12542446D01*
X4524556Y12564581D01*
X4541514Y12583704D01*
X4601990Y12704655D01*
X4609305Y12740403D01*
X4618750Y12775651D01*
X4618750Y12836127D01*
X4785059Y12836127D01*
X4794504Y12800877D01*
X4801819Y12765132D01*
X4862294Y12644180D01*
X4879253Y12625055D01*
X4892033Y12602921D01*
X4952510Y12542445D01*
X4974642Y12529667D01*
X4993766Y12512709D01*
X5114718Y12452232D01*
X5131889Y12448719D01*
X5147212Y12440212D01*
X5372210Y12383963D01*
X5454534Y12342801D01*
X5478577Y12318758D01*
X5510774Y12254365D01*
X5510774Y12208366D01*
X5478577Y12143973D01*
X5454534Y12119930D01*
X5390144Y12087734D01*
X5151001Y12087734D01*
X4994010Y12140064D01*
X4911983Y12144987D01*
X4838483Y12108237D01*
X4793205Y12039661D01*
X4788282Y11957634D01*
X4825032Y11884134D01*
X4893608Y11838856D01*
X5075037Y11778380D01*
X5100550Y11776849D01*
X5125238Y11770234D01*
X5427619Y11770234D01*
X5462869Y11779680D01*
X5498614Y11786994D01*
X5619566Y11847469D01*
X5638691Y11864429D01*
X5660825Y11877208D01*
X5712600Y11928984D01*
X5934107Y11928984D01*
X5939516Y11908797D01*
X5939516Y11887896D01*
X5949965Y11869797D01*
X5955375Y11849609D01*
X5970154Y11834830D01*
X5980604Y11816731D01*
X5998702Y11806282D01*
X6013482Y11791502D01*
X6033669Y11786093D01*
X6051769Y11775643D01*
X6072670Y11775643D01*
X6092857Y11770234D01*
X6879048Y11770234D01*
X6958423Y11791502D01*
X6964897Y11797977D01*
X6983471Y11728657D01*
X7041578Y11670550D01*
X7120953Y11649282D01*
X8088572Y11649282D01*
X8167947Y11670550D01*
X8226054Y11728657D01*
X8247322Y11808032D01*
X8226054Y11887407D01*
X8184477Y11928984D01*
X8232202Y11928984D01*
X8253470Y11849609D01*
X8311577Y11791502D01*
X8390952Y11770234D01*
X8470327Y11791502D01*
X8528434Y11849609D01*
X8549702Y11928984D01*
X8549702Y12407514D01*
X8555205Y12413017D01*
X8989667Y11833734D01*
X9054307Y11782994D01*
X9135656Y11771373D01*
X9211917Y11801984D01*
X9262656Y11866623D01*
X9271565Y11928984D01*
X9502202Y11928984D01*
X9523470Y11849609D01*
X9581577Y11791502D01*
X9660952Y11770234D01*
X10144762Y11770234D01*
X10180012Y11779680D01*
X10215757Y11786994D01*
X10336709Y11847469D01*
X10355834Y11864429D01*
X10377967Y11877207D01*
X10429744Y11928984D01*
X10772202Y11928984D01*
X10793470Y11849609D01*
X10851577Y11791502D01*
X10930952Y11770234D01*
X11233333Y11770234D01*
X11258020Y11776849D01*
X11283534Y11778380D01*
X11464963Y11838856D01*
X11495412Y11858961D01*
X11527016Y11877207D01*
X11578793Y11928984D01*
X11981726Y11928984D01*
X12002994Y11849609D01*
X12061101Y11791502D01*
X12140476Y11770234D01*
X12503333Y11770234D01*
X12866191Y11770234D01*
X12945566Y11791502D01*
X13003673Y11849609D01*
X13024941Y11928984D01*
X13003673Y12008359D01*
X12945566Y12066466D01*
X12866191Y12087734D01*
X12662083Y12087734D01*
X12662083Y13198984D01*
X12652726Y13233905D01*
X12645638Y13269346D01*
X12642173Y13273288D01*
X12640815Y13278359D01*
X12615246Y13303928D01*
X12591391Y13331072D01*
X12586420Y13332754D01*
X12582708Y13336466D01*
X12547787Y13345823D01*
X12513550Y13357405D01*
X12508402Y13356376D01*
X12503333Y13357734D01*
X12468415Y13348379D01*
X12432970Y13341289D01*
X12429027Y13337825D01*
X12423958Y13336466D01*
X12398393Y13310902D01*
X12371245Y13287042D01*
X12259011Y13118693D01*
X12167390Y13027072D01*
X12069481Y12978118D01*
X12007997Y12923597D01*
X11982011Y12845639D01*
X11998485Y12765132D01*
X12053006Y12703648D01*
X12130964Y12677662D01*
X12211471Y12694136D01*
X12332423Y12754612D01*
X12344583Y12765395D01*
X12344583Y12087734D01*
X12140476Y12087734D01*
X12061101Y12066466D01*
X12002994Y12008359D01*
X11981726Y11928984D01*
X11578793Y11928984D01*
X11647968Y11998160D01*
X11660747Y12020295D01*
X11677704Y12039417D01*
X11738181Y12160369D01*
X11741694Y12177541D01*
X11750201Y12192863D01*
X11810677Y12434768D01*
X11810347Y12454351D01*
X11815417Y12473270D01*
X11815417Y12654699D01*
X11810347Y12673619D01*
X11810677Y12693201D01*
X11750201Y12935106D01*
X11741694Y12950430D01*
X11738181Y12967598D01*
X11677704Y13088552D01*
X11660745Y13107677D01*
X11647967Y13129809D01*
X11527015Y13250761D01*
X11495416Y13269005D01*
X11464963Y13289112D01*
X11283534Y13349588D01*
X11258020Y13351120D01*
X11233333Y13357734D01*
X10930952Y13357734D01*
X10851577Y13336466D01*
X10793470Y13278359D01*
X10772202Y13198984D01*
X10772202Y11928984D01*
X10429744Y11928984D01*
X10438444Y11937684D01*
X10451223Y11959819D01*
X10468181Y11978942D01*
X10528657Y12099893D01*
X10535972Y12135641D01*
X10545417Y12170889D01*
X10545417Y12352318D01*
X10535972Y12387567D01*
X10528657Y12423314D01*
X10468181Y12544265D01*
X10451223Y12563389D01*
X10438443Y12585524D01*
X10394583Y12629383D01*
X10407704Y12644179D01*
X10468181Y12765131D01*
X10475496Y12800880D01*
X10484941Y12836127D01*
X10484941Y12957080D01*
X10475496Y12992328D01*
X10468181Y13028076D01*
X10407704Y13149028D01*
X10390745Y13168153D01*
X10377967Y13190285D01*
X10317491Y13250761D01*
X10295358Y13263540D01*
X10276233Y13280499D01*
X10155281Y13340974D01*
X10119536Y13348289D01*
X10084286Y13357734D01*
X9660952Y13357734D01*
X9581577Y13336466D01*
X9523470Y13278359D01*
X9502202Y13198984D01*
X9502202Y11928984D01*
X9271565Y11928984D01*
X9274278Y11947973D01*
X9243667Y12024234D01*
X8781990Y12639803D01*
X9228920Y13086731D01*
X9270008Y13157896D01*
X9270008Y13240072D01*
X9228920Y13311237D01*
X9157755Y13352325D01*
X9075579Y13352325D01*
X9004414Y13311237D01*
X8549702Y12856526D01*
X8549702Y13198984D01*
X8528434Y13278359D01*
X8470327Y13336466D01*
X8390952Y13357734D01*
X8311577Y13336466D01*
X8253470Y13278359D01*
X8232202Y13198984D01*
X8232202Y11928984D01*
X8184477Y11928984D01*
X8167947Y11945514D01*
X8088572Y11966782D01*
X7120953Y11966782D01*
X7041578Y11945514D01*
X7035103Y11939040D01*
X7016530Y12008359D01*
X6958423Y12066466D01*
X6879048Y12087734D01*
X6476113Y12087734D01*
X6930824Y12542446D01*
X6949067Y12574044D01*
X6969174Y12604497D01*
X7029651Y12785925D01*
X7031182Y12811439D01*
X7037798Y12836127D01*
X7037798Y12957080D01*
X7028353Y12992328D01*
X7021038Y13028076D01*
X6960561Y13149028D01*
X6943602Y13168153D01*
X6930824Y13190285D01*
X6870348Y13250761D01*
X6848215Y13263540D01*
X6829090Y13280499D01*
X6708138Y13340974D01*
X6672393Y13348289D01*
X6637143Y13357734D01*
X6334762Y13357734D01*
X6299510Y13348289D01*
X6263767Y13340974D01*
X6142814Y13280499D01*
X6123688Y13263540D01*
X6101556Y13250761D01*
X6041080Y13190285D01*
X5999992Y13119120D01*
X5999992Y13036944D01*
X6041080Y12965779D01*
X6112245Y12924691D01*
X6194421Y12924691D01*
X6265586Y12965779D01*
X6307844Y13008037D01*
X6372238Y13040234D01*
X6599668Y13040234D01*
X6664058Y13008039D01*
X6688101Y12983996D01*
X6720298Y12919604D01*
X6720298Y12861889D01*
X6679818Y12740453D01*
X5980604Y12041237D01*
X5970154Y12023139D01*
X5955375Y12008359D01*
X5949965Y11988172D01*
X5939516Y11970072D01*
X5939516Y11949172D01*
X5934107Y11928984D01*
X5712600Y11928984D01*
X5721301Y11937685D01*
X5734079Y11959818D01*
X5751037Y11978941D01*
X5811514Y12099893D01*
X5818829Y12135642D01*
X5828274Y12170889D01*
X5828274Y12291841D01*
X5818828Y12327092D01*
X5811514Y12362836D01*
X5751037Y12483790D01*
X5734078Y12502915D01*
X5721300Y12525047D01*
X5660824Y12585523D01*
X5638691Y12598302D01*
X5619566Y12615261D01*
X5498614Y12675736D01*
X5481444Y12679250D01*
X5466121Y12687756D01*
X5241124Y12744005D01*
X5158797Y12785169D01*
X5134754Y12809212D01*
X5102559Y12873603D01*
X5102559Y12919605D01*
X5134754Y12983996D01*
X5158798Y13008039D01*
X5223190Y13040234D01*
X5462332Y13040234D01*
X5619323Y12987904D01*
X5701351Y12982981D01*
X5774851Y13019731D01*
X5820128Y13088307D01*
X5825052Y13170334D01*
X5788301Y13243834D01*
X5719725Y13289112D01*
X5538296Y13349588D01*
X5512782Y13351120D01*
X5488095Y13357734D01*
X5185714Y13357734D01*
X5150465Y13348290D01*
X5114718Y13340974D01*
X4993767Y13280498D01*
X4974644Y13263542D01*
X4952510Y13250762D01*
X4892033Y13190286D01*
X4879253Y13168153D01*
X4862294Y13149027D01*
X4801819Y13028075D01*
X4794504Y12992331D01*
X4785059Y12957080D01*
X4785059Y12836127D01*
X4618750Y12836127D01*
X4618750Y12957080D01*
X4609305Y12992329D01*
X4601990Y13028076D01*
X4541514Y13149027D01*
X4524556Y13168151D01*
X4511776Y13190286D01*
X4451299Y13250762D01*
X4429167Y13263540D01*
X4410042Y13280499D01*
X4289090Y13340974D01*
X4253345Y13348289D01*
X4218095Y13357734D01*
X3734285Y13357734D01*
X3654910Y13336466D01*
X3596803Y13278359D01*
X3575535Y13198984D01*
X3575535Y11928984D01*
X3394106Y11928984D01*
X3394106Y13539163D01*
X13206370Y13539163D01*
X13206370Y11467853D01*
G37*
D10*
X15074318Y12538334D02*
X14469556Y12115000D01*
X15074318Y11812619D02*
X13804318Y11812619D01*
X13804318Y11812619D02*
X13804318Y12296429D01*
X13804318Y12296429D02*
X13864794Y12417381D01*
X13864794Y12417381D02*
X13925270Y12477858D01*
X13925270Y12477858D02*
X14046222Y12538334D01*
X14046222Y12538334D02*
X14227651Y12538334D01*
X14227651Y12538334D02*
X14348603Y12477858D01*
X14348603Y12477858D02*
X14409080Y12417381D01*
X14409080Y12417381D02*
X14469556Y12296429D01*
X14469556Y12296429D02*
X14469556Y11812619D01*
X13804318Y13626905D02*
X13804318Y13385000D01*
X13804318Y13385000D02*
X13864794Y13264048D01*
X13864794Y13264048D02*
X13925270Y13203572D01*
X13925270Y13203572D02*
X14106699Y13082619D01*
X14106699Y13082619D02*
X14348603Y13022143D01*
X14348603Y13022143D02*
X14832413Y13022143D01*
X14832413Y13022143D02*
X14953365Y13082619D01*
X14953365Y13082619D02*
X15013842Y13143096D01*
X15013842Y13143096D02*
X15074318Y13264048D01*
X15074318Y13264048D02*
X15074318Y13505953D01*
X15074318Y13505953D02*
X15013842Y13626905D01*
X15013842Y13626905D02*
X14953365Y13687381D01*
X14953365Y13687381D02*
X14832413Y13747858D01*
X14832413Y13747858D02*
X14530032Y13747858D01*
X14530032Y13747858D02*
X14409080Y13687381D01*
X14409080Y13687381D02*
X14348603Y13626905D01*
X14348603Y13626905D02*
X14288127Y13505953D01*
X14288127Y13505953D02*
X14288127Y13264048D01*
X14288127Y13264048D02*
X14348603Y13143096D01*
X14348603Y13143096D02*
X14409080Y13082619D01*
X14409080Y13082619D02*
X14530032Y13022143D01*
D12*
G36*
X22001264Y14529294D02*
G01*
X22025308Y14505250D01*
X22057504Y14440858D01*
X22057504Y14153274D01*
X21709766Y14153274D01*
X21709766Y14440859D01*
X21741962Y14505251D01*
X21766005Y14529294D01*
X21830396Y14561489D01*
X21936874Y14561489D01*
X22001264Y14529294D01*
G37*
G36*
X22001264Y17250723D02*
G01*
X22025308Y17226679D01*
X22057504Y17162287D01*
X22057504Y16874703D01*
X21709766Y16874703D01*
X21709766Y17162288D01*
X21741962Y17226680D01*
X21766005Y17250723D01*
X21830396Y17282918D01*
X21936874Y17282918D01*
X22001264Y17250723D01*
G37*
G36*
X22463224Y21646172D02*
G01*
X22545548Y21605009D01*
X22621787Y21528771D01*
X22662266Y21407334D01*
X22662266Y21289465D01*
X21709766Y21289465D01*
X21709766Y21407334D01*
X21750245Y21528773D01*
X21826480Y21605008D01*
X21908806Y21646171D01*
X22114844Y21697680D01*
X22257188Y21697680D01*
X22463224Y21646172D01*
G37*
G36*
X23282147Y13654345D02*
G01*
X21210837Y13654345D01*
X21210837Y13994524D01*
X21392266Y13994524D01*
X21413534Y13915149D01*
X21471641Y13857042D01*
X21551016Y13835774D01*
X22216254Y13835774D01*
X22821016Y13835774D01*
X22900391Y13857042D01*
X22958498Y13915149D01*
X22979766Y13994524D01*
X22958498Y14073899D01*
X22900391Y14132006D01*
X22821016Y14153274D01*
X22375004Y14153274D01*
X22375004Y14478334D01*
X22365559Y14513583D01*
X22358244Y14549330D01*
X22297768Y14670281D01*
X22280810Y14689405D01*
X22268031Y14711539D01*
X22207554Y14772016D01*
X22185421Y14784795D01*
X22166296Y14801754D01*
X22045344Y14862229D01*
X22009599Y14869544D01*
X21974349Y14878989D01*
X21792920Y14878989D01*
X21757671Y14869545D01*
X21721924Y14862229D01*
X21600973Y14801753D01*
X21581849Y14784796D01*
X21559714Y14772015D01*
X21499238Y14711538D01*
X21486460Y14689407D01*
X21469501Y14670281D01*
X21409026Y14549329D01*
X21401711Y14513585D01*
X21392266Y14478334D01*
X21392266Y13994524D01*
X21210837Y13994524D01*
X21210837Y15106802D01*
X21396583Y15106802D01*
X21435658Y15034512D01*
X21505643Y14991444D01*
X21587786Y14989139D01*
X22857786Y15291520D01*
X22859891Y15292659D01*
X22862287Y15292661D01*
X22895909Y15312127D01*
X22930077Y15330595D01*
X22931332Y15332635D01*
X22933404Y15333834D01*
X22952776Y15367482D01*
X22973145Y15400580D01*
X22973212Y15402976D01*
X22974406Y15405049D01*
X22974359Y15443887D01*
X22975449Y15482723D01*
X22974310Y15484829D01*
X22974308Y15487224D01*
X22954846Y15520841D01*
X22936375Y15555013D01*
X22934334Y15556269D01*
X22933135Y15558341D01*
X22899470Y15577724D01*
X22866389Y15598081D01*
X22863995Y15598149D01*
X22861920Y15599343D01*
X22529989Y15687858D01*
X22861920Y15776373D01*
X22863995Y15777568D01*
X22866389Y15777635D01*
X22899462Y15797989D01*
X22933135Y15817375D01*
X22934335Y15819449D01*
X22936374Y15820703D01*
X22954838Y15854863D01*
X22974308Y15888492D01*
X22974310Y15890888D01*
X22975449Y15892993D01*
X22974359Y15931814D01*
X22974406Y15970667D01*
X22973211Y15972743D01*
X22973144Y15975136D01*
X22952786Y16008218D01*
X22933404Y16041882D01*
X22931331Y16043082D01*
X22930076Y16045122D01*
X22895909Y16063590D01*
X22862287Y16083055D01*
X22859890Y16083058D01*
X22857785Y16084196D01*
X21587786Y16386576D01*
X21505643Y16384271D01*
X21435657Y16341203D01*
X21396583Y16268913D01*
X21398888Y16186770D01*
X21441956Y16116784D01*
X21514246Y16077710D01*
X22172223Y15921050D01*
X21872969Y15841248D01*
X21872799Y15841151D01*
X21872602Y15841150D01*
X21837172Y15820639D01*
X21801754Y15800246D01*
X21801655Y15800076D01*
X21801485Y15799977D01*
X21781092Y15764559D01*
X21760581Y15729129D01*
X21760580Y15728932D01*
X21760483Y15728762D01*
X21760531Y15687858D01*
X21760483Y15646954D01*
X21760580Y15646785D01*
X21760581Y15646587D01*
X21781092Y15611158D01*
X21801485Y15575739D01*
X21801655Y15575641D01*
X21801754Y15575470D01*
X21837172Y15555078D01*
X21872602Y15534566D01*
X21872799Y15534566D01*
X21872969Y15534468D01*
X22172224Y15454667D01*
X21514246Y15298005D01*
X21441956Y15258930D01*
X21398888Y15188945D01*
X21396583Y15106802D01*
X21210837Y15106802D01*
X21210837Y16715953D01*
X21392266Y16715953D01*
X21413534Y16636578D01*
X21471641Y16578471D01*
X21551016Y16557203D01*
X22216254Y16557203D01*
X22821016Y16557203D01*
X22900391Y16578471D01*
X22958498Y16636578D01*
X22979766Y16715953D01*
X22958498Y16795328D01*
X22900391Y16853435D01*
X22821016Y16874703D01*
X22375004Y16874703D01*
X22375004Y16935681D01*
X22912053Y17311615D01*
X22964883Y17374557D01*
X22979164Y17455482D01*
X22952873Y17527745D01*
X23021343Y17546090D01*
X23079450Y17604197D01*
X23100718Y17683572D01*
X23100718Y18651192D01*
X23079450Y18730567D01*
X23021343Y18788674D01*
X22941968Y18809942D01*
X22862593Y18788674D01*
X22804486Y18730567D01*
X22783218Y18651192D01*
X22783218Y17683572D01*
X22804486Y17604197D01*
X22809223Y17599460D01*
X22807201Y17599816D01*
X22729978Y17571721D01*
X22343152Y17300943D01*
X22297768Y17391710D01*
X22280810Y17410834D01*
X22268031Y17432968D01*
X22207554Y17493445D01*
X22185421Y17506224D01*
X22166296Y17523183D01*
X22045344Y17583658D01*
X22009599Y17590973D01*
X21974349Y17600418D01*
X21792920Y17600418D01*
X21757671Y17590974D01*
X21721924Y17583658D01*
X21600973Y17523182D01*
X21581849Y17506225D01*
X21559714Y17493444D01*
X21499238Y17432967D01*
X21486460Y17410836D01*
X21469501Y17391710D01*
X21409026Y17270758D01*
X21401711Y17235014D01*
X21392266Y17199763D01*
X21392266Y16715953D01*
X21210837Y16715953D01*
X21210837Y18953572D01*
X21392266Y18953572D01*
X21413534Y18874197D01*
X21471641Y18816090D01*
X21551016Y18794822D01*
X22821016Y18794822D01*
X22900391Y18816090D01*
X22958498Y18874197D01*
X22979766Y18953572D01*
X22979766Y19558334D01*
X22958498Y19637709D01*
X22900391Y19695816D01*
X22821016Y19717084D01*
X22741641Y19695816D01*
X22683534Y19637709D01*
X22662266Y19558334D01*
X22662266Y19112322D01*
X21551016Y19112322D01*
X21471641Y19091054D01*
X21413534Y19032947D01*
X21392266Y18953572D01*
X21210837Y18953572D01*
X21210837Y19981667D01*
X21392266Y19981667D01*
X21413534Y19902292D01*
X21471641Y19844185D01*
X21551016Y19822917D01*
X22155778Y19822917D01*
X22821016Y19822917D01*
X22900391Y19844185D01*
X22958498Y19902292D01*
X22979766Y19981667D01*
X22979766Y20586429D01*
X22958498Y20665804D01*
X22900391Y20723911D01*
X22821016Y20745179D01*
X22741641Y20723911D01*
X22683534Y20665804D01*
X22662266Y20586429D01*
X22662266Y20140417D01*
X22314528Y20140417D01*
X22314528Y20405001D01*
X22293260Y20484376D01*
X22235153Y20542483D01*
X22155778Y20563751D01*
X22076403Y20542483D01*
X22018296Y20484376D01*
X21997028Y20405001D01*
X21997028Y20140417D01*
X21709766Y20140417D01*
X21709766Y20586429D01*
X21688498Y20665804D01*
X21630391Y20723911D01*
X21551016Y20745179D01*
X21471641Y20723911D01*
X21413534Y20665804D01*
X21392266Y20586429D01*
X21392266Y19981667D01*
X21210837Y19981667D01*
X21210837Y21130715D01*
X21392266Y21130715D01*
X21413534Y21051340D01*
X21471641Y20993233D01*
X21551016Y20971965D01*
X22821016Y20971965D01*
X22900391Y20993233D01*
X22958498Y21051340D01*
X22979766Y21130715D01*
X22979766Y21433096D01*
X22973151Y21457784D01*
X22971620Y21483297D01*
X22911144Y21664726D01*
X22891036Y21695180D01*
X22872793Y21726778D01*
X22751840Y21847731D01*
X22729705Y21860511D01*
X22710583Y21877467D01*
X22589631Y21937944D01*
X22572459Y21941458D01*
X22557137Y21949964D01*
X22315232Y22010440D01*
X22295649Y22010111D01*
X22276730Y22015180D01*
X22095301Y22015180D01*
X22076381Y22010111D01*
X22056799Y22010440D01*
X21814894Y21949964D01*
X21799570Y21941458D01*
X21782402Y21937944D01*
X21661448Y21877467D01*
X21642323Y21860509D01*
X21620191Y21847730D01*
X21499239Y21726778D01*
X21480995Y21695180D01*
X21460888Y21664726D01*
X21400412Y21483297D01*
X21398880Y21457784D01*
X21392266Y21433096D01*
X21392266Y21130715D01*
X21210837Y21130715D01*
X21210837Y22703096D01*
X21392266Y22703096D01*
X21401621Y22668179D01*
X21408711Y22632733D01*
X21412175Y22628791D01*
X21413534Y22623721D01*
X21439094Y22598161D01*
X21462957Y22571008D01*
X21631305Y22458776D01*
X21722927Y22367155D01*
X21771882Y22269245D01*
X21826402Y22207761D01*
X21904361Y22181774D01*
X21984868Y22198249D01*
X22046352Y22252769D01*
X22072338Y22330727D01*
X22055863Y22411234D01*
X21995388Y22532187D01*
X21984606Y22544346D01*
X22662266Y22544346D01*
X22662266Y22340239D01*
X22683534Y22260864D01*
X22741641Y22202757D01*
X22821016Y22181489D01*
X22900391Y22202757D01*
X22958498Y22260864D01*
X22979766Y22340239D01*
X22979766Y23065954D01*
X22958498Y23145329D01*
X22900391Y23203436D01*
X22821016Y23224704D01*
X22741641Y23203436D01*
X22683534Y23145329D01*
X22662266Y23065954D01*
X22662266Y22861846D01*
X21551016Y22861846D01*
X21516098Y22852491D01*
X21480653Y22845401D01*
X21476710Y22841937D01*
X21471641Y22840578D01*
X21446080Y22815018D01*
X21418928Y22791155D01*
X21417246Y22786184D01*
X21413534Y22782471D01*
X21404177Y22747553D01*
X21392595Y22713313D01*
X21393624Y22708166D01*
X21392266Y22703096D01*
X21210837Y22703096D01*
X21210837Y23406133D01*
X23282147Y23406133D01*
X23282147Y13654345D01*
G37*
D15*
X28900702Y23667167D02*
X28011702Y23667167D01*
X28900702Y24175167D02*
X28392702Y23794167D01*
X28011702Y24175167D02*
X28519702Y23667167D01*
X28646702Y21988334D02*
X28646702Y22411667D01*
X28900702Y21903667D02*
X28011702Y22200000D01*
X28011702Y22200000D02*
X28900702Y22496334D01*
D12*
G36*
X2543106Y32408038D02*
G01*
X2567149Y32383995D01*
X2599345Y32319604D01*
X2599345Y32213128D01*
X2567149Y32148736D01*
X2543105Y32124692D01*
X2478715Y32092496D01*
X2191130Y32092496D01*
X2191130Y32440234D01*
X2478715Y32440234D01*
X2543106Y32408038D01*
G37*
G36*
X5577798Y30988805D02*
G01*
X422201Y30988805D01*
X422201Y32236127D01*
X603630Y32236127D01*
X613075Y32200877D01*
X620390Y32165132D01*
X680865Y32044180D01*
X697824Y32025055D01*
X710604Y32002921D01*
X771081Y31942445D01*
X793213Y31929667D01*
X812337Y31912709D01*
X933289Y31852232D01*
X950460Y31848719D01*
X965783Y31840212D01*
X1190781Y31783963D01*
X1273105Y31742801D01*
X1297148Y31718758D01*
X1329345Y31654365D01*
X1329345Y31608366D01*
X1297148Y31543973D01*
X1273105Y31519930D01*
X1208715Y31487734D01*
X969572Y31487734D01*
X812581Y31540064D01*
X730554Y31544987D01*
X657054Y31508237D01*
X611776Y31439661D01*
X606853Y31357634D01*
X643603Y31284134D01*
X712179Y31238856D01*
X893608Y31178380D01*
X919121Y31176849D01*
X943809Y31170234D01*
X1246190Y31170234D01*
X1281440Y31179680D01*
X1317185Y31186994D01*
X1438137Y31247469D01*
X1457262Y31264429D01*
X1479396Y31277208D01*
X1531171Y31328984D01*
X1873630Y31328984D01*
X1894898Y31249609D01*
X1953005Y31191502D01*
X2032380Y31170234D01*
X2111755Y31191502D01*
X2169862Y31249609D01*
X2191130Y31328984D01*
X3143630Y31328984D01*
X3164898Y31249609D01*
X3223005Y31191502D01*
X3302380Y31170234D01*
X3381755Y31191502D01*
X3439862Y31249609D01*
X3461130Y31328984D01*
X3461130Y31807514D01*
X3466633Y31813017D01*
X3901095Y31233734D01*
X3965735Y31182994D01*
X4047084Y31171373D01*
X4123345Y31201984D01*
X4174084Y31266623D01*
X4182993Y31328984D01*
X4353154Y31328984D01*
X4374422Y31249609D01*
X4432529Y31191502D01*
X4511904Y31170234D01*
X4874761Y31170234D01*
X5237619Y31170234D01*
X5316994Y31191502D01*
X5375101Y31249609D01*
X5396369Y31328984D01*
X5375101Y31408359D01*
X5316994Y31466466D01*
X5237619Y31487734D01*
X5033511Y31487734D01*
X5033511Y32598984D01*
X5024154Y32633905D01*
X5017066Y32669346D01*
X5013601Y32673288D01*
X5012243Y32678359D01*
X4986674Y32703928D01*
X4962819Y32731072D01*
X4957848Y32732754D01*
X4954136Y32736466D01*
X4919215Y32745823D01*
X4884978Y32757405D01*
X4879830Y32756376D01*
X4874761Y32757734D01*
X4839843Y32748379D01*
X4804398Y32741289D01*
X4800455Y32737825D01*
X4795386Y32736466D01*
X4769821Y32710902D01*
X4742673Y32687042D01*
X4630439Y32518693D01*
X4538818Y32427072D01*
X4440909Y32378118D01*
X4379425Y32323597D01*
X4353439Y32245639D01*
X4369913Y32165132D01*
X4424434Y32103648D01*
X4502392Y32077662D01*
X4582899Y32094136D01*
X4703851Y32154612D01*
X4716011Y32165395D01*
X4716011Y31487734D01*
X4511904Y31487734D01*
X4432529Y31466466D01*
X4374422Y31408359D01*
X4353154Y31328984D01*
X4182993Y31328984D01*
X4185706Y31347973D01*
X4155095Y31424234D01*
X3693418Y32039803D01*
X4140348Y32486731D01*
X4181436Y32557896D01*
X4181436Y32640072D01*
X4140348Y32711237D01*
X4069183Y32752325D01*
X3987007Y32752325D01*
X3915842Y32711237D01*
X3461130Y32256526D01*
X3461130Y32598984D01*
X3439862Y32678359D01*
X3381755Y32736466D01*
X3302380Y32757734D01*
X3223005Y32736466D01*
X3164898Y32678359D01*
X3143630Y32598984D01*
X3143630Y31328984D01*
X2191130Y31328984D01*
X2191130Y31774996D01*
X2516190Y31774996D01*
X2551440Y31784442D01*
X2587185Y31791756D01*
X2708137Y31852231D01*
X2727262Y31869191D01*
X2749395Y31881969D01*
X2809872Y31942446D01*
X2822651Y31964581D01*
X2839609Y31983704D01*
X2900085Y32104655D01*
X2907400Y32140403D01*
X2916845Y32175651D01*
X2916845Y32357080D01*
X2907400Y32392329D01*
X2900085Y32428076D01*
X2839609Y32549027D01*
X2822651Y32568151D01*
X2809871Y32590286D01*
X2749394Y32650762D01*
X2727262Y32663540D01*
X2708137Y32680499D01*
X2587185Y32740974D01*
X2551440Y32748289D01*
X2516190Y32757734D01*
X2032380Y32757734D01*
X1953005Y32736466D01*
X1894898Y32678359D01*
X1873630Y32598984D01*
X1873630Y31328984D01*
X1531171Y31328984D01*
X1539872Y31337685D01*
X1552650Y31359818D01*
X1569608Y31378941D01*
X1630085Y31499893D01*
X1637400Y31535642D01*
X1646845Y31570889D01*
X1646845Y31691841D01*
X1637399Y31727092D01*
X1630085Y31762836D01*
X1569608Y31883790D01*
X1552649Y31902915D01*
X1539871Y31925047D01*
X1479395Y31985523D01*
X1457262Y31998302D01*
X1438137Y32015261D01*
X1317185Y32075736D01*
X1300015Y32079250D01*
X1284692Y32087756D01*
X1059695Y32144005D01*
X977368Y32185169D01*
X953325Y32209212D01*
X921130Y32273603D01*
X921130Y32319605D01*
X953325Y32383996D01*
X977369Y32408039D01*
X1041761Y32440234D01*
X1280903Y32440234D01*
X1437894Y32387904D01*
X1519922Y32382981D01*
X1593422Y32419731D01*
X1638699Y32488307D01*
X1643623Y32570334D01*
X1606872Y32643834D01*
X1538296Y32689112D01*
X1356867Y32749588D01*
X1331353Y32751120D01*
X1306666Y32757734D01*
X1004285Y32757734D01*
X969036Y32748290D01*
X933289Y32740974D01*
X812338Y32680498D01*
X793215Y32663542D01*
X771081Y32650762D01*
X710604Y32590286D01*
X697824Y32568153D01*
X680865Y32549027D01*
X620390Y32428075D01*
X613075Y32392331D01*
X603630Y32357080D01*
X603630Y32236127D01*
X422201Y32236127D01*
X422201Y32939163D01*
X5577798Y32939163D01*
X5577798Y30988805D01*
G37*
D14*
X1375392Y20822668D02*
X1375392Y22177334D01*
X2052725Y21500001D02*
X698059Y21500001D01*
D12*
G36*
X21751264Y24766437D02*
G01*
X21775308Y24742393D01*
X21807504Y24678001D01*
X21807504Y24390417D01*
X21459766Y24390417D01*
X21459766Y24678002D01*
X21491962Y24742394D01*
X21516005Y24766437D01*
X21580396Y24798632D01*
X21686874Y24798632D01*
X21751264Y24766437D01*
G37*
G36*
X22213224Y30069029D02*
G01*
X22295548Y30027866D01*
X22371787Y29951628D01*
X22412266Y29830191D01*
X22412266Y29712322D01*
X21459766Y29712322D01*
X21459766Y29830191D01*
X21500245Y29951630D01*
X21576480Y30027865D01*
X21658806Y30069028D01*
X21864844Y30120537D01*
X22007188Y30120537D01*
X22213224Y30069029D01*
G37*
G36*
X21690788Y31297865D02*
G01*
X21714831Y31273822D01*
X21747028Y31209430D01*
X21747028Y30982322D01*
X21459766Y30982322D01*
X21459766Y31209431D01*
X21491961Y31273822D01*
X21516004Y31297865D01*
X21580397Y31330061D01*
X21626396Y31330061D01*
X21690788Y31297865D01*
G37*
G36*
X22356026Y31358342D02*
G01*
X22380070Y31334298D01*
X22412266Y31269906D01*
X22412266Y30982322D01*
X22064528Y30982322D01*
X22064528Y31221146D01*
X22105007Y31342582D01*
X22120767Y31358342D01*
X22185158Y31390537D01*
X22291636Y31390537D01*
X22356026Y31358342D01*
G37*
G36*
X23213248Y23891488D02*
G01*
X20900690Y23891488D01*
X20900690Y24231667D01*
X21142266Y24231667D01*
X21163534Y24152292D01*
X21221641Y24094185D01*
X21301016Y24072917D01*
X21966254Y24072917D01*
X22571016Y24072917D01*
X22650391Y24094185D01*
X22708498Y24152292D01*
X22729766Y24231667D01*
X22708498Y24311042D01*
X22650391Y24369149D01*
X22571016Y24390417D01*
X22125004Y24390417D01*
X22125004Y24715477D01*
X22115559Y24750726D01*
X22108244Y24786473D01*
X22047768Y24907424D01*
X22030810Y24926548D01*
X22018031Y24948682D01*
X21957554Y25009159D01*
X21935421Y25021938D01*
X21916296Y25038897D01*
X21795344Y25099372D01*
X21759599Y25106687D01*
X21724349Y25116132D01*
X21542920Y25116132D01*
X21507671Y25106688D01*
X21471924Y25099372D01*
X21350973Y25038896D01*
X21331849Y25021939D01*
X21309714Y25009158D01*
X21249238Y24948681D01*
X21236460Y24926550D01*
X21219501Y24907424D01*
X21159026Y24786472D01*
X21151711Y24750728D01*
X21142266Y24715477D01*
X21142266Y24231667D01*
X20900690Y24231667D01*
X20900690Y25864525D01*
X21142266Y25864525D01*
X21148880Y25839838D01*
X21150412Y25814324D01*
X21210888Y25632895D01*
X21230995Y25602442D01*
X21249239Y25570843D01*
X21370191Y25449891D01*
X21392323Y25437113D01*
X21411448Y25420154D01*
X21532402Y25359677D01*
X21549570Y25356164D01*
X21564894Y25347657D01*
X21806799Y25287181D01*
X21826381Y25287511D01*
X21845301Y25282441D01*
X22026730Y25282441D01*
X22045649Y25287511D01*
X22065232Y25287181D01*
X22307137Y25347657D01*
X22322459Y25356164D01*
X22339631Y25359677D01*
X22460583Y25420154D01*
X22479705Y25437111D01*
X22501840Y25449890D01*
X22622793Y25570843D01*
X22641036Y25602442D01*
X22661144Y25632895D01*
X22721620Y25814324D01*
X22723151Y25839838D01*
X22729766Y25864525D01*
X22729766Y25985477D01*
X22723151Y26010165D01*
X22721620Y26035678D01*
X22661144Y26217107D01*
X22641037Y26247560D01*
X22622792Y26279160D01*
X22562315Y26339636D01*
X22544217Y26350085D01*
X22529438Y26364864D01*
X22509249Y26370274D01*
X22491150Y26380723D01*
X22470250Y26380723D01*
X22450063Y26386132D01*
X22026730Y26386132D01*
X21947355Y26364864D01*
X21889248Y26306757D01*
X21867980Y26227382D01*
X21867980Y25985477D01*
X21889248Y25906102D01*
X21947355Y25847995D01*
X22026730Y25826727D01*
X22106105Y25847995D01*
X22164212Y25906102D01*
X22185480Y25985477D01*
X22185480Y26068632D01*
X22375960Y26068632D01*
X22412266Y25959715D01*
X22412266Y25890288D01*
X22371787Y25768851D01*
X22295548Y25692613D01*
X22213224Y25651450D01*
X22007188Y25599941D01*
X21864844Y25599941D01*
X21658806Y25651451D01*
X21576480Y25692614D01*
X21500245Y25768849D01*
X21459766Y25890288D01*
X21459766Y26008477D01*
X21503482Y26095911D01*
X21519957Y26176418D01*
X21493971Y26254376D01*
X21432487Y26308896D01*
X21351980Y26325371D01*
X21274021Y26299384D01*
X21219501Y26237900D01*
X21159025Y26116948D01*
X21151709Y26081197D01*
X21142266Y26045953D01*
X21142266Y25864525D01*
X20900690Y25864525D01*
X20900690Y26771667D01*
X21142266Y26771667D01*
X21151172Y26738426D01*
X21157159Y26704534D01*
X21161704Y26699121D01*
X21163534Y26692292D01*
X21187871Y26667955D01*
X21209999Y26641600D01*
X21216641Y26639185D01*
X21221641Y26634185D01*
X21254887Y26625277D01*
X21287227Y26613517D01*
X21294188Y26614747D01*
X21301016Y26612917D01*
X22571016Y26612917D01*
X22650391Y26634185D01*
X22708498Y26692292D01*
X22729766Y26771667D01*
X22708498Y26851042D01*
X22650391Y26909149D01*
X22571016Y26930417D01*
X22016592Y26930417D01*
X22275292Y27051144D01*
X22286017Y27060149D01*
X22299176Y27064934D01*
X22316998Y27086162D01*
X22338226Y27103984D01*
X22343011Y27117143D01*
X22352016Y27127868D01*
X22356837Y27155166D01*
X22366309Y27181212D01*
X22363873Y27195001D01*
X22366309Y27208790D01*
X22356836Y27234841D01*
X22352015Y27262134D01*
X22343011Y27272858D01*
X22338226Y27286018D01*
X22316997Y27303842D01*
X22299176Y27325068D01*
X22286017Y27329854D01*
X22275292Y27338858D01*
X22016593Y27459584D01*
X22571016Y27459584D01*
X22650391Y27480852D01*
X22708498Y27538959D01*
X22729766Y27618334D01*
X22708498Y27697709D01*
X22650391Y27755816D01*
X22571016Y27777084D01*
X21301016Y27777084D01*
X21294188Y27775255D01*
X21287227Y27776484D01*
X21254887Y27764725D01*
X21221641Y27755816D01*
X21216641Y27750817D01*
X21209999Y27748401D01*
X21187871Y27722047D01*
X21163534Y27697709D01*
X21161704Y27690881D01*
X21157159Y27685467D01*
X21151172Y27651576D01*
X21142266Y27618334D01*
X21144095Y27611507D01*
X21142866Y27604545D01*
X21154625Y27572206D01*
X21163534Y27538959D01*
X21168533Y27533960D01*
X21170949Y27527317D01*
X21197303Y27505190D01*
X21221641Y27480852D01*
X21228469Y27479023D01*
X21233883Y27474477D01*
X21832761Y27195001D01*
X21233883Y26915524D01*
X21228469Y26910979D01*
X21221641Y26909149D01*
X21197303Y26884812D01*
X21170949Y26862684D01*
X21168533Y26856042D01*
X21163534Y26851042D01*
X21154625Y26817796D01*
X21142866Y26785456D01*
X21144095Y26778495D01*
X21142266Y26771667D01*
X20900690Y26771667D01*
X20900690Y29140456D01*
X21082119Y29140456D01*
X21098235Y29059876D01*
X21152481Y28998151D01*
X22785339Y27909580D01*
X22863180Y27883247D01*
X22943760Y27899363D01*
X23005485Y27953609D01*
X23031819Y28031451D01*
X23015703Y28112030D01*
X22961456Y28173756D01*
X21328599Y29262327D01*
X21250757Y29288660D01*
X21170177Y29272544D01*
X21108452Y29218298D01*
X21082119Y29140456D01*
X20900690Y29140456D01*
X20900690Y29553572D01*
X21142266Y29553572D01*
X21163534Y29474197D01*
X21221641Y29416090D01*
X21301016Y29394822D01*
X22571016Y29394822D01*
X22650391Y29416090D01*
X22708498Y29474197D01*
X22729766Y29553572D01*
X22729766Y29855953D01*
X22723151Y29880641D01*
X22721620Y29906154D01*
X22661144Y30087583D01*
X22641036Y30118037D01*
X22622793Y30149635D01*
X22501840Y30270588D01*
X22479705Y30283368D01*
X22460583Y30300324D01*
X22339631Y30360801D01*
X22322459Y30364315D01*
X22307137Y30372821D01*
X22065232Y30433297D01*
X22045649Y30432968D01*
X22026730Y30438037D01*
X21845301Y30438037D01*
X21826381Y30432968D01*
X21806799Y30433297D01*
X21564894Y30372821D01*
X21549570Y30364315D01*
X21532402Y30360801D01*
X21411448Y30300324D01*
X21392323Y30283366D01*
X21370191Y30270587D01*
X21249239Y30149635D01*
X21230995Y30118037D01*
X21210888Y30087583D01*
X21150412Y29906154D01*
X21148880Y29880641D01*
X21142266Y29855953D01*
X21142266Y29553572D01*
X20900690Y29553572D01*
X20900690Y30823572D01*
X21142266Y30823572D01*
X21163534Y30744197D01*
X21221641Y30686090D01*
X21301016Y30664822D01*
X21905778Y30664822D01*
X22571016Y30664822D01*
X22650391Y30686090D01*
X22708498Y30744197D01*
X22729766Y30823572D01*
X22729766Y31307382D01*
X22720321Y31342631D01*
X22713006Y31378378D01*
X22652530Y31499329D01*
X22635572Y31518453D01*
X22622793Y31540587D01*
X22562316Y31601064D01*
X22540183Y31613843D01*
X22521058Y31630802D01*
X22400106Y31691277D01*
X22364361Y31698592D01*
X22329111Y31708037D01*
X22147682Y31708037D01*
X22112433Y31698593D01*
X22076686Y31691277D01*
X21955735Y31630801D01*
X21936611Y31613844D01*
X21914476Y31601063D01*
X21870617Y31557204D01*
X21855821Y31570324D01*
X21734869Y31630801D01*
X21699120Y31638117D01*
X21663873Y31647561D01*
X21542920Y31647561D01*
X21507672Y31638117D01*
X21471924Y31630801D01*
X21350972Y31570324D01*
X21331847Y31553366D01*
X21309715Y31540587D01*
X21249239Y31480111D01*
X21236460Y31457979D01*
X21219501Y31438853D01*
X21159026Y31317901D01*
X21151711Y31282157D01*
X21142266Y31246906D01*
X21142266Y30823572D01*
X20900690Y30823572D01*
X20900690Y32456430D01*
X21142266Y32456430D01*
X21148880Y32431743D01*
X21150412Y32406229D01*
X21210888Y32224800D01*
X21230995Y32194347D01*
X21249239Y32162748D01*
X21370191Y32041796D01*
X21392323Y32029018D01*
X21411448Y32012059D01*
X21532402Y31951582D01*
X21549570Y31948069D01*
X21564894Y31939562D01*
X21806799Y31879086D01*
X21826381Y31879416D01*
X21845301Y31874346D01*
X22026730Y31874346D01*
X22045649Y31879416D01*
X22065232Y31879086D01*
X22307137Y31939562D01*
X22322459Y31948069D01*
X22339631Y31951582D01*
X22460583Y32012059D01*
X22479705Y32029016D01*
X22501840Y32041795D01*
X22622793Y32162748D01*
X22641036Y32194347D01*
X22661144Y32224800D01*
X22721620Y32406229D01*
X22723151Y32431743D01*
X22729766Y32456430D01*
X22729766Y32577382D01*
X22723151Y32602070D01*
X22721620Y32627583D01*
X22661144Y32809012D01*
X22641037Y32839465D01*
X22622792Y32871065D01*
X22562315Y32931541D01*
X22544217Y32941990D01*
X22529438Y32956769D01*
X22509249Y32962179D01*
X22491150Y32972628D01*
X22470250Y32972628D01*
X22450063Y32978037D01*
X22026730Y32978037D01*
X21947355Y32956769D01*
X21889248Y32898662D01*
X21867980Y32819287D01*
X21867980Y32577382D01*
X21889248Y32498007D01*
X21947355Y32439900D01*
X22026730Y32418632D01*
X22106105Y32439900D01*
X22164212Y32498007D01*
X22185480Y32577382D01*
X22185480Y32660537D01*
X22375960Y32660537D01*
X22412266Y32551620D01*
X22412266Y32482193D01*
X22371787Y32360756D01*
X22295548Y32284518D01*
X22213224Y32243355D01*
X22007188Y32191846D01*
X21864844Y32191846D01*
X21658806Y32243356D01*
X21576480Y32284519D01*
X21500245Y32360754D01*
X21459766Y32482193D01*
X21459766Y32600382D01*
X21503482Y32687816D01*
X21519957Y32768323D01*
X21493971Y32846281D01*
X21432487Y32900801D01*
X21351980Y32917276D01*
X21274021Y32891289D01*
X21219501Y32829805D01*
X21159025Y32708853D01*
X21151709Y32673102D01*
X21142266Y32637858D01*
X21142266Y32456430D01*
X20900690Y32456430D01*
X20900690Y33665953D01*
X21142266Y33665953D01*
X21151621Y33631036D01*
X21158711Y33595590D01*
X21162175Y33591648D01*
X21163534Y33586578D01*
X21189094Y33561018D01*
X21212957Y33533865D01*
X21381305Y33421633D01*
X21472927Y33330012D01*
X21521882Y33232102D01*
X21576402Y33170618D01*
X21654361Y33144631D01*
X21734868Y33161106D01*
X21796352Y33215626D01*
X21822338Y33293584D01*
X21805863Y33374091D01*
X21745388Y33495044D01*
X21734606Y33507203D01*
X22412266Y33507203D01*
X22412266Y33303096D01*
X22433534Y33223721D01*
X22491641Y33165614D01*
X22571016Y33144346D01*
X22650391Y33165614D01*
X22708498Y33223721D01*
X22729766Y33303096D01*
X22729766Y34028811D01*
X22708498Y34108186D01*
X22650391Y34166293D01*
X22571016Y34187561D01*
X22491641Y34166293D01*
X22433534Y34108186D01*
X22412266Y34028811D01*
X22412266Y33824703D01*
X21301016Y33824703D01*
X21266098Y33815348D01*
X21230653Y33808258D01*
X21226710Y33804794D01*
X21221641Y33803435D01*
X21196080Y33777875D01*
X21168928Y33754012D01*
X21167246Y33749041D01*
X21163534Y33745328D01*
X21154177Y33710410D01*
X21142595Y33676170D01*
X21143624Y33671023D01*
X21142266Y33665953D01*
X20900690Y33665953D01*
X20900690Y34368990D01*
X23213248Y34368990D01*
X23213248Y23891488D01*
G37*
D10*
X11500000Y23250000D02*
X11500000Y24000000D01*
X10500000Y24000000D02*
X10500000Y28000000D01*
X12500000Y24000000D02*
X10500000Y24000000D01*
X12500000Y24000000D02*
X12500000Y28000000D01*
X10500000Y24750000D02*
X12500000Y24750000D01*
X12500000Y25000000D02*
X10500000Y25000000D01*
X12500000Y25250000D02*
X10500000Y25250000D01*
X11500000Y28000000D02*
X11500000Y28750000D01*
X12500000Y28000000D02*
X10500000Y28000000D01*
X6800000Y30450000D02*
X7685032Y30052251D01*
X6800000Y30450000D02*
X6800000Y35050000D01*
X6800000Y35050000D02*
X7750000Y35500000D01*
X7685032Y30052252D02*
G75*
G03*
X7750000Y35499999I302127J2720658D01*
G01*
X25984000Y28230000D02*
X25984000Y27976000D01*
X25984000Y28230000D02*
X26238000Y28484000D01*
X28016000Y28230000D02*
X28016000Y27976000D01*
X26238000Y28484000D02*
X26238000Y30516000D01*
X27762000Y28484000D02*
X28016000Y28230000D01*
X27762000Y28484000D02*
X27762000Y30516000D01*
X27762000Y30516000D02*
X28016000Y30770000D01*
X25984000Y30770000D02*
X26238000Y30516000D01*
X25984000Y30770000D02*
X25984000Y31024000D01*
X28016000Y30770000D02*
X28016000Y31024000D01*
X25984000Y27976000D02*
G75*
G03*
X26238000Y27722000I254000J0D01*
G01*
X27762000Y27722000D02*
G75*
G03*
X28016000Y27976000I0J254000D01*
G01*
X26238000Y31278000D02*
G75*
G03*
X25984000Y31024000I0J-254000D01*
G01*
X28016000Y31024000D02*
G75*
G03*
X27762000Y31278000I-254000J0D01*
G01*
X20016000Y37770000D02*
X20016000Y38024000D01*
X20016000Y37770000D02*
X19762000Y37516000D01*
X17984000Y37770000D02*
X17984000Y38024000D01*
X19762000Y37516000D02*
X19762000Y35484000D01*
X18238000Y37516000D02*
X17984000Y37770000D01*
X18238000Y37516000D02*
X18238000Y35484000D01*
X18238000Y35484000D02*
X17984000Y35230000D01*
X20016000Y35230000D02*
X19762000Y35484000D01*
X20016000Y35230000D02*
X20016000Y34976000D01*
X17984000Y35230000D02*
X17984000Y34976000D01*
X20016000Y38024000D02*
G75*
G03*
X19762000Y38278000I-254000J0D01*
G01*
X18238000Y38278000D02*
G75*
G03*
X17984000Y38024000I0J-254000D01*
G01*
X19762000Y34722000D02*
G75*
G03*
X20016000Y34976000I0J254000D01*
G01*
X17984000Y34976000D02*
G75*
G03*
X18238000Y34722000I254000J0D01*
G01*
X12516000Y37770000D02*
X12516000Y38024000D01*
X12516000Y37770000D02*
X12262000Y37516000D01*
X10484000Y37770000D02*
X10484000Y38024000D01*
X12262000Y37516000D02*
X12262000Y35484000D01*
X10738000Y37516000D02*
X10484000Y37770000D01*
X10738000Y37516000D02*
X10738000Y35484000D01*
X10738000Y35484000D02*
X10484000Y35230000D01*
X12516000Y35230000D02*
X12262000Y35484000D01*
X12516000Y35230000D02*
X12516000Y34976000D01*
X10484000Y35230000D02*
X10484000Y34976000D01*
X12516000Y38024000D02*
G75*
G03*
X12262000Y38278000I-254000J0D01*
G01*
X10738000Y38278000D02*
G75*
G03*
X10484000Y38024000I0J-254000D01*
G01*
X12262000Y34722000D02*
G75*
G03*
X12516000Y34976000I0J254000D01*
G01*
X10484000Y34976000D02*
G75*
G03*
X10738000Y34722000I254000J0D01*
G01*
X31000000Y41280000D02*
X31000000Y50080000D01*
X31000000Y41280000D02*
X0Y41280000D01*
X30500000Y50080000D02*
X30500000Y54480000D01*
X30500000Y54480000D02*
X25100000Y54480000D01*
X29100000Y50080000D02*
X29100000Y54480000D01*
X26500000Y54480000D02*
X26500000Y50080000D01*
X25100000Y54480000D02*
X25100000Y50080000D01*
X23500000Y50080000D02*
X23500000Y55330000D01*
X8150000Y55980000D02*
X22850000Y55980000D01*
X7500000Y50080000D02*
X7500000Y55330000D01*
X5900000Y50080000D02*
X5900000Y54480000D01*
X5900000Y54480000D02*
X500000Y54480000D01*
X4500000Y50080000D02*
X4500000Y54480000D01*
X1900000Y54480000D02*
X1900000Y50080000D01*
X500000Y54480000D02*
X500000Y50080000D01*
X0Y41280000D02*
X0Y50080000D01*
X0Y50080000D02*
X31000000Y50080000D01*
X23500001Y50829999D02*
G75*
G03*
X24200001Y50078218I699999J-49999D01*
G01*
X23499999Y55230001D02*
G75*
G03*
X22799999Y55981782I-699999J49999D01*
G01*
X6750001Y50080001D02*
G75*
G03*
X7501782Y50780001I49999J699999D01*
G01*
X8249999Y55979999D02*
G75*
G03*
X7498218Y55279999I-49999J-699999D01*
G01*
X17516000Y37770000D02*
X17516000Y38024000D01*
X17516000Y37770000D02*
X17262000Y37516000D01*
X15484000Y37770000D02*
X15484000Y38024000D01*
X17262000Y37516000D02*
X17262000Y35484000D01*
X15738000Y37516000D02*
X15484000Y37770000D01*
X15738000Y37516000D02*
X15738000Y35484000D01*
X15738000Y35484000D02*
X15484000Y35230000D01*
X17516000Y35230000D02*
X17262000Y35484000D01*
X17516000Y35230000D02*
X17516000Y34976000D01*
X15484000Y35230000D02*
X15484000Y34976000D01*
X17516000Y38024000D02*
G75*
G03*
X17262000Y38278000I-254000J0D01*
G01*
X15738000Y38278000D02*
G75*
G03*
X15484000Y38024000I0J-254000D01*
G01*
X17262000Y34722000D02*
G75*
G03*
X17516000Y34976000I0J254000D01*
G01*
X15484000Y34976000D02*
G75*
G03*
X15738000Y34722000I254000J0D01*
G01*
X20148000Y-2000000D02*
X29200000Y-2000000D01*
X29200000Y-2000000D02*
X29200000Y5277000D01*
X20148000Y11500000D02*
X20148000Y-2000000D01*
X20148000Y11500000D02*
X21753000Y11500000D01*
X29200000Y11500000D02*
X29200000Y11119000D01*
X29200280Y11500000D02*
X27722000Y11500000D01*
X15016000Y37770000D02*
X15016000Y38024000D01*
X15016000Y37770000D02*
X14762000Y37516000D01*
X12984000Y37770000D02*
X12984000Y38024000D01*
X14762000Y37516000D02*
X14762000Y35484000D01*
X13238000Y37516000D02*
X12984000Y37770000D01*
X13238000Y37516000D02*
X13238000Y35484000D01*
X13238000Y35484000D02*
X12984000Y35230000D01*
X15016000Y35230000D02*
X14762000Y35484000D01*
X15016000Y35230000D02*
X15016000Y34976000D01*
X12984000Y35230000D02*
X12984000Y34976000D01*
X15016000Y38024000D02*
G75*
G03*
X14762000Y38278000I-254000J0D01*
G01*
X13238000Y38278000D02*
G75*
G03*
X12984000Y38024000I0J-254000D01*
G01*
X14762000Y34722000D02*
G75*
G03*
X15016000Y34976000I0J254000D01*
G01*
X12984000Y34976000D02*
G75*
G03*
X13238000Y34722000I254000J0D01*
G01*
X18250000Y14500000D02*
X18250000Y20500000D01*
X20750000Y14500000D02*
X18250000Y14500000D01*
X20750000Y14500000D02*
X20750000Y20500000D01*
X20750000Y20500000D02*
X18250000Y20500000D01*
X17516000Y18770000D02*
X17516000Y19024000D01*
X17516000Y18770000D02*
X17262000Y18516000D01*
X15484000Y18770000D02*
X15484000Y19024000D01*
X17262000Y18516000D02*
X17262000Y16484000D01*
X15738000Y18516000D02*
X15484000Y18770000D01*
X15738000Y18516000D02*
X15738000Y16484000D01*
X15738000Y16484000D02*
X15484000Y16230000D01*
X17516000Y16230000D02*
X17262000Y16484000D01*
X17516000Y16230000D02*
X17516000Y15976000D01*
X15484000Y16230000D02*
X15484000Y15976000D01*
X17516000Y19024000D02*
G75*
G03*
X17262000Y19278000I-254000J0D01*
G01*
X15738000Y19278000D02*
G75*
G03*
X15484000Y19024000I0J-254000D01*
G01*
X17262000Y15722000D02*
G75*
G03*
X17516000Y15976000I0J254000D01*
G01*
X15484000Y15976000D02*
G75*
G03*
X15738000Y15722000I254000J0D01*
G01*
X15000000Y28150000D02*
X20000000Y28150000D01*
X15000000Y26100000D02*
X15000000Y28150000D01*
X15250000Y25850000D02*
X15000000Y26100000D01*
X20000000Y28150000D02*
X20000000Y25850000D01*
X20000000Y25850000D02*
X15250000Y25850000D01*
X15697566Y26365000D02*
G75*
G03*
X15302434Y26365000I-197566J0D01*
G01*
X15302434Y26365000D02*
G75*
G03*
X15697566Y26365000I197566J0D01*
G01*
X10484000Y16230000D02*
X10484000Y15976000D01*
X10484000Y16230000D02*
X10738000Y16484000D01*
X12516000Y16230000D02*
X12516000Y15976000D01*
X10738000Y16484000D02*
X10738000Y18516000D01*
X12262000Y16484000D02*
X12516000Y16230000D01*
X12262000Y16484000D02*
X12262000Y18516000D01*
X12262000Y18516000D02*
X12516000Y18770000D01*
X10484000Y18770000D02*
X10738000Y18516000D01*
X10484000Y18770000D02*
X10484000Y19024000D01*
X12516000Y18770000D02*
X12516000Y19024000D01*
X10484000Y15976000D02*
G75*
G03*
X10738000Y15722000I254000J0D01*
G01*
X12262000Y15722000D02*
G75*
G03*
X12516000Y15976000I0J254000D01*
G01*
X10738000Y19278000D02*
G75*
G03*
X10484000Y19024000I0J-254000D01*
G01*
X12516000Y19024000D02*
G75*
G03*
X12262000Y19278000I-254000J0D01*
G01*
X2000000Y11000000D02*
X16000000Y11000000D01*
X2000000Y5500000D02*
X2000000Y11000000D01*
X2000000Y-2000000D02*
X2000000Y1500000D01*
X16000000Y11000000D02*
X16000000Y5500000D01*
X16000000Y1500000D02*
X16000000Y-2000000D01*
X16000000Y-2000000D02*
X2000000Y-2000000D01*
X15016000Y18770000D02*
X15016000Y19024000D01*
X15016000Y18770000D02*
X14762000Y18516000D01*
X12984000Y18770000D02*
X12984000Y19024000D01*
X14762000Y18516000D02*
X14762000Y16484000D01*
X13238000Y18516000D02*
X12984000Y18770000D01*
X13238000Y18516000D02*
X13238000Y16484000D01*
X13238000Y16484000D02*
X12984000Y16230000D01*
X15016000Y16230000D02*
X14762000Y16484000D01*
X15016000Y16230000D02*
X15016000Y15976000D01*
X12984000Y16230000D02*
X12984000Y15976000D01*
X15016000Y19024000D02*
G75*
G03*
X14762000Y19278000I-254000J0D01*
G01*
X13238000Y19278000D02*
G75*
G03*
X12984000Y19024000I0J-254000D01*
G01*
X14762000Y15722000D02*
G75*
G03*
X15016000Y15976000I0J254000D01*
G01*
X12984000Y15976000D02*
G75*
G03*
X13238000Y15722000I254000J0D01*
G01*
X25350000Y25500000D02*
X28650000Y25500000D01*
X25400000Y24300000D02*
X25900000Y24300000D01*
X25400000Y24300000D02*
X25400000Y23500000D01*
X25900000Y23500000D02*
X24900000Y23500000D01*
X25400000Y23400000D02*
X24900000Y22500000D01*
D16*
X27727000Y23254000D02*
X27600000Y23127000D01*
X27600000Y23254000D02*
X27727000Y23254000D01*
X27600000Y23254000D02*
X27473000Y23254000D01*
X27473000Y23254000D02*
X27600000Y23000000D01*
X26965000Y23254000D02*
X26965000Y22746000D01*
X27600000Y23000000D02*
X27727000Y23254000D01*
X26965000Y22746000D02*
X27600000Y23254000D01*
X26457000Y22746000D02*
X26965000Y23254000D01*
D10*
X25900000Y22500000D02*
X25400000Y23400000D01*
X25400000Y22500000D02*
X25400000Y21700000D01*
X24900000Y22500000D02*
X25900000Y22500000D01*
X25400000Y21700000D02*
X25900000Y21700000D01*
X25350000Y20500000D02*
X25350000Y20500000D01*
X25350001Y25499999D02*
G75*
G03*
X28647833Y25501427I1649999J-2499999D01*
G01*
X29500000Y23000000D02*
G75*
G03*
X24500000Y23000000I-2500000J0D01*
G01*
X24500000Y23000000D02*
G75*
G03*
X29500000Y23000000I2500000J0D01*
G01*
X2750000Y23250000D02*
X2750000Y24750000D01*
X2000000Y24000000D02*
X3500000Y24000000D01*
X3500000Y24000000D02*
G75*
G03*
X2000000Y24000000I-750000J0D01*
G01*
X2000000Y24000000D02*
G75*
G03*
X3500000Y24000000I750000J0D01*
G01*
X9500000Y26000000D02*
G75*
G03*
X500000Y26000000I-4500000J0D01*
G01*
X500000Y26000000D02*
G75*
G03*
X9500000Y26000000I4500000J0D01*
G01*
X5571500Y26000000D02*
G75*
G03*
X4428500Y26000000I-571500J0D01*
G01*
X4428500Y26000000D02*
G75*
G03*
X5571500Y26000000I571500J0D01*
G01*
D17*
X5250000Y26000000D02*
G75*
G03*
X4750000Y26000000I-250000J0D01*
G01*
X4750000Y26000000D02*
G75*
G03*
X5250000Y26000000I250000J0D01*
G01*
D10*
X20730000Y34710000D02*
X23270000Y34710000D01*
X20730000Y34710000D02*
X20730000Y34964000D01*
X20984000Y34710000D02*
X20730000Y34964000D01*
X20730000Y34964000D02*
X20730000Y36996000D01*
X23270000Y34964000D02*
X23016000Y34710000D01*
X23270000Y35218000D02*
X23270000Y34710000D01*
X20730000Y36996000D02*
X20984000Y37250000D01*
X23270000Y36996000D02*
X23270000Y35218000D01*
X20984000Y37250000D02*
X20730000Y37504000D01*
X23016000Y37250000D02*
X23270000Y36996000D01*
X20730000Y37504000D02*
X20730000Y39536000D01*
X23270000Y37504000D02*
X23016000Y37250000D01*
X20730000Y39536000D02*
X20984000Y39790000D01*
X23270000Y39536000D02*
X23270000Y37504000D01*
X23270000Y39536000D02*
X23016000Y39790000D01*
X20984000Y39790000D02*
X23016000Y39790000D01*
M02*
