M48
; DRILL file {KiCad 7.0.11-7.0.11~ubuntu22.04.1} date 13.09.2024 (пт) 11:35:29
; FORMAT={-:-/ absolute / metric / decimal}
; #@! TF.CreationDate,2024-09-13T11:35:29+03:00
; #@! TF.GenerationSoftware,Kicad,Pcbnew,7.0.11-7.0.11~ubuntu22.04.1
; #@! TF.FileFunction,Plated,1,2,PTH
FMAT,2
METRIC
; #@! TA.AperFunction,Plated,PTH,ViaDrill
T1C0.600
; #@! TA.AperFunction,Plated,PTH,ComponentDrill
T2C0.700
; #@! TA.AperFunction,Plated,PTH,ComponentDrill
T3C0.800
; #@! TA.AperFunction,Plated,PTH,ComponentDrill
T4C0.900
; #@! TA.AperFunction,Plated,PTH,ComponentDrill
T5C1.000
; #@! TA.AperFunction,Plated,PTH,ComponentDrill
T6C1.300
; #@! TA.AperFunction,Plated,PTH,ComponentDrill
T7C2.500
%
G90
G05
T1
X1.0Y48.5
X1.0Y42.25
X1.0Y30.5
X1.0Y28.0
X1.0Y25.5
X1.0Y23.0
X1.0Y11.0
X1.0Y8.5
X1.0Y6.0
X1.0Y1.0
X5.5Y48.5
X5.5Y1.0
X6.5Y44.0
X11.5Y36.0
X12.5Y1.0
X14.0Y36.0
X14.25Y23.25
X14.25Y22.0
X14.623Y27.431
X14.7Y48.6
X15.75Y22.0
X16.5Y36.0
X16.865Y31.9
X16.865Y22.8
X16.9Y26.4
X18.1Y22.0
X18.25Y26.4
X19.0Y36.0
X19.5Y26.4
X24.0Y44.0
X24.0Y40.5
X24.0Y33.5
X24.0Y31.0
X24.0Y28.0
X24.0Y25.5
X25.0Y48.5
X27.0Y29.5
X30.0Y48.5
X30.0Y42.25
X30.0Y25.0
X30.0Y22.5
X30.0Y20.0
X30.0Y11.5
X30.0Y5.0
T2
X8.2Y34.55
X8.2Y32.75
X8.2Y30.95
T3
X11.5Y29.81
X11.5Y22.19
X19.5Y18.75
X19.5Y16.25
X27.0Y24.27
X27.0Y21.73
T4
X5.74Y8.81
X5.74Y6.27
X7.73Y8.81
X7.73Y6.27
X10.27Y8.81
X10.27Y6.27
X11.5Y39.04
X11.5Y33.96
X11.5Y20.04
X11.5Y14.96
X12.26Y8.81
X12.26Y6.27
X14.0Y39.04
X14.0Y33.96
X14.0Y20.04
X14.0Y14.96
X16.5Y39.04
X16.5Y33.96
X16.5Y20.04
X16.5Y14.96
X19.0Y39.04
X19.0Y33.96
X27.0Y32.04
X27.0Y26.96
T5
X5.0Y28.0
X5.0Y24.0
X10.075Y45.02
X11.22Y47.0
X11.22Y43.04
X12.365Y45.02
X13.51Y47.0
X13.51Y43.04
X14.655Y45.02
X15.8Y47.0
X15.8Y43.04
X16.945Y45.02
X18.09Y47.0
X18.09Y43.04
X19.235Y45.02
X20.38Y47.0
X20.38Y43.04
X22.0Y38.52
X22.0Y35.98
X29.5Y31.25
T7
X2.7Y3.5
X9.0Y2.7
X15.3Y3.5
T5
G00X23.25Y11.5
M15
G01X26.25Y11.5
M16
G05
G00X23.25Y5.0
M15
G01X26.25Y5.0
M16
G05
G00X29.2Y6.7
M15
G01X29.2Y9.7
M16
G05
T6
G00X4.005Y45.02
M15
G01X2.005Y45.02
M16
G05
G00X28.995Y45.02
M15
G01X26.995Y45.02
M16
G05
M30
